{"glyphs":{"0":{"ha":772,"x_min":28,"x_max":742,"o":"m 740 524 q 741 506 742 515 q 740 486 740 496 q 741 472 740 479 q 740 458 742 465 l 740 438 l 736 388 q 734 365 735 376 q 732 340 733 353 q 722 290 725 315 q 710 240 718 264 q 638 97 682 154 q 513 6 594 39 q 474 -4 494 -1 q 433 -12 454 -7 q 415 -14 424 -14 q 397 -15 407 -14 q 383 -16 393 -17 q 369 -14 374 -15 l 356 -14 q 348 -14 353 -14 q 340 -12 343 -14 q 318 -9 329 -10 q 296 -6 307 -8 q 247 10 269 1 q 206 32 225 19 q 124 107 154 64 q 69 208 93 150 q 58 249 63 228 q 47 290 54 269 q 42 322 43 306 q 36 356 40 339 q 35 368 35 363 q 33 379 36 374 q 33 396 33 388 q 32 413 33 404 q 31 425 31 419 q 31 438 32 431 q 28 463 28 449 q 29 488 29 476 q 28 508 29 497 q 31 526 28 518 l 31 544 q 32 566 33 556 q 33 588 31 576 l 33 601 q 35 618 36 610 q 38 636 35 626 q 40 652 40 643 q 43 669 40 661 q 51 707 49 689 q 61 743 54 725 q 133 883 89 826 q 256 971 178 939 q 291 981 272 978 q 329 989 310 985 q 343 990 336 990 q 357 992 350 990 q 365 992 360 993 q 372 992 369 990 q 501 975 446 993 q 596 924 556 957 q 663 844 636 890 q 708 743 690 797 q 720 694 717 719 q 731 644 724 669 q 733 623 733 633 q 735 601 732 613 q 738 573 738 588 q 740 544 738 558 l 740 524 m 546 461 q 547 476 547 468 q 546 490 546 483 q 547 505 546 497 q 546 519 547 513 l 546 531 q 546 549 546 540 q 544 567 546 558 l 544 581 q 541 608 542 594 q 539 635 540 621 q 535 657 536 646 q 531 679 533 668 q 505 752 519 718 q 461 806 490 786 q 424 824 444 818 q 374 831 404 831 q 366 829 371 828 q 358 829 361 831 q 345 825 351 826 q 332 821 339 824 q 282 781 300 807 q 250 722 264 754 q 239 677 242 701 q 231 628 236 653 q 228 606 229 617 q 226 583 228 594 q 225 560 225 572 q 225 536 225 547 l 225 521 q 223 506 222 514 q 224 490 224 497 q 224 476 224 483 q 225 463 224 469 q 225 447 226 456 q 225 431 224 438 l 225 411 q 228 385 228 399 q 231 358 228 371 l 231 347 q 235 322 233 335 q 239 296 236 308 q 256 244 247 268 q 279 200 264 221 q 310 169 294 181 q 353 149 326 157 q 372 144 360 146 q 394 144 385 142 q 409 147 401 147 q 424 150 417 147 q 456 166 439 156 q 482 188 472 176 q 503 222 494 206 q 519 258 511 238 q 529 295 526 276 q 538 333 532 314 q 539 347 539 340 q 540 360 539 353 q 542 380 543 369 q 544 400 542 390 q 544 424 544 411 q 546 447 544 436 l 546 461 z "},"1":{"ha":772,"x_min":103,"x_max":544,"o":"m 425 969 l 478 969 q 492 970 485 969 q 506 968 499 971 l 513 968 q 526 965 519 967 q 535 958 532 963 q 542 933 542 949 q 543 899 543 917 l 543 769 l 543 263 l 543 86 q 544 47 543 68 q 538 14 544 25 q 524 5 532 7 q 506 0 517 3 l 471 0 l 415 0 q 401 -1 408 0 q 386 0 393 -1 l 379 0 q 366 5 372 3 q 356 13 360 7 q 349 35 349 21 q 349 64 349 49 l 349 168 l 349 464 l 349 553 q 349 578 349 564 q 347 603 350 593 q 321 628 340 626 q 274 631 301 631 l 174 631 q 136 632 154 631 q 110 644 118 633 q 107 655 107 650 q 106 667 107 660 q 103 681 103 674 q 104 696 104 689 q 104 733 104 714 q 111 764 104 753 q 131 775 118 774 q 158 779 144 776 l 172 779 q 190 783 181 782 q 207 785 199 783 q 238 794 224 790 q 268 806 253 799 q 323 842 300 819 q 363 892 346 864 q 378 930 371 907 q 397 961 385 953 q 413 968 404 967 q 419 969 415 969 q 425 969 422 968 z "},"2":{"ha":772,"x_min":31,"x_max":743,"o":"m 392 990 q 578 950 503 993 q 696 840 654 907 q 707 818 703 829 q 717 796 711 807 q 730 745 725 774 q 735 686 735 717 q 732 626 736 656 q 718 575 728 597 q 682 506 704 539 q 618 436 654 465 q 543 379 582 407 q 520 364 532 372 q 497 349 508 356 q 438 310 467 329 q 382 269 410 290 q 365 256 372 263 q 349 242 357 249 q 347 239 347 240 q 343 236 346 238 q 326 220 335 229 q 311 200 317 211 q 308 194 310 197 q 307 183 306 190 q 317 174 310 176 q 331 169 324 171 l 338 169 q 353 167 344 167 q 369 168 363 168 l 432 168 l 643 168 q 690 169 663 168 q 729 161 718 169 q 739 144 736 156 q 742 119 742 133 q 742 90 743 104 q 742 63 742 75 q 742 44 742 54 q 740 28 743 35 q 726 7 739 14 q 705 1 718 1 q 679 1 692 1 l 583 1 l 210 1 l 103 1 q 76 1 90 1 q 51 4 61 0 q 34 26 38 11 q 35 60 31 42 q 35 69 35 64 q 36 78 36 74 q 42 101 39 89 q 47 125 44 114 q 100 232 68 186 q 182 319 135 281 q 278 393 229 357 q 355 445 317 419 q 432 499 393 471 q 449 513 442 506 q 465 526 457 519 q 501 563 485 542 q 528 608 518 585 q 532 622 531 615 q 536 635 533 628 q 540 665 539 646 q 539 699 542 685 q 536 714 538 706 q 532 729 535 722 q 472 803 513 779 q 454 812 464 808 q 433 818 444 815 q 419 820 426 821 q 403 822 411 819 q 381 823 393 825 q 360 818 368 821 q 279 758 306 801 q 260 717 267 739 q 246 671 253 696 q 241 634 242 653 q 225 606 240 615 q 206 601 218 601 q 182 600 194 600 l 111 600 q 84 601 96 600 q 64 608 72 601 q 54 624 57 613 q 54 644 51 635 l 54 657 q 56 674 56 665 q 58 692 57 683 q 65 727 63 710 q 75 760 68 744 q 83 783 79 772 q 92 806 88 794 q 101 823 96 814 q 113 840 107 832 q 178 916 140 886 q 269 968 217 946 q 308 978 289 975 q 349 988 328 982 q 363 988 356 988 q 376 990 369 989 q 384 990 379 990 q 392 990 389 989 z "},"3":{"ha":772,"x_min":26,"x_max":746,"o":"m 374 990 q 496 976 443 993 q 590 932 549 958 q 606 920 599 926 q 622 907 614 914 q 685 826 663 878 q 692 810 688 818 q 699 792 696 801 q 708 729 707 767 q 703 664 710 692 q 674 596 692 624 q 665 586 669 590 q 657 578 661 582 q 649 567 651 569 q 614 539 628 553 q 608 533 611 536 q 607 524 606 529 q 618 508 607 517 q 638 496 628 501 q 658 483 647 490 q 729 389 706 449 q 738 362 735 376 q 743 332 740 347 q 744 317 746 325 q 744 300 742 308 q 745 285 746 294 q 743 269 744 275 q 742 251 743 257 q 737 229 739 240 q 732 207 735 218 q 658 83 706 128 q 535 8 610 39 q 504 -1 519 3 q 472 -8 489 -4 q 458 -11 465 -11 q 443 -14 450 -11 q 422 -15 432 -14 q 400 -17 411 -15 q 384 -17 394 -18 q 368 -15 374 -17 l 344 -15 q 335 -15 340 -14 q 325 -14 329 -15 q 303 -10 314 -11 q 282 -6 292 -8 q 272 -3 276 -3 q 263 -1 267 -3 q 234 8 247 3 q 208 18 221 13 q 117 81 156 42 q 54 174 78 121 q 43 206 47 189 q 33 240 39 222 q 31 255 31 247 q 29 269 32 263 q 26 292 26 279 q 29 315 26 306 q 67 334 38 333 q 122 335 96 335 q 143 335 132 335 q 163 333 154 336 l 178 333 q 199 326 193 331 q 212 305 210 319 q 219 275 214 290 q 232 240 226 256 q 249 208 238 224 q 325 151 274 171 q 342 148 333 149 q 358 144 350 147 l 365 144 q 396 143 379 142 q 424 149 413 144 q 447 154 438 151 q 496 184 475 165 q 528 231 517 203 q 534 249 532 239 q 539 269 536 258 q 542 292 542 276 q 540 315 543 307 q 540 321 540 318 q 539 326 539 324 q 536 341 538 333 q 532 356 535 349 q 495 405 518 388 q 436 433 472 422 q 416 436 426 436 q 394 439 406 436 q 385 440 390 440 q 378 440 381 440 l 365 440 q 356 441 361 442 q 349 442 351 440 q 331 449 338 444 q 321 461 324 453 q 317 478 318 468 q 317 499 317 488 q 317 536 317 517 q 325 567 318 556 q 341 575 329 572 q 367 579 353 578 q 394 581 381 581 q 415 585 407 582 q 478 612 454 596 q 517 664 503 628 q 522 689 519 672 q 522 719 525 706 q 517 742 519 731 q 507 764 514 754 q 431 824 482 807 q 417 826 424 826 q 404 829 411 826 q 377 831 393 832 q 351 826 361 829 q 340 823 344 824 q 328 819 335 822 q 263 767 286 803 q 249 740 254 754 q 240 711 244 726 q 233 683 236 696 q 219 663 231 669 q 201 657 215 660 l 186 657 q 169 656 179 656 q 151 657 160 657 q 102 656 129 657 q 61 665 75 654 q 53 681 56 669 q 53 704 50 693 q 56 718 56 711 q 58 732 56 725 q 67 765 63 749 q 78 796 71 781 q 151 905 107 863 q 267 974 196 947 q 299 982 282 979 q 335 988 317 985 q 355 990 346 989 q 374 990 364 990 z "},"4":{"ha":772,"x_min":21,"x_max":749,"o":"m 725 385 q 748 354 747 378 q 749 303 749 331 l 749 264 q 742 241 746 250 q 726 229 739 232 q 699 226 714 225 q 669 226 683 226 q 643 223 656 226 q 625 208 631 219 q 619 189 622 203 l 619 174 q 619 156 618 167 q 619 136 619 146 l 619 64 q 619 35 619 49 q 613 14 619 22 q 602 6 608 8 q 589 1 596 4 l 582 1 q 556 0 571 -1 q 529 1 540 1 q 501 1 515 1 q 474 1 486 0 q 451 7 461 3 q 438 21 442 11 q 435 38 435 28 q 435 60 435 49 l 435 126 q 435 143 435 133 q 435 160 436 153 l 435 189 q 429 207 432 200 q 419 219 426 214 q 381 227 407 228 q 335 226 354 226 l 129 226 q 103 226 118 226 q 74 226 89 225 q 48 228 60 226 q 32 238 36 231 q 24 268 24 247 l 24 285 q 22 306 21 294 q 22 328 22 317 q 22 366 22 344 q 26 401 22 388 q 34 419 29 411 q 44 435 39 428 q 72 471 58 454 q 100 507 86 488 q 176 610 136 560 q 253 714 215 661 q 269 735 260 725 q 285 756 278 744 q 335 824 310 790 q 386 892 361 857 q 401 913 393 903 q 418 933 410 922 q 426 947 422 940 q 438 958 431 953 q 448 964 443 961 q 460 968 453 967 q 467 969 463 969 q 475 971 472 968 l 565 971 q 593 969 581 971 q 613 958 606 968 q 619 938 618 950 q 619 910 619 925 l 619 457 q 619 433 619 446 q 622 411 619 421 q 644 389 626 393 q 685 387 661 383 q 725 385 708 390 m 435 451 q 435 468 436 458 q 435 485 435 478 l 435 601 q 435 615 435 608 q 435 629 436 622 q 434 647 432 638 q 433 664 436 656 q 430 684 431 675 q 415 694 429 693 q 409 691 413 692 q 403 688 406 690 q 390 672 396 682 q 376 656 383 663 q 356 628 367 640 q 335 600 346 615 q 325 586 331 593 q 314 572 319 579 l 239 472 q 228 457 233 465 q 217 440 224 449 q 209 430 214 435 q 201 418 204 425 q 200 403 199 411 q 207 393 201 396 q 231 386 215 386 q 261 386 247 386 l 343 386 q 364 385 353 386 q 383 386 375 385 l 397 386 q 415 391 407 389 q 426 400 422 393 q 433 416 432 407 q 435 436 435 425 l 435 451 z "},"5":{"ha":772,"x_min":28,"x_max":747,"o":"m 189 971 l 547 971 l 633 971 q 662 970 649 971 q 683 963 675 969 q 692 947 689 958 q 695 921 694 935 q 695 892 696 907 q 694 867 694 878 q 694 848 694 857 q 692 832 694 839 q 669 813 685 815 q 629 811 653 811 l 522 811 l 372 811 q 333 810 353 811 q 301 801 313 810 q 290 785 294 796 q 284 762 286 775 q 281 735 282 749 q 276 711 279 721 q 272 689 274 700 q 268 667 271 678 q 267 653 267 663 q 264 637 264 646 q 267 622 264 628 q 269 618 268 619 q 274 614 271 617 q 294 617 286 613 q 310 625 303 621 q 329 636 319 632 q 350 644 339 640 q 390 655 367 651 q 438 660 413 658 q 488 658 464 661 q 531 650 513 656 q 562 639 546 644 q 592 625 578 633 q 718 485 678 575 q 729 451 725 468 q 738 414 733 433 q 744 374 742 397 q 747 326 747 350 q 744 280 747 303 q 736 240 742 257 q 720 197 728 218 q 701 157 713 176 q 684 131 693 143 q 665 107 675 118 q 663 105 664 106 q 660 103 661 104 q 649 90 654 96 q 636 78 643 83 q 634 75 635 76 q 631 72 633 74 q 617 61 624 67 q 604 50 611 56 q 503 0 560 18 q 479 -6 492 -4 q 453 -11 467 -8 q 429 -15 442 -14 q 401 -17 417 -15 q 390 -17 396 -17 q 379 -17 385 -18 l 369 -17 q 355 -15 363 -15 q 340 -15 347 -15 q 309 -10 325 -11 q 278 -6 293 -10 q 217 15 246 4 q 163 42 188 26 q 147 53 154 47 q 131 65 139 58 l 122 74 q 110 83 115 78 q 101 94 106 89 q 90 106 96 101 q 81 118 85 111 q 57 160 67 138 q 39 207 47 182 q 32 240 36 218 q 35 272 28 261 q 55 285 42 283 q 86 288 68 288 l 161 288 q 185 288 174 288 q 207 283 197 288 q 226 263 221 276 q 236 235 231 249 q 247 215 242 224 q 260 196 253 206 q 269 186 264 190 q 281 178 275 182 q 300 163 289 168 q 355 145 319 151 q 421 147 390 139 q 458 163 442 154 q 489 183 474 172 q 500 193 496 188 q 508 206 504 199 q 529 237 521 221 q 544 274 538 253 q 550 300 547 290 l 550 313 q 553 338 553 321 q 550 363 553 354 q 545 383 547 372 q 540 401 543 393 q 498 468 524 442 q 428 507 472 494 q 414 510 421 510 q 400 513 407 510 l 389 513 q 369 514 381 515 q 350 510 357 513 q 338 508 343 508 q 328 507 333 508 q 299 494 313 501 q 275 479 286 488 q 253 459 263 471 q 229 440 244 447 q 190 435 214 433 q 144 436 165 436 q 124 435 135 436 q 107 436 114 433 l 94 436 q 74 443 79 439 q 65 478 61 454 q 72 516 69 497 q 79 554 75 535 q 81 564 81 560 q 82 574 81 568 q 87 601 85 588 q 92 629 89 615 q 97 653 94 640 q 101 678 99 667 q 103 693 103 685 q 106 708 103 701 q 118 772 114 739 q 129 835 122 804 q 131 843 131 839 q 132 850 131 847 q 137 880 135 865 q 143 910 139 894 q 148 937 146 925 q 158 960 150 949 q 178 969 164 967 q 183 970 181 971 q 189 971 186 969 z "},"6":{"ha":772,"x_min":28,"x_max":742,"o":"m 740 347 q 741 324 742 340 q 739 301 740 308 q 738 290 738 294 q 736 278 738 285 q 731 249 733 263 q 724 221 729 235 q 656 96 700 149 q 546 14 613 43 q 520 5 533 8 q 492 -4 507 1 q 468 -8 481 -7 q 443 -12 456 -10 q 428 -14 436 -15 q 414 -14 421 -12 q 392 -17 406 -17 q 372 -14 379 -17 l 363 -14 q 351 -12 357 -12 q 339 -11 344 -12 q 326 -9 332 -8 q 313 -7 319 -10 q 261 9 285 1 q 217 31 238 17 q 122 118 158 65 q 63 240 86 171 q 50 287 54 263 q 40 335 46 311 q 37 358 38 346 q 33 382 36 369 q 33 408 33 394 q 31 435 32 421 l 31 453 q 28 467 28 460 q 29 482 29 475 q 28 497 29 489 q 31 510 28 504 l 31 526 l 35 581 q 42 623 40 601 q 50 664 43 644 q 83 762 65 717 q 128 846 100 807 q 202 924 160 890 q 303 976 244 957 q 335 984 318 982 q 368 990 351 986 q 385 991 372 992 q 400 992 397 990 q 497 983 453 993 q 574 953 540 972 q 635 908 608 935 q 682 850 663 882 q 701 813 693 832 q 715 771 708 793 q 717 753 718 764 q 713 738 717 743 q 702 729 708 731 q 688 725 696 728 l 672 725 q 653 724 664 722 q 631 725 642 725 q 608 724 619 725 q 585 725 596 722 q 564 726 578 726 q 533 748 540 732 q 515 782 526 764 q 438 840 489 824 q 416 845 429 843 q 392 844 403 847 q 364 838 376 842 q 340 828 351 835 q 286 776 307 807 q 250 706 265 746 q 246 692 247 699 q 242 679 244 686 q 235 656 238 668 q 229 631 232 643 q 228 624 229 628 q 228 618 228 621 q 226 603 226 611 q 229 589 226 594 q 232 585 231 586 q 236 581 233 583 q 261 588 251 578 q 281 604 271 597 q 315 626 296 617 q 354 642 333 635 q 377 647 365 644 q 400 651 389 649 q 412 651 407 653 q 424 653 417 650 q 440 654 431 654 q 457 653 450 654 q 474 651 463 651 q 488 649 481 650 q 501 646 494 649 q 523 641 513 643 q 544 635 533 639 q 624 591 589 617 q 685 529 658 565 q 708 490 697 511 q 725 444 718 468 q 731 422 729 433 q 736 399 733 410 q 738 381 738 389 q 740 363 739 372 l 740 347 m 535 254 q 545 322 544 283 q 535 390 546 361 q 488 472 519 439 q 392 506 456 506 q 383 505 389 504 q 374 504 378 506 q 354 500 364 501 q 336 496 344 499 q 250 397 271 468 q 245 378 247 388 q 240 358 243 369 l 240 347 q 238 318 238 335 q 242 290 239 301 q 245 276 244 283 q 249 263 246 269 q 325 164 268 197 q 365 147 342 154 q 378 146 374 147 q 391 144 383 144 q 406 144 399 143 q 428 149 418 147 q 450 156 439 151 q 503 196 482 169 q 535 254 524 222 z "},"7":{"ha":772,"x_min":54,"x_max":715,"o":"m 93 971 l 554 971 l 657 971 q 688 969 674 971 q 708 957 701 968 q 715 938 714 950 q 715 914 715 926 l 715 857 q 715 831 715 843 q 711 807 715 818 q 701 791 707 799 q 688 776 694 783 q 678 768 682 771 q 670 758 675 763 q 661 750 665 754 q 643 728 653 739 q 625 706 633 717 q 506 494 556 608 q 476 415 489 456 q 449 332 463 374 q 438 294 442 313 q 431 258 435 276 q 421 214 424 236 q 413 168 418 192 q 411 155 411 161 q 408 142 411 149 q 406 113 407 126 q 401 85 404 100 q 401 72 400 78 q 400 60 401 67 l 400 43 q 392 18 396 28 q 374 3 389 8 q 354 1 365 0 q 332 1 343 1 l 246 1 q 217 3 231 1 q 197 15 204 4 q 192 38 193 22 q 194 64 192 53 q 197 82 197 72 q 200 101 197 92 q 208 144 206 122 q 217 186 210 165 q 235 256 226 221 q 254 322 243 290 q 259 337 257 329 q 264 351 261 344 q 286 406 275 379 q 308 460 297 432 q 352 549 328 506 q 403 633 376 592 q 436 683 419 658 q 471 733 453 708 q 483 751 474 739 q 490 772 493 763 q 481 784 488 782 q 464 789 474 786 l 451 789 q 438 791 446 792 q 424 790 431 790 l 369 790 l 157 790 q 109 790 138 790 q 69 796 81 789 q 57 811 60 801 q 54 828 54 818 q 54 847 54 838 l 54 910 q 54 935 54 922 q 60 956 54 947 q 81 969 65 965 q 87 970 83 971 q 93 971 90 969 z "},"8":{"ha":772,"x_min":21,"x_max":754,"o":"m 751 307 q 753 292 753 300 q 753 279 754 285 q 751 267 751 272 q 751 254 751 261 q 750 244 750 250 q 749 233 750 239 q 744 217 746 225 q 740 201 743 208 q 733 179 738 190 q 725 157 729 168 q 715 138 721 147 q 701 119 708 129 q 629 49 672 78 q 533 3 586 21 q 503 -4 518 -1 q 472 -11 488 -7 q 461 -13 467 -14 q 450 -15 456 -12 q 428 -16 439 -15 q 406 -18 417 -17 l 393 -18 q 375 -19 385 -18 q 358 -17 365 -19 q 342 -15 350 -14 q 326 -15 333 -17 q 315 -13 321 -12 q 303 -11 310 -14 q 278 -6 290 -8 q 254 0 265 -4 q 248 1 251 1 q 242 3 244 1 q 188 24 214 11 q 127 61 157 38 q 78 110 97 85 q 53 150 64 128 q 44 168 47 158 q 38 188 40 178 q 31 213 33 199 q 25 240 28 226 q 24 251 24 246 q 22 263 24 257 l 22 275 q 22 294 21 281 q 24 313 22 307 q 29 347 28 331 q 38 378 31 363 q 67 433 50 408 q 107 476 83 458 q 150 503 126 489 q 162 511 156 507 q 171 522 168 515 q 170 531 172 528 q 165 538 168 535 q 136 560 154 549 q 97 603 113 578 q 71 661 82 629 q 63 733 60 692 q 75 801 65 774 q 147 908 100 869 q 263 969 194 946 q 300 979 281 976 q 340 986 319 982 q 359 988 350 988 q 378 989 368 989 q 503 976 449 992 q 597 931 557 960 q 623 911 611 921 q 646 889 635 901 l 650 885 q 661 870 656 878 q 672 856 667 863 q 677 847 675 851 q 682 838 679 843 q 709 758 700 808 q 704 664 718 708 q 678 606 693 632 q 639 563 663 581 q 624 551 632 557 q 610 539 615 546 q 604 533 607 536 q 604 522 601 529 q 611 512 607 515 q 621 506 615 508 q 640 495 631 500 q 660 483 650 490 q 733 390 708 450 q 743 360 740 375 q 750 326 746 344 q 751 317 750 321 q 751 307 751 313 m 250 758 q 240 708 240 738 q 250 657 240 678 q 281 616 261 632 q 326 589 300 600 q 340 585 333 586 q 354 583 347 585 q 393 579 369 579 q 432 583 417 579 q 493 613 468 594 q 529 668 518 632 q 535 694 532 678 q 535 724 538 711 q 533 733 533 729 q 531 743 532 738 q 524 764 528 754 q 515 783 521 774 q 442 836 492 818 q 427 839 435 839 q 413 842 419 839 q 394 843 404 844 q 375 842 385 842 q 367 840 372 839 q 358 840 363 842 q 344 837 351 838 q 329 833 336 836 q 281 804 301 822 q 250 758 261 786 m 554 261 q 556 312 561 285 q 543 354 550 339 q 484 423 524 399 q 382 449 444 447 q 374 447 379 446 q 364 447 368 447 q 345 443 354 444 q 328 439 336 442 q 268 408 293 428 q 229 356 243 388 q 224 338 226 347 q 219 318 222 329 q 218 283 217 303 q 224 251 219 263 q 233 222 228 236 q 262 181 244 199 q 300 150 279 163 q 313 144 307 147 q 325 139 318 142 q 341 135 332 136 q 358 131 350 133 q 375 129 364 129 q 390 127 379 128 q 404 128 400 126 q 431 132 418 131 q 454 139 443 133 q 508 172 485 151 q 543 221 531 192 q 549 240 547 231 q 554 261 551 250 z "},"9":{"ha":772,"x_min":26,"x_max":740,"o":"m 739 521 q 740 494 740 514 q 739 468 740 475 l 739 451 q 738 436 738 444 q 736 421 738 428 q 735 408 735 414 q 733 394 735 401 q 729 361 731 378 q 724 329 728 344 q 715 298 718 314 q 707 267 713 282 q 683 208 696 236 q 656 154 671 179 q 642 133 649 143 q 628 113 635 124 q 619 103 624 107 q 610 92 614 99 q 600 81 606 88 q 589 71 594 74 q 566 51 578 61 q 542 35 554 42 q 503 15 524 24 q 463 -1 483 6 q 432 -8 447 -6 q 400 -12 417 -10 q 385 -14 393 -15 q 371 -14 378 -12 q 351 -16 364 -17 q 332 -14 339 -15 q 322 -13 326 -14 q 310 -12 317 -12 q 288 -8 299 -10 q 267 -4 276 -7 q 238 5 251 1 q 213 14 225 8 q 53 211 89 68 q 53 229 50 219 q 72 248 58 246 q 107 250 86 250 l 151 250 q 178 251 163 250 q 203 250 193 253 q 235 228 228 243 q 253 193 242 213 q 275 167 261 181 q 308 144 289 153 q 349 131 326 135 q 394 135 371 128 q 447 159 425 143 q 483 197 468 175 q 509 245 499 218 q 529 303 519 272 q 533 321 532 311 q 538 340 535 331 q 539 350 539 346 q 540 358 539 354 q 542 374 542 365 q 539 388 542 382 q 535 392 538 390 q 532 394 533 393 q 513 390 519 396 q 499 379 506 385 q 475 363 488 371 q 449 347 463 354 q 403 331 429 338 q 348 324 376 325 q 291 325 319 322 q 240 336 263 328 q 138 389 178 356 q 67 474 99 422 q 51 510 57 490 q 39 549 46 529 q 35 569 36 558 q 31 592 33 581 q 30 602 31 597 q 29 613 29 607 q 27 632 28 619 q 29 651 26 644 q 29 666 31 658 q 31 681 28 674 q 32 697 31 692 q 37 726 35 713 q 44 753 39 739 q 66 808 54 782 q 94 856 78 833 q 107 873 100 865 q 121 889 114 881 q 133 901 125 894 q 146 913 140 908 l 150 917 q 164 928 157 922 q 179 938 171 933 q 222 961 199 951 q 269 979 244 971 q 297 985 283 983 q 326 990 311 988 q 344 991 332 992 q 358 992 356 990 q 483 977 429 993 q 576 931 536 961 q 646 858 617 900 q 696 768 675 817 q 708 730 703 749 q 718 692 713 711 q 722 672 721 682 q 726 653 724 663 q 731 623 731 638 q 735 594 732 608 q 735 583 736 588 q 736 572 735 578 q 738 556 738 564 q 738 540 738 549 q 738 531 739 536 q 739 521 738 525 m 526 608 q 531 662 533 632 q 521 711 528 692 q 467 797 503 763 q 364 831 432 831 q 356 829 361 828 q 347 829 350 831 l 318 821 q 262 776 282 806 q 231 707 242 746 q 224 665 225 692 q 226 621 222 638 q 229 601 229 610 q 232 585 229 593 q 260 527 243 550 q 304 488 276 504 q 323 478 313 482 q 344 472 333 475 q 351 472 347 472 q 358 471 354 471 q 369 469 363 469 q 379 469 375 468 q 387 470 382 471 q 396 471 392 469 q 413 475 404 474 q 429 479 421 476 q 514 563 486 504 q 521 585 518 574 q 526 608 524 596 z "}," ":{"ha":386,"x_min":0,"x_max":0,"o":""},"\b":{"ha":0,"x_min":0,"x_max":0,"o":""},"\t":{"ha":386,"x_min":0,"x_max":0,"o":""},"\r":{"ha":386,"x_min":0,"x_max":0,"o":""},"\u001d":{"ha":0,"x_min":0,"x_max":0,"o":""},"!":{"ha":386,"x_min":86,"x_max":301,"o":"m 97 679 q 91 746 90 710 q 92 818 92 782 l 92 925 q 92 954 92 940 q 99 978 92 968 q 118 989 106 986 q 124 990 121 990 q 129 990 126 989 l 236 990 q 267 989 253 990 q 289 978 282 988 q 294 957 294 969 q 294 931 294 944 l 294 776 q 296 758 294 768 q 294 740 297 747 l 294 725 q 292 705 292 715 q 290 686 293 694 q 288 673 288 679 q 286 660 289 667 q 283 635 283 647 q 281 613 283 624 q 279 602 279 607 q 278 592 279 597 q 274 554 275 574 q 268 517 272 535 q 266 499 265 507 q 264 479 267 490 q 258 427 258 454 q 250 375 257 400 q 245 335 246 356 q 231 306 244 315 q 221 301 226 303 q 208 299 215 300 l 189 299 q 165 301 175 299 q 149 311 154 304 q 142 329 142 319 q 139 350 142 339 q 134 382 135 365 q 129 414 133 399 q 128 429 129 425 q 126 446 126 438 q 125 463 126 454 q 119 503 119 482 q 114 544 118 525 q 113 558 113 551 q 111 571 113 564 q 108 597 108 583 q 104 625 107 611 q 103 631 104 628 q 103 636 103 633 q 100 658 100 647 q 97 679 100 668 m 290 204 q 300 185 299 197 q 301 157 301 172 l 301 57 q 300 29 301 42 q 292 10 299 17 q 268 2 282 3 q 239 1 254 1 l 146 1 q 117 2 131 1 q 96 11 103 3 q 88 33 89 19 q 86 61 86 46 l 86 149 q 86 176 86 163 q 92 197 86 189 q 113 211 97 206 q 119 212 115 213 q 125 213 122 211 l 235 213 q 266 212 251 213 q 290 204 281 211 z "},"\"":{"ha":643,"x_min":117,"x_max":524,"o":"m 257 979 q 265 944 265 967 q 264 901 264 921 l 264 613 q 264 583 264 597 q 258 561 264 569 q 238 549 253 551 q 222 547 231 546 q 206 547 214 547 q 160 547 185 547 q 126 558 135 546 q 119 577 119 565 q 118 603 118 589 l 118 888 q 117 935 118 907 q 124 976 117 964 q 142 989 129 983 q 148 990 144 989 q 156 990 151 990 q 183 991 167 990 q 213 991 199 992 q 240 988 228 990 q 257 979 253 985 m 522 613 q 522 585 522 599 q 517 563 522 571 q 496 549 511 551 q 481 547 489 546 q 464 547 472 547 q 419 547 444 547 q 385 558 393 546 q 377 577 378 565 q 376 603 376 589 l 376 888 q 376 935 376 907 q 382 976 375 964 q 400 989 388 983 q 407 990 403 989 q 414 990 411 990 q 440 991 425 990 q 470 991 456 992 q 497 988 485 990 q 514 981 508 986 q 523 947 524 969 q 522 903 522 924 l 522 613 z "},"#":{"ha":772,"x_min":46,"x_max":725,"o":"m 724 631 q 724 612 724 621 q 722 596 725 603 q 708 576 718 581 q 683 572 697 572 q 655 573 669 572 q 626 569 640 574 q 606 555 613 565 q 598 530 600 544 q 594 499 596 515 q 590 469 593 483 q 588 458 589 464 q 586 444 588 451 l 586 436 q 585 433 586 435 q 585 428 585 431 q 590 413 588 419 q 599 403 592 407 q 629 398 610 396 q 663 394 649 400 q 682 364 678 388 l 682 351 q 683 335 683 344 q 682 319 683 326 l 682 308 q 681 300 681 304 q 678 292 681 296 q 657 277 672 279 q 622 275 642 275 q 611 275 617 275 q 601 274 606 275 l 593 274 q 564 257 572 269 q 556 228 557 246 q 551 194 556 211 q 542 134 544 165 q 533 72 540 103 q 530 50 531 61 q 527 29 529 39 q 519 13 525 19 q 503 1 514 6 q 487 -1 496 -1 q 469 0 478 0 q 429 1 450 0 q 401 14 408 1 q 397 39 396 21 q 400 67 397 57 q 408 118 407 92 q 415 169 410 144 q 417 182 417 176 q 418 194 417 188 q 419 205 419 200 q 421 215 419 210 q 422 251 425 236 q 400 272 419 267 q 385 275 393 275 q 367 275 376 275 q 331 274 349 275 q 303 267 314 274 q 290 241 292 257 q 285 208 289 225 q 283 192 282 200 q 281 175 283 183 q 272 119 274 147 q 264 63 271 90 q 258 35 260 47 q 250 13 257 24 q 225 1 243 1 q 189 0 207 0 q 175 -1 182 0 q 163 0 168 -1 q 151 2 156 3 q 142 4 146 1 q 129 26 131 11 q 131 56 128 40 q 132 66 132 61 q 133 75 132 71 q 140 124 139 99 q 147 174 142 150 q 149 186 149 181 q 150 199 149 192 q 155 228 153 210 q 153 257 157 246 q 138 272 149 268 q 111 275 126 275 q 99 274 106 275 q 88 275 93 274 q 81 276 85 275 q 74 276 76 276 q 49 299 53 281 q 46 314 46 306 q 46 332 46 322 q 47 365 46 349 q 57 389 47 382 q 78 396 65 394 q 106 397 92 397 q 135 397 121 397 q 160 401 149 397 q 176 417 171 406 q 185 444 182 429 q 189 474 188 458 q 193 504 190 490 q 197 524 194 511 q 197 544 199 538 q 183 567 193 561 q 150 572 171 574 q 114 574 129 569 q 89 600 93 581 q 88 621 89 614 q 88 644 85 632 q 90 662 90 653 q 92 678 89 671 q 119 694 99 693 q 161 694 139 694 l 181 694 q 205 701 196 697 q 221 718 214 704 q 226 742 225 729 q 229 768 226 756 q 238 830 236 799 q 247 890 240 861 q 252 926 251 908 q 263 956 253 944 q 281 967 267 964 q 288 967 283 968 q 294 969 292 967 q 319 970 306 969 q 344 970 332 971 q 367 967 357 969 q 381 957 376 964 q 385 931 386 949 q 382 901 385 913 q 378 876 379 889 q 374 849 376 863 q 367 799 368 825 q 360 750 365 774 q 358 728 357 740 q 363 710 358 717 q 388 696 368 699 q 402 694 394 694 q 417 694 410 694 q 456 695 436 694 q 483 707 475 696 q 492 727 490 715 q 497 750 494 739 q 499 765 497 761 q 506 817 504 790 q 513 867 507 843 q 515 883 515 875 q 517 897 514 890 q 521 928 519 913 q 529 954 522 943 q 559 969 538 968 q 604 969 581 969 q 629 968 617 969 q 647 958 642 967 q 653 927 654 947 q 649 893 651 907 q 647 883 647 888 q 646 872 647 878 q 640 834 642 854 q 635 796 639 814 q 633 775 633 789 q 628 748 631 767 q 628 718 625 729 q 641 700 632 703 q 665 694 650 697 q 675 694 669 693 q 683 694 681 694 q 693 694 689 693 q 701 692 697 694 q 722 670 719 686 q 724 631 724 654 m 463 508 q 466 534 465 519 q 461 557 467 549 q 427 572 451 572 q 379 572 403 572 q 372 571 376 569 q 364 571 367 572 q 338 554 346 567 q 333 540 333 547 q 329 522 332 532 q 323 485 325 504 q 317 449 321 467 q 316 429 315 440 q 319 413 317 418 q 342 399 326 401 q 378 397 358 397 q 392 397 385 397 q 404 399 399 396 q 415 399 410 400 q 425 400 419 397 q 445 416 439 404 q 454 444 451 428 q 458 476 457 460 q 463 508 458 493 z "},"$":{"ha":772,"x_min":6,"x_max":774,"o":"m 771 317 q 773 272 774 299 q 768 229 772 244 q 763 209 765 218 q 758 190 761 200 q 716 115 740 149 q 656 56 692 81 q 640 44 649 50 q 624 33 632 39 q 578 11 603 19 q 529 -6 554 3 q 503 -12 517 -10 q 478 -17 490 -14 q 467 -18 472 -18 q 457 -19 463 -18 q 428 -49 433 -28 q 427 -54 428 -51 q 426 -60 426 -57 q 426 -68 425 -62 q 426 -79 426 -74 q 426 -106 426 -93 q 419 -128 425 -119 q 394 -139 413 -136 q 386 -140 392 -140 q 378 -139 381 -139 q 359 -133 367 -136 q 349 -118 351 -129 q 345 -92 344 -106 q 346 -67 346 -79 q 343 -44 346 -54 q 331 -26 340 -33 q 309 -18 321 -19 q 286 -14 297 -17 q 249 -6 267 -10 q 214 6 231 -1 q 103 74 146 33 q 33 183 61 115 q 22 214 26 199 q 14 244 18 229 q 12 254 11 250 q 10 264 13 258 q 6 283 7 272 q 8 303 6 294 q 24 317 13 313 q 40 320 31 319 q 61 321 50 321 l 129 321 q 152 321 140 321 q 172 318 164 321 q 189 306 183 314 q 197 287 194 297 q 203 265 200 276 q 210 243 206 253 q 238 198 221 217 q 278 164 254 179 q 292 156 283 160 q 310 149 301 151 q 328 149 319 147 q 342 160 338 150 q 345 178 344 167 q 346 200 346 189 l 346 367 q 345 398 346 383 q 338 422 344 413 q 319 436 331 433 q 294 443 307 439 q 263 453 279 449 q 232 463 247 457 q 156 497 192 478 q 92 543 119 515 l 76 558 q 53 594 64 575 q 36 636 43 613 q 30 662 32 649 q 25 689 28 675 l 25 718 q 26 753 25 738 q 32 785 28 769 q 39 811 36 799 q 49 836 42 824 q 99 910 68 879 q 169 964 131 940 q 217 986 192 978 q 269 1003 242 994 q 301 1008 285 1007 q 329 1017 318 1010 q 341 1032 339 1024 q 346 1054 343 1040 q 347 1066 347 1060 q 347 1078 346 1072 q 348 1089 349 1085 q 349 1099 347 1093 q 364 1117 354 1113 q 371 1117 367 1118 q 378 1119 375 1117 q 406 1116 394 1119 q 422 1101 417 1113 q 425 1088 425 1093 l 425 1072 q 426 1062 426 1068 q 426 1050 425 1056 q 431 1031 429 1039 q 442 1017 433 1022 q 460 1010 450 1011 q 482 1006 471 1008 q 513 997 497 1000 q 543 988 528 993 q 647 926 606 963 q 714 828 689 889 q 728 789 721 813 q 729 781 729 785 q 731 772 729 776 q 735 757 733 765 q 733 742 736 749 q 718 724 729 728 q 700 721 710 721 q 679 721 690 721 l 613 721 q 590 720 601 721 q 568 722 578 719 q 543 743 549 728 q 531 776 538 758 q 483 835 513 815 q 453 844 471 842 q 429 829 436 847 q 426 804 425 819 q 426 775 426 789 l 426 669 q 426 640 426 654 q 433 615 426 625 q 463 597 443 600 q 501 586 482 593 q 572 563 538 575 q 635 532 606 551 q 703 477 674 508 q 753 401 733 446 q 762 374 758 388 q 768 344 765 360 q 769 331 771 338 q 771 317 768 324 m 324 635 q 344 658 343 639 q 346 701 346 678 l 346 789 q 346 817 346 804 q 339 838 346 829 q 313 847 331 847 q 309 847 311 846 q 304 846 307 847 q 288 840 293 843 q 249 813 265 831 q 225 771 232 796 l 221 750 q 219 733 218 743 q 222 717 221 722 q 225 708 225 711 q 226 700 225 704 q 247 670 235 681 q 275 650 260 660 q 297 639 282 646 q 324 635 313 632 m 576 258 q 577 283 579 269 q 572 306 575 297 q 544 353 563 338 q 497 382 525 369 q 475 391 486 388 q 447 394 464 394 q 438 390 442 392 q 432 383 435 389 q 426 358 425 374 q 426 329 426 343 l 426 208 q 428 169 426 186 q 446 146 429 153 q 463 144 456 143 q 528 176 500 154 q 569 231 556 197 q 573 244 572 238 q 576 258 574 251 z "},"%":{"ha":1389,"x_min":100,"x_max":1283,"o":"m 958 850 q 943 822 950 836 q 928 794 936 808 q 863 678 893 738 q 799 563 833 619 q 779 528 788 546 q 761 494 771 511 q 738 452 749 474 q 714 410 726 431 q 707 397 710 403 q 701 385 704 392 q 676 342 688 364 q 653 299 665 319 q 644 284 647 292 q 638 269 642 276 q 608 217 622 243 q 578 164 593 190 q 570 149 574 157 q 563 135 567 142 q 535 85 547 111 q 507 36 522 60 q 490 5 497 21 q 468 -19 483 -11 q 450 -26 463 -24 q 424 -28 438 -28 q 397 -28 410 -29 q 379 -22 385 -26 q 372 3 367 -15 q 381 23 375 13 q 392 40 386 33 q 432 114 413 76 q 474 188 451 151 q 485 207 481 197 q 494 228 489 217 q 561 344 531 286 q 626 461 592 403 q 647 499 638 481 q 668 536 657 518 q 674 549 672 543 q 681 560 676 554 q 702 598 692 579 q 724 636 713 617 q 729 648 726 643 q 736 660 732 653 q 765 712 751 685 q 794 764 779 739 q 804 781 800 772 q 814 800 808 790 q 848 860 832 829 q 882 921 864 892 q 896 946 889 933 q 910 969 903 958 q 916 981 913 975 q 924 989 919 986 q 942 1000 935 997 q 958 1003 947 1000 q 997 1003 976 1003 q 1024 992 1017 1003 q 1026 983 1026 989 q 1025 972 1026 976 q 1017 954 1022 963 q 1008 938 1013 946 q 983 893 996 915 q 958 850 971 871 m 544 586 q 496 511 526 542 q 419 465 465 481 q 395 459 407 461 q 369 454 383 457 q 357 453 363 453 q 344 453 351 454 q 326 451 339 450 q 307 453 313 451 q 295 455 300 456 q 283 456 290 454 q 257 461 269 458 q 233 469 244 464 q 121 594 151 506 q 115 618 117 606 q 110 642 113 631 q 108 663 108 649 q 106 674 106 668 q 106 686 107 681 l 106 701 q 106 731 100 715 l 106 742 q 106 755 106 749 q 107 768 107 761 q 114 804 111 786 q 124 839 117 822 q 172 922 143 888 q 249 975 200 956 q 274 983 261 981 q 303 989 288 986 q 316 989 307 990 q 328 990 325 988 q 464 958 414 992 q 540 864 514 924 q 549 840 546 853 q 556 814 553 826 q 557 806 557 810 q 558 797 557 801 q 561 780 561 789 q 564 761 561 771 q 565 752 565 757 q 565 744 564 747 l 565 729 q 565 700 568 714 q 564 684 563 692 q 564 669 565 676 q 563 657 563 663 q 560 644 563 651 q 553 615 557 629 q 544 586 550 600 m 358 558 q 399 588 383 567 q 413 617 408 601 q 422 653 418 633 q 424 667 425 660 q 425 685 422 675 q 427 703 426 690 q 425 724 428 717 l 425 756 q 424 766 424 761 q 424 776 425 771 q 419 796 421 786 q 415 814 418 806 q 410 833 413 824 q 401 850 407 842 q 388 866 394 858 q 372 879 381 874 q 328 886 356 889 q 315 885 325 885 q 306 881 311 882 q 297 876 301 879 q 271 849 281 865 q 254 814 261 833 q 249 786 250 800 q 244 757 247 772 l 244 731 q 242 703 242 722 q 244 676 243 685 q 247 660 247 668 q 247 644 246 651 q 261 603 254 621 q 283 572 268 585 q 314 557 299 563 q 326 556 322 557 q 333 555 329 556 q 339 556 336 554 q 349 557 344 557 q 358 558 353 557 m 1282 267 q 1283 251 1283 260 q 1282 235 1283 242 l 1282 222 q 1281 211 1281 217 q 1279 200 1281 206 q 1278 187 1278 193 q 1275 174 1278 181 q 1269 144 1272 158 q 1260 118 1265 131 q 1128 -6 1222 28 q 1108 -10 1118 -8 q 1086 -14 1097 -11 q 1074 -15 1079 -15 q 1061 -15 1068 -14 q 1042 -17 1056 -18 q 1025 -14 1029 -17 q 1013 -13 1018 -12 q 1001 -12 1007 -14 q 977 -7 989 -10 q 954 1 965 -4 q 880 53 907 21 q 838 133 853 85 q 831 156 833 144 q 826 179 829 168 q 826 187 826 183 q 825 194 825 190 q 824 209 824 201 q 822 224 824 217 l 822 240 q 822 265 819 251 l 822 278 q 824 297 822 292 q 825 318 825 304 q 831 346 829 332 q 839 372 833 360 q 888 455 860 424 q 968 507 915 486 q 992 515 979 513 q 1021 519 1006 517 q 1034 520 1028 519 q 1047 521 1040 521 q 1180 492 1129 524 q 1256 403 1231 460 q 1265 378 1261 392 q 1272 350 1268 364 q 1274 342 1274 346 q 1275 333 1274 338 q 1278 313 1278 324 q 1281 292 1278 303 q 1281 279 1281 285 q 1282 267 1282 274 m 1142 239 q 1144 261 1144 246 q 1142 283 1143 276 l 1142 293 q 1140 306 1140 300 q 1139 317 1140 311 q 1131 353 1135 336 q 1117 385 1126 369 q 1104 398 1111 392 q 1090 408 1097 404 q 1070 417 1081 415 q 1044 418 1060 418 q 1039 416 1042 415 q 1033 415 1036 417 q 1014 407 1022 413 q 988 381 997 397 q 971 346 978 365 q 965 321 967 335 q 961 293 964 307 l 961 267 q 959 240 958 258 q 961 214 960 222 q 963 199 964 207 q 964 185 961 192 q 976 141 971 158 q 997 107 981 124 q 1022 92 1004 100 q 1056 86 1039 83 q 1065 88 1060 88 q 1074 89 1069 88 q 1094 99 1085 93 q 1110 114 1104 106 q 1124 138 1118 125 q 1135 165 1129 150 q 1139 192 1139 178 q 1142 222 1139 207 l 1142 239 z "},"&":{"ha":951,"x_min":46,"x_max":940,"o":"m 938 25 q 938 13 940 18 q 932 6 936 8 q 906 -1 922 -1 q 874 0 889 0 l 789 0 q 748 1 765 0 q 717 13 731 1 q 707 22 711 17 q 699 32 703 26 q 694 38 696 35 q 689 43 692 40 q 678 57 683 50 q 665 71 672 64 q 654 80 661 75 q 636 82 647 85 q 618 74 625 79 q 604 63 611 68 q 582 47 593 56 q 560 32 571 39 q 517 12 540 21 q 471 -6 494 3 q 451 -10 461 -8 q 431 -14 442 -11 q 417 -16 424 -17 q 403 -17 410 -15 l 393 -17 q 373 -19 386 -19 q 353 -18 360 -19 q 340 -17 346 -18 q 328 -17 335 -17 q 300 -12 314 -14 q 274 -8 286 -11 q 241 1 256 -3 q 211 13 226 6 q 151 48 179 26 q 104 94 122 69 q 91 114 97 104 q 78 135 85 124 q 69 154 72 144 q 61 175 65 164 q 50 216 54 194 q 46 263 46 238 l 46 294 q 47 303 47 299 q 49 313 47 308 q 53 333 51 324 q 57 353 54 343 q 102 438 72 400 q 168 503 132 475 q 219 538 192 519 q 237 548 228 543 q 250 564 246 553 q 244 592 254 578 q 229 613 235 606 q 189 688 204 649 q 183 707 185 697 q 178 728 181 717 q 173 782 171 751 q 182 832 175 813 q 238 924 201 890 q 328 982 274 958 q 358 990 343 988 q 390 997 374 993 q 407 998 399 997 q 424 1000 415 999 q 574 970 511 1001 q 669 886 636 939 q 677 869 674 878 q 685 853 681 861 q 701 784 696 825 q 694 708 706 743 q 683 674 689 690 q 668 642 676 657 q 633 598 653 619 q 593 561 614 576 q 578 549 586 554 q 563 539 569 544 q 554 533 558 536 q 547 525 550 529 q 542 506 540 517 q 549 489 543 496 q 558 476 553 482 q 568 464 564 471 q 596 428 582 444 q 624 394 610 413 q 638 382 628 388 q 658 383 649 376 q 672 399 667 389 q 679 420 676 408 q 685 443 682 432 q 694 463 688 454 q 732 476 706 476 q 782 476 758 476 q 800 477 790 476 q 817 475 810 478 l 825 475 q 850 463 843 472 q 852 431 857 451 q 844 399 847 410 q 840 381 842 389 q 835 365 838 372 q 816 320 825 342 q 796 279 807 299 q 782 257 792 272 q 775 229 772 242 q 793 198 781 210 q 817 172 806 186 q 853 129 833 149 q 889 86 872 110 q 899 75 893 79 q 908 64 904 71 q 924 45 915 54 q 938 25 932 36 m 510 199 q 524 214 517 204 q 528 238 532 224 q 517 258 525 249 q 503 275 510 267 q 481 303 492 290 q 458 331 469 315 q 453 335 456 333 q 449 340 451 338 q 429 365 439 353 q 410 389 419 376 q 389 414 400 401 q 354 426 378 426 q 343 422 351 425 q 331 417 336 419 q 321 411 326 414 q 271 370 293 394 q 238 314 249 346 q 235 303 236 308 q 233 290 235 297 q 233 260 231 276 q 239 235 236 244 q 336 146 263 169 q 372 141 350 142 q 410 144 394 140 q 465 166 442 153 q 510 199 488 179 m 529 758 q 531 779 532 768 q 526 797 529 790 q 465 864 511 850 q 435 868 453 868 q 428 867 432 867 q 422 867 425 868 q 404 861 411 864 q 354 806 369 847 q 351 781 351 794 q 354 756 351 767 q 358 742 357 749 q 361 729 358 736 q 377 699 368 713 q 396 672 386 686 q 413 653 401 665 q 438 644 425 642 q 459 653 451 647 q 476 667 467 660 q 525 738 511 692 q 527 748 528 743 q 529 758 526 753 z "},"'":{"ha":386,"x_min":119,"x_max":268,"o":"m 260 979 q 267 944 268 967 q 267 901 267 921 l 267 613 q 267 583 267 597 q 261 561 267 569 q 240 549 256 551 q 225 547 233 546 q 208 547 217 547 q 163 547 188 547 q 129 558 138 546 q 122 577 122 565 q 121 603 121 589 l 121 888 q 120 935 121 907 q 126 976 119 964 q 144 989 132 983 q 151 990 147 989 q 158 990 154 990 q 185 991 169 990 q 216 991 201 992 q 243 988 231 990 q 260 979 256 985 z "},"(":{"ha":411,"x_min":72,"x_max":404,"o":"m 75 347 q 73 362 72 354 q 74 376 74 369 q 73 390 74 383 q 75 404 72 397 l 75 418 q 75 433 75 425 q 76 449 75 442 q 77 463 76 456 q 78 476 78 469 l 86 551 q 91 580 89 567 q 96 608 93 593 q 101 635 99 621 q 107 663 104 649 q 124 727 117 694 q 144 789 132 760 q 151 810 149 800 q 160 831 154 819 q 184 888 171 860 q 213 943 197 917 q 233 978 224 960 q 261 1008 243 997 q 273 1012 267 1011 q 286 1014 279 1013 l 317 1014 q 342 1015 328 1014 q 368 1015 356 1015 q 390 1010 381 1014 q 401 997 399 1006 q 401 981 404 989 q 394 967 397 972 q 381 935 388 951 q 367 904 374 919 q 340 825 351 865 q 314 744 328 785 q 303 701 307 724 q 294 657 300 678 q 286 610 288 633 q 279 564 285 588 q 278 549 278 557 q 276 533 278 542 q 274 500 274 518 q 271 467 274 482 q 269 449 268 458 q 269 433 271 440 l 269 401 q 269 375 267 388 q 269 358 269 367 q 269 343 268 350 l 269 325 q 271 306 272 317 q 272 288 269 296 q 273 278 272 282 q 274 268 274 274 q 276 242 276 256 q 279 214 276 228 q 283 185 282 199 q 286 156 283 171 q 290 136 289 146 q 293 117 290 126 q 301 81 297 99 q 310 46 304 63 q 323 -7 317 18 q 338 -57 329 -32 q 342 -73 340 -65 q 347 -89 344 -81 q 367 -137 358 -112 q 386 -186 375 -162 q 397 -210 390 -194 q 400 -236 404 -225 q 381 -249 396 -246 q 375 -249 378 -250 q 369 -250 372 -249 l 314 -250 q 288 -250 300 -250 q 264 -246 275 -250 q 241 -224 249 -239 q 225 -194 233 -208 q 190 -127 206 -162 q 160 -56 175 -92 q 140 -8 149 -32 q 125 40 132 17 q 117 68 119 54 q 110 96 114 82 l 93 167 q 86 209 88 188 q 81 250 85 231 q 79 263 79 257 q 78 276 79 269 q 76 301 76 289 q 75 326 75 314 l 75 347 l 75 347 z "},")":{"ha":411,"x_min":7,"x_max":339,"o":"m 336 417 q 338 402 339 410 q 338 388 338 394 q 338 374 338 381 q 336 360 339 367 l 336 346 q 336 331 336 339 q 335 315 336 322 q 334 301 335 308 q 333 288 333 294 l 325 213 q 320 184 322 197 q 315 156 318 171 q 310 129 313 143 q 304 101 307 115 q 287 37 294 69 q 267 -25 279 4 q 260 -46 263 -36 q 251 -67 257 -56 q 227 -124 240 -96 q 199 -179 214 -153 q 178 -215 188 -196 q 150 -244 168 -233 q 138 -248 144 -247 q 125 -250 132 -249 l 94 -250 q 69 -251 83 -250 q 43 -251 56 -251 q 21 -246 31 -250 q 10 -233 11 -242 q 10 -217 7 -225 q 17 -203 14 -208 q 31 -172 24 -187 q 44 -140 38 -156 q 72 -61 60 -101 q 97 19 83 -21 q 108 63 104 40 q 117 107 111 86 q 125 153 124 131 q 132 200 126 176 q 133 215 133 207 q 135 231 133 222 q 138 264 138 246 q 140 297 138 282 q 142 315 143 306 q 142 331 140 324 l 142 363 q 142 389 144 375 q 142 406 142 397 q 142 421 143 414 l 142 439 q 140 458 139 447 q 139 476 142 468 q 138 486 139 482 q 138 496 138 490 q 135 522 135 508 q 132 550 135 536 q 128 579 129 565 q 125 608 128 593 q 122 628 122 618 q 118 647 121 638 q 110 683 114 665 q 101 718 107 701 q 88 771 94 746 q 74 821 82 796 q 69 837 71 829 q 64 853 67 844 q 44 901 53 876 q 25 950 36 926 q 14 974 21 958 q 11 1000 7 989 q 31 1013 15 1010 q 36 1013 33 1014 q 42 1014 39 1013 l 97 1014 q 124 1014 111 1014 q 147 1010 136 1014 q 170 988 163 1003 q 186 958 178 972 q 221 891 206 926 q 251 819 236 856 q 271 772 263 796 q 286 724 279 747 q 294 696 292 710 q 301 668 297 682 l 318 597 q 325 555 324 576 q 331 514 326 533 q 332 501 332 507 q 333 488 332 494 q 335 463 335 475 q 336 438 336 450 l 336 417 l 336 417 z "},"*":{"ha":565,"x_min":38,"x_max":528,"o":"m 140 738 q 106 748 124 743 q 74 760 89 753 q 49 775 60 767 q 44 804 38 783 q 48 817 46 811 q 53 829 50 822 q 58 846 56 838 q 68 860 61 854 q 103 865 83 872 q 140 851 122 858 q 175 838 157 844 q 199 831 185 833 q 219 839 213 829 q 227 877 228 850 q 226 924 226 904 q 226 935 226 929 q 228 946 226 942 q 228 956 229 951 q 229 967 226 961 q 249 989 233 983 q 255 990 251 989 q 263 990 258 990 q 305 990 285 992 q 332 974 325 989 q 335 957 335 967 q 335 936 335 947 q 335 907 335 921 q 336 879 336 893 q 338 853 336 865 q 346 836 339 842 q 362 831 353 832 q 379 833 371 831 q 417 848 399 840 q 456 863 436 856 q 480 867 467 867 q 500 858 493 867 q 509 844 506 851 q 515 828 513 836 q 519 815 518 821 q 524 801 521 808 q 517 774 528 782 q 494 761 506 767 q 457 748 476 754 q 419 735 438 742 q 401 727 410 731 q 389 713 392 724 q 394 688 385 700 q 408 669 403 676 q 429 640 419 654 q 450 611 439 626 q 457 600 453 607 q 458 583 461 593 q 446 563 456 571 q 426 549 436 556 q 413 539 419 544 q 399 531 407 533 q 372 535 382 525 q 356 554 363 546 q 336 581 346 568 q 315 608 326 594 q 303 626 310 617 q 283 639 296 636 q 264 632 272 642 q 251 617 256 622 l 214 563 q 205 549 208 556 q 194 538 201 542 q 181 531 189 533 q 164 532 172 529 q 149 540 156 535 q 135 551 142 546 q 119 563 128 557 q 107 579 111 569 q 106 594 104 586 q 111 607 108 603 q 133 639 121 624 q 156 669 144 654 q 170 689 161 676 q 175 714 179 701 q 161 729 171 725 q 140 738 151 733 z "},"+":{"ha":833,"x_min":68,"x_max":768,"o":"m 767 346 q 767 319 767 333 q 764 297 768 306 q 738 278 757 281 q 696 276 719 276 l 558 276 q 523 275 539 276 q 499 263 507 274 q 492 235 492 253 q 492 201 492 218 l 492 72 q 492 40 492 57 q 485 14 492 24 q 474 6 481 8 q 461 1 468 4 q 439 -1 450 -1 q 417 0 428 0 q 378 1 397 0 q 351 14 360 3 q 344 42 344 24 q 344 76 344 60 l 344 203 q 344 238 344 221 q 336 265 343 254 q 310 276 328 276 q 272 276 292 276 l 133 276 q 100 278 117 276 q 76 289 83 279 q 69 313 69 299 q 68 343 68 328 q 69 390 68 367 q 88 419 69 413 q 116 424 99 424 q 149 424 133 424 l 268 424 q 312 425 292 424 q 340 442 332 426 q 345 469 346 453 q 344 501 344 486 l 344 621 q 344 653 344 636 q 349 681 343 669 q 368 697 353 692 q 381 699 372 699 q 409 700 393 699 q 440 701 425 701 q 468 697 456 700 q 485 686 481 693 q 492 658 492 675 q 492 624 492 640 l 492 497 q 492 462 492 478 q 500 435 493 446 q 533 424 510 424 q 576 424 557 424 l 699 424 q 730 423 714 424 q 754 415 746 422 q 767 386 767 407 q 767 346 767 365 z "},",":{"ha":386,"x_min":85,"x_max":301,"o":"m 300 58 q 301 6 300 35 q 296 -43 301 -24 q 260 -128 283 -94 q 196 -186 236 -162 q 139 -214 169 -204 q 125 -219 133 -217 q 110 -221 117 -222 q 93 -212 99 -218 q 85 -181 86 -204 q 90 -146 85 -158 q 108 -125 96 -132 q 131 -110 119 -118 q 169 -62 153 -94 q 177 -46 172 -57 q 179 -25 182 -35 q 156 -1 175 -6 q 124 1 140 3 q 97 7 108 0 q 87 28 89 14 q 85 57 85 42 l 85 149 q 85 174 85 161 q 90 196 85 188 q 113 211 97 207 q 119 210 115 211 q 126 213 124 210 l 240 213 q 272 211 257 213 q 293 199 286 210 q 300 178 300 190 q 300 151 300 165 l 300 58 l 300 58 z "},"-":{"ha":565,"x_min":74,"x_max":492,"o":"m 478 457 q 488 440 485 451 q 491 413 490 428 q 491 383 492 399 q 490 356 490 368 q 490 334 490 344 q 488 315 490 324 q 465 298 481 300 q 429 296 450 296 l 169 296 q 126 295 151 296 q 90 301 101 294 q 78 319 82 307 q 74 345 75 331 q 74 376 74 360 q 75 404 75 392 q 76 429 75 417 q 81 449 76 442 q 99 461 86 456 q 105 462 101 461 q 111 463 108 463 l 438 463 q 460 462 450 463 q 478 457 471 461 z "},".":{"ha":386,"x_min":85,"x_max":300,"o":"m 85 150 q 85 176 85 163 q 90 197 85 190 q 111 213 96 207 q 117 212 114 213 q 124 213 121 211 l 233 213 q 265 213 250 213 q 289 206 279 213 q 299 186 297 199 q 300 158 300 174 l 300 58 q 299 30 300 43 q 290 11 297 17 q 267 3 281 4 q 238 1 253 1 l 144 1 q 115 3 129 1 q 94 13 101 4 q 86 34 88 21 q 85 63 85 47 l 85 150 z "},"/":{"ha":515,"x_min":0,"x_max":518,"o":"m 407 1013 l 457 1013 q 472 1013 464 1013 q 486 1013 479 1014 l 492 1013 q 506 1007 500 1010 q 515 997 513 1004 q 517 985 518 992 q 514 974 515 979 q 508 955 511 964 q 500 936 504 946 q 494 920 497 928 q 489 904 492 913 q 465 841 476 872 q 440 778 454 810 q 419 719 429 749 q 397 661 410 690 q 394 651 394 656 q 390 640 393 646 q 371 588 379 614 q 351 536 363 563 q 332 484 340 511 q 313 431 324 457 q 261 296 285 364 q 210 161 238 228 q 187 100 197 131 q 165 39 176 69 q 153 8 158 24 q 135 -15 149 -7 q 103 -22 124 -22 q 63 -22 82 -22 q 37 -22 50 -22 q 14 -18 24 -22 q 3 -6 6 -14 q 1 10 0 1 q 6 28 3 19 q 13 44 10 38 q 40 119 28 81 q 68 193 53 157 q 74 210 72 201 q 81 228 76 219 q 98 276 90 251 q 117 325 106 300 q 130 361 124 343 q 143 397 136 379 q 194 535 171 465 q 246 671 218 604 q 252 689 250 681 q 258 706 254 697 q 274 749 267 726 q 290 792 282 771 q 298 811 294 801 q 306 831 301 821 q 326 885 317 858 q 346 940 335 913 q 359 975 353 956 q 378 1004 365 994 q 396 1011 382 1008 q 401 1012 399 1013 q 407 1013 404 1011 z "},":":{"ha":386,"x_min":85,"x_max":300,"o":"m 85 640 q 85 667 85 653 q 90 688 85 681 q 111 703 96 697 q 117 702 114 703 q 124 703 121 701 l 233 703 q 265 703 250 703 q 289 696 279 703 q 299 676 297 689 q 300 649 300 664 l 300 549 q 299 520 300 533 q 290 501 297 507 q 267 493 281 494 q 238 492 253 492 l 144 492 q 115 493 129 492 q 94 503 101 494 q 86 524 88 511 q 85 553 85 538 l 85 640 m 85 150 q 85 176 85 163 q 90 197 85 190 q 111 213 96 207 q 117 212 114 213 q 124 213 121 211 l 233 213 q 265 213 250 213 q 289 206 279 213 q 299 186 297 199 q 300 158 300 174 l 300 58 q 299 30 300 43 q 290 11 297 17 q 267 3 281 4 q 238 1 253 1 l 144 1 q 115 3 129 1 q 94 13 101 4 q 86 34 88 21 q 85 63 85 47 l 85 150 z "},";":{"ha":386,"x_min":85,"x_max":301,"o":"m 85 640 q 85 667 85 653 q 90 688 85 681 q 111 703 96 697 q 117 702 114 703 q 124 703 121 701 l 233 703 q 265 703 250 703 q 289 696 279 703 q 299 676 297 689 q 300 649 300 664 l 300 549 q 299 520 300 533 q 290 501 297 507 q 267 493 281 494 q 238 492 253 492 l 144 492 q 115 493 129 492 q 94 503 101 494 q 86 524 88 511 q 85 553 85 538 l 85 640 m 300 58 q 301 6 300 35 q 296 -43 301 -24 q 260 -128 283 -94 q 196 -186 236 -162 q 139 -214 169 -204 q 125 -219 133 -217 q 110 -221 117 -222 q 93 -212 99 -218 q 85 -181 86 -204 q 90 -146 85 -158 q 108 -125 96 -132 q 131 -110 119 -118 q 169 -62 153 -94 q 177 -46 172 -57 q 179 -25 182 -35 q 156 -1 175 -6 q 124 1 140 3 q 97 7 108 0 q 87 28 89 14 q 85 57 85 42 l 85 149 q 85 174 85 161 q 90 196 85 188 q 113 211 97 207 q 119 210 115 211 q 126 213 124 210 l 240 213 q 272 211 257 213 q 293 199 286 210 q 300 178 300 190 q 300 151 300 165 l 300 58 z "},"<":{"ha":833,"x_min":64,"x_max":771,"o":"m 125 247 q 98 257 113 253 q 75 272 83 261 q 65 320 64 288 q 65 379 65 353 q 66 406 65 393 q 72 425 67 418 q 92 442 79 436 q 118 453 106 447 q 167 472 142 464 q 215 492 192 481 q 408 569 311 532 q 601 646 506 606 q 660 668 631 657 q 718 692 690 679 q 743 698 729 696 q 764 689 757 700 q 768 672 768 682 q 768 650 768 661 q 769 599 768 626 q 760 558 771 572 q 745 547 754 551 q 725 538 736 542 q 694 525 710 531 q 663 513 678 519 q 537 463 600 486 q 411 413 474 439 q 363 393 388 401 q 315 374 338 385 q 300 365 310 371 q 293 349 290 360 q 306 333 296 338 q 326 325 317 329 q 367 308 346 315 q 410 292 389 300 q 526 244 468 267 q 642 199 583 222 q 678 183 661 190 q 714 169 696 176 q 735 162 725 165 q 751 151 744 158 q 768 114 768 140 q 768 60 768 88 q 769 38 768 49 q 767 18 769 26 q 760 10 764 11 q 750 4 757 8 q 718 10 732 3 q 690 22 704 17 q 640 42 665 33 q 590 63 615 51 q 552 76 571 69 q 514 92 533 83 q 375 147 444 119 q 236 203 306 174 q 181 225 208 214 q 125 247 153 236 z "},"=":{"ha":833,"x_min":67,"x_max":768,"o":"m 75 560 q 92 571 81 565 q 99 572 94 571 q 106 572 103 572 l 697 572 q 731 572 715 572 q 756 564 746 571 q 767 529 767 556 q 767 483 767 503 q 767 468 767 476 q 765 453 768 460 q 751 432 761 438 q 731 426 743 426 q 706 426 718 426 l 131 426 q 103 426 117 426 q 82 432 90 426 q 67 467 67 442 q 68 517 68 493 q 69 541 68 529 q 75 560 69 553 m 754 268 q 767 233 767 258 q 767 188 767 208 q 767 171 767 179 q 765 156 768 163 q 740 131 758 133 q 694 129 722 129 l 139 129 q 113 128 126 129 q 88 132 99 128 q 68 165 68 140 q 68 215 68 189 q 68 242 68 229 q 75 263 68 254 q 86 271 79 269 q 103 275 93 272 q 115 274 108 276 q 126 275 122 272 l 667 275 q 688 276 676 275 q 707 275 699 278 l 722 275 q 754 268 746 275 z "},">":{"ha":833,"x_min":63,"x_max":769,"o":"m 708 456 q 735 446 721 450 q 758 431 750 442 q 769 383 769 415 q 768 324 768 350 q 767 297 768 310 q 761 278 767 285 q 741 261 754 267 q 715 250 728 256 q 667 231 692 239 q 618 211 642 222 q 425 134 522 171 q 232 57 328 97 q 173 35 203 46 q 115 11 143 24 q 90 5 104 7 q 69 14 76 3 q 65 31 65 21 q 65 53 65 42 q 64 103 65 76 q 74 144 63 131 q 88 156 79 151 q 108 165 97 161 q 140 178 124 172 q 171 190 156 183 q 297 240 233 217 q 422 290 360 264 q 471 310 446 301 q 518 329 496 318 q 533 338 524 332 q 540 354 543 343 q 527 369 538 365 q 507 378 517 374 q 466 395 488 388 q 424 411 444 403 q 308 458 365 436 q 192 504 250 481 q 155 519 172 513 q 119 533 138 526 q 99 541 108 538 q 82 551 89 544 q 65 589 65 563 q 65 643 65 615 q 65 665 65 654 q 67 685 64 676 q 73 693 69 692 q 83 699 76 694 q 115 693 101 700 q 143 681 129 686 q 193 660 168 669 q 243 640 218 651 q 281 626 263 633 q 319 611 300 619 q 458 556 389 583 q 597 500 528 529 q 653 478 625 489 q 708 456 681 467 z "},"?":{"ha":772,"x_min":47,"x_max":728,"o":"m 725 761 q 728 742 728 754 q 725 721 728 729 q 724 708 724 714 q 724 694 725 701 q 716 660 719 676 q 706 629 713 644 q 679 582 694 606 q 644 543 664 558 l 638 536 q 616 519 626 528 q 594 501 606 510 q 556 474 575 488 q 521 443 538 460 q 481 376 493 415 q 475 341 475 361 q 467 310 475 321 q 454 303 461 304 q 439 299 447 301 l 404 299 q 375 298 392 299 q 342 298 358 297 q 314 301 326 299 q 296 311 301 304 q 290 328 290 318 q 289 350 289 339 l 289 361 q 291 375 290 368 q 292 389 292 382 q 301 424 297 407 q 311 457 304 442 q 340 510 322 483 q 378 551 358 536 l 390 564 q 408 577 400 571 q 424 590 415 583 q 464 624 446 606 q 496 665 482 642 q 506 690 501 675 q 510 722 510 706 q 509 756 511 739 q 501 785 507 772 q 494 801 499 793 q 483 817 489 810 q 461 835 475 828 q 432 849 447 843 q 422 850 426 850 q 411 851 418 850 q 395 853 404 853 q 379 853 386 854 q 365 851 372 850 q 351 849 358 851 q 267 772 292 828 q 259 749 263 761 q 253 725 256 738 q 247 698 249 710 q 233 679 244 686 q 213 674 225 674 q 188 674 200 674 l 106 674 q 79 674 92 674 q 60 681 67 675 q 50 699 53 686 q 50 724 47 711 q 53 740 51 732 q 56 756 54 747 q 64 785 60 771 q 74 814 68 800 q 79 828 76 821 q 86 842 82 835 q 113 885 100 865 q 158 934 132 913 q 215 975 185 956 q 236 986 225 982 q 258 994 247 990 q 295 1004 276 1001 q 335 1011 314 1007 q 352 1013 343 1013 q 371 1014 361 1014 q 509 1000 449 1017 q 614 951 569 983 q 640 931 626 942 q 664 907 654 919 q 676 892 669 900 q 686 878 682 885 q 692 868 689 872 q 697 858 694 864 q 712 825 707 843 q 722 788 717 807 q 724 774 725 781 q 725 761 724 768 m 485 86 q 486 67 485 76 q 485 49 488 57 l 485 35 q 481 19 482 26 q 472 8 479 13 q 451 2 464 3 q 424 1 439 1 l 326 1 q 297 3 311 1 q 276 14 283 4 q 270 35 271 22 q 269 63 269 49 l 269 153 q 270 178 269 165 q 276 200 271 192 q 296 211 283 208 q 301 212 299 213 q 307 213 304 211 l 418 213 q 449 213 433 213 q 472 206 464 213 q 481 194 479 201 q 485 179 482 188 l 485 168 q 485 154 486 161 q 485 140 485 147 l 485 86 z "},"@":{"ha":1111,"x_min":50,"x_max":1063,"o":"m 1057 633 q 1061 606 1060 625 q 1060 576 1063 588 q 1059 560 1057 568 q 1058 546 1061 553 q 1057 535 1057 540 q 1056 524 1057 529 q 1051 503 1053 513 q 1047 483 1050 493 q 1045 474 1046 479 q 1043 465 1044 469 q 1021 407 1033 436 q 1011 387 1017 396 q 999 368 1006 378 q 921 276 965 315 q 817 211 876 236 q 785 199 803 204 q 749 193 768 194 q 712 194 731 192 q 679 204 693 196 q 666 213 672 208 q 654 224 660 218 q 643 237 649 231 q 626 246 638 243 q 611 240 618 247 q 592 227 600 233 q 574 214 583 221 q 509 192 550 199 q 433 196 468 185 q 332 256 369 215 q 274 358 294 296 q 269 378 271 368 q 265 400 268 389 l 265 418 q 265 440 263 429 l 265 453 q 266 463 265 458 q 267 474 267 468 q 272 503 269 489 q 278 531 274 517 q 299 588 289 561 q 325 639 310 615 q 345 665 335 653 q 367 690 356 678 q 378 700 369 694 q 382 705 381 703 q 386 710 383 707 q 399 719 394 715 q 439 745 418 733 q 485 765 460 757 q 502 770 493 768 q 519 775 511 772 l 529 775 q 560 778 540 778 q 592 776 579 779 q 608 773 600 774 q 624 769 617 772 q 682 740 657 758 q 699 724 690 733 q 718 713 707 715 q 731 715 725 710 q 739 722 736 719 q 749 738 744 731 q 763 751 753 746 q 770 754 765 754 q 779 756 775 754 l 788 756 q 803 757 794 757 q 819 756 813 757 l 828 756 q 843 750 836 753 q 853 740 850 747 q 854 724 856 733 q 851 710 853 715 q 843 676 846 693 q 835 643 840 658 q 831 624 832 633 q 826 604 829 615 q 810 538 817 572 q 793 471 803 503 q 789 453 790 463 q 785 436 788 444 q 776 404 779 421 q 769 371 774 388 q 767 358 768 365 q 767 343 765 350 q 775 321 769 328 q 796 311 781 314 q 815 313 807 308 q 829 317 822 313 q 878 350 857 328 q 914 397 899 372 q 932 440 925 417 q 946 486 939 463 q 949 505 949 496 q 953 525 950 514 l 953 532 q 954 552 954 542 q 954 574 954 563 q 942 657 954 621 q 938 672 939 665 q 935 686 938 679 q 864 799 907 753 q 754 872 821 844 q 690 893 726 883 q 677 896 683 896 q 664 897 671 896 q 624 904 644 903 q 579 906 603 906 q 556 906 568 906 q 535 903 544 906 q 516 901 525 900 q 499 899 507 901 q 458 888 478 893 q 418 876 438 883 q 317 813 360 851 q 242 724 274 775 q 215 665 225 696 q 193 599 204 633 q 192 586 192 592 q 189 574 192 581 q 183 530 185 554 q 183 481 182 506 q 187 432 183 456 q 194 392 190 408 q 204 355 200 372 q 217 319 208 338 q 299 199 247 249 q 422 118 351 149 q 467 105 444 110 q 515 93 490 100 q 541 90 528 90 q 567 88 554 90 l 586 88 q 602 86 592 86 q 619 89 613 86 l 629 89 q 644 90 636 90 q 660 93 653 90 q 679 96 671 96 q 697 99 688 96 q 726 106 713 103 q 753 114 740 108 q 769 122 761 118 q 786 129 778 126 q 808 139 800 133 q 829 151 819 146 q 849 164 839 157 q 867 178 858 171 q 888 193 876 186 q 921 201 899 199 q 960 200 943 204 q 975 196 968 197 q 985 188 982 194 q 986 180 988 185 q 983 172 985 175 q 974 158 979 164 q 964 146 969 153 q 953 133 958 139 q 940 121 947 128 q 928 109 933 115 q 917 97 924 103 q 886 76 901 86 q 854 54 871 65 q 746 4 806 22 q 724 -3 735 0 q 701 -8 713 -6 q 672 -13 686 -12 q 642 -18 657 -14 q 629 -18 635 -18 q 617 -19 624 -18 q 592 -22 610 -21 q 567 -19 575 -22 l 540 -19 q 514 -16 528 -17 q 488 -12 500 -15 q 450 -4 468 -7 q 415 6 432 -1 q 279 69 340 31 q 253 88 265 78 q 228 108 240 97 q 223 113 225 111 q 218 118 221 115 q 165 174 190 140 q 147 197 157 185 q 131 221 138 208 q 97 281 111 249 q 72 349 83 313 q 63 385 65 367 q 56 424 61 404 q 55 440 56 432 q 53 456 54 447 l 53 465 q 50 489 50 474 q 53 513 50 504 l 53 538 q 56 564 56 550 q 60 589 57 578 q 61 598 61 594 q 63 607 61 601 q 72 641 68 624 q 82 674 75 658 q 113 740 97 710 q 150 800 129 771 q 167 822 157 811 q 186 844 176 833 l 197 856 q 207 866 201 861 q 219 876 213 871 q 226 883 222 879 q 235 890 231 888 q 273 919 254 906 q 311 944 292 932 q 369 972 339 961 q 431 994 399 983 q 472 1003 450 1001 q 515 1011 493 1006 q 538 1013 526 1013 q 561 1014 550 1014 q 738 992 663 1017 q 875 928 813 967 q 897 912 886 921 q 918 896 907 903 q 924 890 921 893 q 929 885 926 888 q 958 856 946 872 q 968 844 963 849 q 979 832 974 839 q 1003 795 992 814 q 1025 757 1015 776 q 1041 713 1035 736 q 1054 667 1047 690 q 1056 651 1057 658 q 1057 633 1056 643 m 683 507 q 685 533 686 518 q 681 558 683 549 q 652 614 671 593 q 599 646 633 635 q 582 648 592 649 q 563 647 572 647 q 558 647 560 646 q 553 646 556 647 q 540 643 546 644 q 528 639 535 642 q 476 607 501 628 q 463 593 469 601 q 450 578 456 585 q 413 504 426 543 q 406 474 411 492 q 405 431 403 457 q 413 393 407 406 q 441 349 424 365 q 488 324 458 332 q 538 323 511 317 q 581 339 565 329 q 642 397 619 363 q 678 479 664 431 q 681 493 679 486 q 683 507 682 500 z "},"A":{"ha":951,"x_min":6,"x_max":947,"o":"m 935 67 q 940 53 936 61 q 945 35 943 44 q 946 18 947 26 q 936 6 944 10 q 899 0 925 -1 q 857 1 874 1 l 792 1 q 772 1 781 1 q 754 3 763 0 q 732 19 739 7 q 722 43 725 31 q 713 68 718 56 q 698 113 706 90 q 682 156 690 135 q 674 178 678 168 q 667 197 671 189 q 654 212 663 206 q 632 221 646 218 q 619 222 625 221 q 606 222 613 222 l 386 222 q 335 223 363 222 q 293 213 308 224 q 278 190 282 204 q 268 163 274 176 q 249 113 257 139 q 232 63 242 88 q 222 33 226 49 q 206 10 217 18 q 185 2 199 4 q 156 0 172 0 q 124 1 140 0 q 94 1 107 1 q 51 1 76 1 q 14 7 25 0 q 6 19 7 11 q 8 37 6 28 q 13 54 10 46 q 18 68 15 63 q 44 133 32 100 q 68 199 56 167 q 76 221 74 210 q 85 243 79 232 q 107 303 96 272 q 129 363 118 333 q 150 417 140 390 q 171 472 160 444 q 230 626 203 549 q 289 781 257 704 q 293 793 292 788 q 297 806 294 799 q 319 865 308 835 q 343 925 331 896 q 355 956 350 940 q 372 982 360 972 q 390 989 379 986 q 396 990 393 990 q 401 990 399 989 l 524 990 q 555 991 539 990 q 581 985 571 992 q 601 960 596 976 q 613 928 606 944 q 631 881 622 904 q 649 835 639 858 q 654 818 651 826 q 660 801 657 810 q 681 747 671 774 q 701 692 690 719 q 753 551 729 622 q 807 411 778 481 q 810 401 810 406 q 814 390 811 396 q 831 346 822 368 q 847 301 839 324 q 856 280 853 290 q 863 258 858 269 q 896 169 881 214 q 929 82 911 125 q 932 74 932 78 q 935 67 932 71 m 575 385 q 592 408 593 392 q 583 440 590 425 q 581 451 581 446 q 578 461 581 456 q 544 557 560 508 q 510 654 529 606 q 504 672 507 661 q 497 691 501 682 q 488 707 493 700 q 474 714 482 714 q 468 710 471 711 q 463 706 465 708 q 447 672 451 692 q 435 635 442 653 q 405 556 418 596 q 376 475 392 515 q 367 448 371 461 q 358 419 363 435 q 360 394 354 408 q 383 383 367 385 q 415 382 399 382 l 521 382 q 549 382 533 382 q 575 385 564 382 z "},"B":{"ha":978,"x_min":96,"x_max":926,"o":"m 924 311 q 924 271 926 296 q 919 232 922 246 q 914 206 917 218 q 907 182 911 193 q 817 68 878 113 q 766 40 793 51 q 708 18 739 28 q 676 10 693 13 q 644 6 660 8 q 631 4 638 4 q 618 3 625 4 q 606 3 613 1 q 593 1 600 4 q 581 1 588 0 q 568 1 575 1 l 163 1 q 123 3 139 1 q 100 22 107 6 q 97 56 96 33 q 97 94 97 79 l 97 910 q 97 945 97 926 q 103 975 96 964 q 124 989 108 985 q 129 990 126 990 q 135 990 132 989 l 549 990 q 568 991 558 990 q 586 990 578 992 q 600 989 593 988 q 614 989 607 990 l 622 989 q 640 987 631 986 q 658 985 649 988 q 680 981 669 982 q 701 976 690 979 q 751 958 728 967 q 794 935 775 949 q 840 886 822 915 q 869 819 858 857 q 873 800 872 810 q 876 779 874 790 q 877 768 878 774 q 878 757 876 763 q 878 747 879 753 q 876 738 878 740 l 876 725 q 876 715 876 721 q 875 707 875 710 q 872 690 872 697 q 868 675 871 682 q 821 593 850 625 q 800 576 811 583 q 781 558 789 569 q 774 551 778 556 q 774 539 771 546 q 792 520 776 528 q 818 506 807 513 q 879 447 856 481 q 914 372 901 415 q 919 349 918 361 q 924 326 921 338 l 924 311 m 319 808 q 313 784 313 799 q 313 754 313 769 l 313 679 q 312 659 313 669 q 313 642 311 649 l 313 628 q 317 613 315 619 q 321 601 318 607 q 338 592 326 594 q 365 588 350 589 q 394 588 379 588 q 422 589 410 589 q 466 588 443 589 q 512 588 489 588 q 556 590 535 588 q 592 597 576 592 q 654 646 633 611 q 667 693 664 664 q 653 767 669 740 q 604 810 636 794 q 586 815 596 813 q 565 819 576 817 q 549 821 560 821 q 510 824 532 825 q 469 824 489 824 l 351 824 q 345 822 349 822 q 339 821 342 822 q 319 808 325 817 m 708 289 q 706 331 711 308 q 696 364 701 353 q 619 433 676 414 q 567 442 596 440 q 508 443 539 443 l 351 443 q 347 441 349 440 q 342 442 344 442 q 319 428 325 438 q 313 399 313 417 q 313 367 313 382 l 313 243 q 313 209 313 226 q 321 182 314 192 q 339 172 326 175 q 367 167 351 168 q 400 167 383 167 q 429 168 417 168 q 510 167 471 168 q 583 172 549 167 q 645 188 618 176 q 689 225 672 200 q 700 251 696 236 q 708 281 704 265 l 708 289 z "},"C":{"ha":1029,"x_min":53,"x_max":971,"o":"m 521 1014 q 761 964 667 1017 q 911 824 856 911 q 936 776 926 800 q 954 722 946 751 q 960 700 957 713 q 958 676 963 688 q 948 666 956 668 q 931 661 940 664 l 919 661 q 901 659 911 658 q 881 660 890 660 q 851 659 868 660 q 817 659 833 658 q 786 662 800 660 q 765 668 772 664 q 749 694 754 678 q 735 724 743 711 q 665 796 708 769 q 600 825 636 814 q 541 833 576 833 q 479 826 506 833 q 459 822 468 824 q 440 815 450 819 q 307 682 346 775 q 294 647 300 665 q 282 610 289 629 q 279 592 281 600 q 276 574 278 583 q 274 556 274 565 q 272 538 275 547 q 270 515 269 526 q 271 492 271 503 q 270 481 271 486 q 271 469 269 475 l 271 457 q 273 443 274 450 q 275 429 272 436 q 278 407 275 421 q 283 378 281 392 q 290 353 286 365 q 340 253 310 294 q 421 186 371 213 q 453 174 436 179 q 489 164 469 169 q 502 162 496 163 q 515 161 508 161 l 526 161 q 544 159 533 158 q 563 161 556 160 q 575 163 571 161 q 606 168 592 165 q 635 178 621 171 q 690 215 667 192 q 731 267 713 238 q 744 297 739 281 q 757 331 750 314 q 765 358 761 346 q 783 378 769 371 q 804 381 792 381 q 828 381 817 381 l 913 381 q 938 381 925 381 q 960 375 951 381 q 970 353 969 368 q 967 324 971 338 l 958 286 q 945 246 951 265 q 929 208 939 226 q 918 187 922 197 q 907 167 914 176 q 685 0 831 47 q 654 -8 669 -6 q 624 -14 639 -11 q 610 -16 617 -17 q 597 -18 604 -15 q 578 -19 588 -18 q 560 -21 569 -19 l 538 -21 q 513 -21 525 -21 q 489 -18 500 -21 q 475 -17 485 -17 q 456 -14 465 -15 q 435 -11 446 -12 q 408 -4 421 -7 q 381 3 394 -1 q 356 12 368 7 q 332 22 343 17 q 191 119 249 58 q 97 263 133 179 q 83 304 89 283 q 71 347 78 325 q 68 359 68 354 q 67 369 68 364 q 63 396 64 382 q 58 422 61 410 q 56 434 56 429 q 56 444 57 439 l 56 471 q 53 492 53 478 q 56 513 53 506 q 56 522 57 517 q 56 529 56 526 l 56 542 q 59 565 58 553 q 61 590 60 578 q 65 612 64 601 q 69 633 67 622 q 79 672 75 653 q 90 707 83 690 q 105 743 97 725 q 122 776 113 761 q 168 846 144 815 q 183 864 175 856 q 200 881 192 872 q 273 940 235 915 q 360 983 311 964 q 394 995 376 990 q 432 1004 413 1000 q 449 1007 440 1007 q 464 1010 457 1007 q 485 1012 475 1011 q 507 1014 496 1013 q 514 1014 510 1015 q 521 1014 518 1013 z "},"D":{"ha":1029,"x_min":94,"x_max":972,"o":"m 971 528 q 972 517 971 524 q 972 501 972 510 q 972 486 972 493 q 971 476 971 479 q 970 458 971 467 q 969 440 969 449 q 967 426 967 433 q 967 413 968 419 q 963 382 964 397 q 957 351 961 367 q 944 306 950 328 q 931 264 939 285 q 872 158 907 206 q 789 78 838 111 q 731 44 761 58 q 667 19 701 31 q 638 13 653 15 q 608 7 624 11 q 595 6 601 6 q 582 4 589 6 q 571 3 576 3 q 558 3 565 4 q 550 2 556 1 q 542 1 544 3 q 514 0 531 -1 q 485 1 497 1 l 161 1 q 122 3 138 1 q 99 22 106 6 q 95 56 94 33 q 96 94 96 79 l 96 910 q 95 945 96 926 q 101 975 94 964 q 122 989 107 983 q 128 990 125 990 q 133 990 131 989 l 507 990 q 524 991 515 990 q 540 990 533 992 l 557 990 q 572 988 564 988 q 588 986 581 989 q 603 984 596 983 q 619 982 611 985 q 657 974 639 978 q 692 964 675 971 q 722 951 707 957 q 751 938 738 946 q 815 894 786 915 l 824 886 q 849 861 838 875 l 861 850 q 877 828 868 839 q 893 807 886 818 q 925 745 911 778 q 950 676 939 713 q 959 639 957 658 q 965 600 961 619 q 966 588 965 593 q 967 578 967 583 q 969 560 969 569 q 971 543 968 550 l 971 528 m 754 461 q 757 483 757 468 q 754 506 757 499 l 754 532 q 751 558 751 544 q 747 583 750 572 q 745 597 744 590 q 743 610 746 603 q 730 652 736 632 q 713 690 724 672 q 665 748 692 724 q 599 789 638 772 q 574 797 586 793 q 549 803 561 800 q 528 805 538 804 q 508 808 519 806 q 497 809 503 810 q 488 810 492 808 l 457 810 q 442 810 450 811 q 425 810 433 810 l 363 810 q 353 808 360 807 q 343 808 347 810 q 329 803 336 806 q 318 794 322 801 q 313 775 313 788 q 313 747 313 763 q 312 710 313 729 q 311 671 311 690 l 311 283 q 310 265 311 275 q 313 249 310 256 l 313 235 q 313 216 313 225 q 317 200 314 207 q 349 183 325 183 q 397 182 372 182 q 507 183 451 182 q 601 199 563 183 q 683 254 653 219 q 733 340 713 289 q 742 365 739 351 q 749 393 744 379 l 749 404 q 751 425 751 414 q 754 447 751 436 l 754 461 z "},"E":{"ha":900,"x_min":96,"x_max":846,"o":"m 133 990 l 653 990 l 774 990 q 806 989 790 990 q 828 978 821 988 q 831 968 831 974 q 835 957 832 963 l 835 942 q 835 921 836 932 q 835 900 835 910 q 835 878 835 889 q 835 858 836 868 q 833 838 833 851 q 819 815 829 821 q 799 810 811 810 q 772 810 786 810 l 676 810 l 425 810 q 399 810 414 810 q 370 810 385 811 q 343 808 356 810 q 325 801 331 806 q 313 781 315 794 q 311 751 311 768 l 311 672 l 311 632 q 317 613 314 621 q 326 601 319 606 q 346 595 335 596 q 369 594 357 594 l 444 594 l 683 594 q 708 595 693 594 q 736 595 722 596 q 762 593 750 594 q 779 588 774 592 q 789 571 786 583 q 792 544 792 558 q 792 514 793 529 q 792 488 792 499 q 792 468 792 478 q 789 451 792 458 q 778 433 786 440 q 759 428 771 429 q 733 426 747 426 q 703 427 718 426 q 679 428 689 428 l 408 428 q 376 428 392 428 q 348 427 361 429 q 326 419 335 425 q 313 400 317 413 q 311 385 311 393 q 311 371 311 378 l 311 318 l 311 240 q 313 210 311 224 q 325 190 315 197 q 335 185 329 186 q 349 182 342 185 l 363 182 q 378 181 369 181 q 393 182 386 182 l 451 182 l 713 182 l 786 182 q 808 182 797 182 q 826 178 818 182 q 842 163 838 174 q 845 146 844 156 q 846 125 846 136 l 846 61 q 844 30 846 44 q 832 8 843 15 q 810 1 824 1 q 782 1 797 1 l 678 1 l 267 1 l 157 1 q 123 3 138 1 q 101 17 108 6 q 96 38 96 25 q 96 64 96 51 l 96 164 l 96 542 l 96 844 l 96 931 q 96 956 96 943 q 101 975 96 968 q 122 989 107 985 q 128 990 125 990 q 133 990 131 989 z "},"F":{"ha":824,"x_min":94,"x_max":792,"o":"m 133 989 l 619 989 l 732 989 q 761 988 747 989 q 782 978 775 986 q 790 959 788 971 q 792 933 792 947 q 791 903 792 918 q 790 876 790 889 q 791 857 790 867 q 790 839 792 847 q 785 826 788 832 q 778 815 783 819 q 740 808 767 807 q 693 808 713 808 l 425 808 q 372 809 403 808 q 326 801 340 810 q 313 781 318 796 q 310 756 310 771 q 311 729 311 740 l 311 663 q 310 646 311 656 q 311 629 310 636 l 311 614 q 317 593 314 601 q 332 581 321 585 q 349 577 339 578 q 369 576 358 576 l 422 576 l 615 576 q 641 577 626 576 q 670 577 656 578 q 697 575 685 576 q 714 569 708 574 q 727 533 728 560 q 726 483 726 506 q 727 459 726 472 q 725 435 728 446 q 710 414 719 419 q 672 409 700 408 q 626 410 644 410 l 399 410 q 347 408 372 410 q 315 389 322 407 q 313 380 313 385 q 311 371 313 375 l 311 357 l 311 336 l 311 299 l 311 103 q 312 55 311 83 q 306 14 313 26 q 294 5 301 7 q 281 0 288 3 q 260 -1 271 -3 q 238 0 249 0 l 157 0 q 128 1 142 0 q 107 8 115 1 q 97 30 97 15 q 96 60 96 44 l 96 179 l 96 688 l 96 890 q 95 936 96 910 q 101 974 94 963 q 122 988 107 983 q 128 988 125 989 q 133 989 131 988 z "},"G":{"ha":1054,"x_min":51,"x_max":971,"o":"m 521 1015 q 756 965 661 1018 q 903 829 850 913 q 946 726 929 785 q 950 702 949 717 q 944 681 951 688 q 925 669 938 671 q 897 668 913 668 l 807 668 q 778 669 792 668 q 757 676 765 669 q 740 700 744 685 q 728 729 735 715 q 701 766 715 749 q 668 797 688 783 q 604 826 642 815 q 589 830 597 829 q 574 832 581 831 q 561 833 569 833 q 519 834 544 836 q 481 829 494 832 q 463 825 471 826 q 446 819 454 824 q 381 783 410 804 q 332 731 353 763 q 301 674 313 704 q 281 608 290 643 q 275 578 276 593 q 271 547 274 563 l 271 529 q 269 511 268 521 q 269 492 269 501 q 271 444 269 468 q 278 400 272 421 q 279 390 279 394 q 281 381 279 386 q 333 260 300 310 q 429 183 367 211 q 455 174 442 178 q 483 165 468 169 q 499 165 492 164 q 514 163 507 165 q 535 160 522 160 q 557 163 547 160 q 569 163 564 164 q 581 164 575 163 q 592 165 588 165 q 603 167 597 164 q 639 177 622 172 q 671 190 656 182 q 726 238 706 211 q 763 306 747 265 q 770 342 768 321 q 757 371 772 363 q 735 376 749 376 q 710 376 722 376 l 639 376 q 621 376 631 376 q 603 378 611 375 l 590 378 q 579 380 585 379 q 569 383 574 381 q 560 400 563 389 q 556 424 557 411 q 556 452 556 438 q 557 479 557 467 q 558 500 557 490 q 561 517 558 510 q 576 533 567 529 q 590 536 585 536 l 606 536 q 616 538 610 538 q 628 538 622 538 l 668 538 l 871 538 q 924 538 894 538 q 964 525 954 538 q 971 496 971 514 q 971 461 971 478 l 971 317 l 971 89 q 970 38 971 63 q 951 7 969 14 q 931 3 943 3 q 908 3 919 3 q 860 5 881 3 q 832 26 840 7 q 824 54 826 39 q 814 81 821 69 q 807 87 811 83 q 796 89 803 90 q 777 78 785 86 q 761 63 769 69 q 735 42 747 51 q 707 24 722 33 q 669 6 689 13 q 628 -8 649 -1 q 613 -12 621 -11 q 599 -14 606 -12 q 575 -17 588 -17 q 550 -19 563 -17 q 534 -20 544 -21 q 519 -18 524 -19 l 506 -18 q 492 -17 499 -17 q 479 -15 486 -17 l 468 -15 q 446 -11 457 -12 q 424 -7 435 -10 q 404 -2 414 -4 q 385 3 394 0 q 311 32 343 15 q 178 134 229 75 q 90 281 126 193 q 78 319 82 300 q 67 358 74 339 q 65 370 65 365 q 63 382 65 375 q 60 402 60 392 q 57 424 60 413 q 55 435 54 431 q 54 447 56 440 l 54 472 q 51 494 51 479 q 54 515 51 508 l 54 531 q 55 548 56 539 q 57 564 54 557 q 60 589 60 576 q 63 613 60 601 q 69 642 67 628 q 78 672 72 657 q 91 710 85 692 q 106 747 97 729 q 125 785 114 767 q 147 821 136 804 q 242 920 189 879 q 369 989 294 961 q 403 999 385 996 q 439 1007 421 1003 q 453 1010 446 1010 q 468 1013 461 1010 q 487 1014 478 1015 q 506 1015 496 1013 q 513 1015 508 1017 q 521 1015 518 1014 z "},"H":{"ha":1029,"x_min":97,"x_max":932,"o":"m 135 990 l 246 990 q 287 988 269 990 q 311 967 304 986 q 314 952 314 960 q 314 938 314 944 l 314 889 l 314 721 q 313 667 314 697 q 322 622 311 638 q 338 613 329 614 q 358 610 347 613 l 625 610 q 676 610 650 610 q 713 628 703 611 q 718 665 719 640 q 717 710 717 690 l 717 890 q 716 939 717 911 q 725 978 715 967 q 742 988 729 985 q 772 991 756 990 q 806 991 789 992 q 835 990 822 990 q 884 991 858 990 q 922 981 910 992 q 932 958 932 974 q 932 926 932 942 l 932 790 l 932 222 l 932 71 q 932 36 932 54 q 922 11 932 18 q 883 1 910 0 q 832 1 856 1 q 803 1 819 1 q 772 1 788 0 q 742 3 756 1 q 725 13 729 6 q 719 31 721 18 q 716 59 717 44 q 716 88 715 74 q 717 114 717 103 l 717 315 l 717 356 q 717 367 717 361 q 717 378 718 372 l 717 392 q 715 400 715 396 q 714 408 715 404 q 678 428 704 428 q 624 428 651 428 l 350 428 q 332 423 339 425 q 319 413 325 421 q 314 392 317 406 l 314 378 q 313 362 313 371 q 314 346 314 353 l 314 285 l 314 93 q 314 49 314 72 q 306 13 314 25 q 288 3 301 6 q 259 1 275 1 q 226 1 243 0 q 197 1 210 1 q 150 1 178 1 q 111 8 122 0 q 99 35 100 17 q 97 72 97 53 l 97 232 l 97 788 l 97 917 q 97 949 97 932 q 103 975 97 965 q 122 989 108 985 q 128 990 125 989 q 135 990 132 990 z "},"I":{"ha":410,"x_min":93,"x_max":311,"o":"m 132 989 l 251 989 q 281 988 267 989 q 301 978 294 988 q 309 953 308 968 q 310 919 310 938 l 310 799 l 310 317 l 310 89 q 310 49 310 71 q 304 15 311 26 q 279 0 299 6 q 258 -1 269 -3 q 236 0 247 0 l 154 0 q 126 1 139 0 q 104 10 113 3 q 96 31 97 17 q 94 60 94 44 l 94 181 l 94 688 l 94 890 q 94 936 94 910 q 100 974 93 963 q 118 988 106 982 q 126 988 122 988 q 132 989 129 989 z "},"J":{"ha":772,"x_min":21,"x_max":676,"o":"m 497 990 l 615 990 q 644 989 631 990 q 665 981 658 988 q 673 960 671 974 q 676 932 675 947 q 676 901 676 917 q 675 874 675 886 l 675 594 l 675 358 q 676 292 675 326 q 669 231 676 258 q 667 217 667 224 q 665 204 668 211 q 658 178 661 192 q 650 153 656 165 q 563 36 619 76 q 520 13 543 22 q 472 -6 497 3 q 451 -10 461 -8 q 429 -15 440 -12 q 405 -18 418 -18 q 379 -21 392 -18 l 364 -21 q 341 -23 356 -24 q 318 -19 326 -22 q 296 -18 303 -19 q 269 -14 282 -15 q 244 -10 256 -12 q 214 0 229 -4 q 185 11 199 4 q 104 65 140 31 q 49 143 68 99 q 39 171 43 157 q 31 200 35 185 q 28 217 28 211 q 26 229 25 224 q 24 242 26 235 q 22 249 22 244 q 22 257 22 254 l 22 271 q 21 285 21 278 q 21 300 21 293 q 22 337 21 319 q 35 361 24 354 q 65 368 46 368 q 100 368 83 368 q 129 369 113 368 q 162 369 146 369 q 191 365 178 368 q 208 356 204 363 q 216 319 218 342 q 218 278 214 297 q 222 262 221 269 q 225 246 222 254 q 239 210 231 226 q 263 183 247 194 q 308 163 279 171 q 368 161 338 154 q 381 164 375 164 q 392 167 386 164 q 447 224 433 183 q 454 249 453 236 q 458 278 456 263 q 458 294 458 286 q 460 310 458 301 q 460 326 461 317 q 460 343 460 335 l 460 410 l 460 782 l 460 915 q 459 947 460 931 q 465 975 458 964 q 486 989 471 983 q 497 990 494 989 z "},"K":{"ha":1003,"x_min":96,"x_max":992,"o":"m 135 990 l 242 990 q 286 988 268 990 q 311 964 304 986 q 313 949 313 957 q 313 933 313 942 l 313 878 l 313 697 l 313 667 q 313 642 313 654 q 317 619 313 629 q 322 614 318 617 q 328 611 325 611 q 347 617 338 608 q 360 629 356 625 q 382 651 371 640 q 403 675 393 663 q 414 685 407 678 q 425 697 419 690 q 435 710 431 703 q 440 714 438 713 q 446 718 443 715 q 463 737 453 729 q 479 754 472 744 q 494 772 488 765 q 501 778 497 774 q 539 818 518 800 q 576 858 560 836 l 583 865 q 592 874 588 869 q 600 883 596 878 q 603 887 601 886 q 607 890 604 888 q 619 906 615 896 q 626 911 622 908 q 633 917 631 914 q 643 929 638 924 q 654 942 649 935 q 659 946 657 944 q 664 950 661 947 q 686 974 674 964 q 718 989 699 985 q 744 991 729 992 q 771 990 758 990 l 878 990 q 910 991 893 990 q 938 985 928 992 q 942 969 946 978 q 935 954 938 960 q 921 941 928 947 q 907 928 914 935 q 888 907 897 917 q 868 888 879 897 q 771 789 819 839 q 674 690 722 739 q 626 643 651 665 q 608 624 617 633 q 597 600 600 615 q 601 578 594 589 q 613 561 608 568 q 641 520 626 540 q 669 479 656 500 q 786 315 728 396 q 903 150 844 233 l 953 79 q 965 63 958 71 q 976 47 971 56 q 986 28 981 40 q 982 8 992 15 q 954 1 972 1 q 921 1 936 1 l 811 1 q 781 1 796 1 q 753 3 765 0 q 728 19 738 8 q 711 42 719 29 q 695 65 703 53 q 679 89 688 76 q 603 203 642 147 q 525 317 564 258 q 495 363 510 340 q 465 407 481 385 q 451 423 460 414 q 429 429 443 432 q 401 410 415 425 q 378 386 388 396 q 364 372 371 379 q 350 357 357 364 q 332 338 340 347 q 318 317 324 329 q 313 299 314 308 q 313 278 313 289 l 313 260 q 312 244 311 253 q 313 228 313 235 l 313 163 l 313 64 q 312 35 313 49 q 304 13 311 21 q 283 3 297 4 q 254 1 269 1 l 160 1 q 131 2 144 1 q 107 10 117 3 q 97 35 97 17 q 97 72 97 54 l 97 233 l 97 788 l 97 917 q 97 949 97 932 q 101 975 96 965 q 124 989 110 985 q 129 990 126 990 q 135 990 132 989 z "},"L":{"ha":824,"x_min":96,"x_max":796,"o":"m 135 990 l 253 990 q 283 990 268 990 q 304 979 297 989 q 311 953 311 969 q 311 919 311 938 l 311 793 l 311 372 l 311 290 q 310 269 311 279 q 313 249 310 258 l 313 235 q 313 216 313 225 q 317 200 314 207 q 356 182 326 182 q 413 182 385 182 l 682 182 q 710 183 693 182 q 742 183 726 183 q 770 179 757 182 q 788 171 783 176 q 794 150 794 163 q 794 124 794 138 l 794 60 q 795 39 794 49 q 793 22 796 29 q 779 7 788 11 q 758 1 772 1 q 732 1 744 1 l 633 1 l 257 1 l 157 1 q 123 3 138 1 q 101 17 108 6 q 96 38 96 25 q 96 64 96 51 l 96 161 l 96 529 l 96 843 l 96 931 q 97 956 96 943 q 101 975 97 968 q 124 989 107 985 q 129 990 126 990 q 135 990 132 989 z "},"M":{"ha":1260,"x_min":97,"x_max":1163,"o":"m 136 990 l 318 990 q 363 990 340 990 q 399 981 386 990 q 413 960 408 974 q 421 935 417 947 q 437 890 429 913 q 453 843 444 867 q 513 665 485 756 q 575 486 542 575 q 594 429 586 458 q 614 372 603 400 q 619 358 617 365 q 629 347 622 351 q 635 344 632 346 q 640 346 638 343 q 656 363 651 349 q 664 388 660 376 q 684 451 675 419 q 704 514 693 482 q 760 684 732 599 q 815 856 788 769 q 829 899 822 878 q 843 943 836 921 q 851 965 847 954 q 867 983 856 976 q 888 990 875 990 q 915 990 901 990 l 1006 990 l 1101 990 q 1127 990 1114 990 q 1147 985 1140 990 q 1163 953 1163 976 q 1163 907 1163 931 l 1163 699 l 1163 182 l 1163 61 q 1162 31 1163 46 q 1153 10 1161 17 q 1132 2 1144 3 q 1104 1 1119 1 l 1038 1 l 1000 1 q 981 6 989 4 q 968 15 974 7 q 963 33 963 22 q 963 57 963 44 l 963 128 l 963 485 q 961 522 961 504 q 961 557 961 539 q 962 580 961 568 q 960 603 963 592 q 957 624 957 613 q 949 638 957 635 q 942 636 944 639 q 939 632 940 633 q 930 619 933 626 q 924 604 926 611 q 908 561 915 583 q 892 517 900 539 q 887 500 889 508 q 881 483 885 492 q 868 447 874 465 q 856 411 863 429 q 853 402 853 407 q 850 393 853 397 q 841 367 844 381 q 831 339 838 353 q 822 313 825 326 q 813 285 818 299 q 783 203 796 244 q 756 122 771 163 q 753 114 753 118 q 750 106 753 110 q 739 74 743 90 q 728 43 735 58 q 720 25 724 33 q 710 11 717 17 q 696 5 703 6 q 679 1 689 4 l 647 1 q 624 1 638 1 q 598 0 611 0 q 574 1 585 0 q 557 7 563 3 q 542 23 546 14 q 532 44 538 32 q 520 78 525 61 q 508 113 515 96 l 504 125 q 492 160 497 142 q 479 196 486 179 q 477 203 478 200 q 475 211 476 207 q 464 238 468 224 q 454 265 460 251 q 452 272 453 268 q 450 279 451 276 q 441 307 444 293 q 431 335 438 321 q 410 393 419 363 q 389 453 400 424 q 365 524 376 488 q 339 593 354 560 q 324 625 332 613 q 318 630 321 628 q 311 629 315 632 q 304 615 304 625 q 301 596 304 606 q 299 576 299 586 q 300 554 300 565 q 300 524 300 539 q 299 493 300 508 l 299 124 l 299 56 q 299 33 299 44 q 293 15 299 22 q 272 3 288 6 q 251 1 263 0 q 229 1 240 1 l 157 1 q 129 2 142 1 q 108 10 117 3 q 99 31 100 17 q 97 61 97 46 l 97 183 l 97 700 l 97 894 q 97 915 97 903 q 97 938 97 926 q 99 959 97 949 q 103 975 100 969 q 125 989 108 985 q 131 990 128 990 q 136 990 133 989 z "},"N":{"ha":1029,"x_min":97,"x_max":933,"o":"m 135 990 l 247 990 q 277 991 263 990 q 303 986 292 992 q 324 969 317 981 q 339 947 332 958 l 389 868 q 487 710 438 789 q 585 553 536 632 q 631 477 608 515 q 679 403 654 439 q 690 386 685 394 q 703 371 694 378 q 710 365 706 368 q 718 365 714 363 q 728 378 728 368 q 731 399 728 388 q 731 420 732 408 q 731 443 731 432 l 731 531 l 731 853 l 731 906 q 730 919 731 913 q 731 932 729 926 l 731 947 q 739 978 731 967 q 758 989 746 988 q 785 990 769 990 l 869 990 q 892 990 881 990 q 911 988 903 990 q 931 963 929 981 q 932 922 932 946 l 932 769 l 932 188 l 932 71 q 933 40 932 56 q 928 17 933 25 q 915 6 922 8 q 896 1 907 4 l 847 1 l 771 1 q 747 1 758 1 q 726 6 735 1 q 703 24 711 13 q 686 50 694 36 q 662 90 674 69 q 638 129 650 110 l 429 463 q 391 524 410 494 q 353 586 372 554 q 337 610 346 596 q 313 625 328 625 q 301 603 301 615 q 300 571 300 590 l 300 474 l 300 142 l 300 88 q 301 74 300 81 q 299 60 301 67 l 299 44 q 292 13 299 22 q 273 3 285 4 q 246 1 261 1 l 161 1 q 139 1 150 1 q 119 4 128 1 q 99 29 101 11 q 97 71 97 47 l 97 231 l 97 788 l 97 917 q 97 949 97 932 q 103 975 97 965 q 122 989 108 985 q 128 990 125 989 q 135 990 132 990 z "},"O":{"ha":1081,"x_min":53,"x_max":1029,"o":"m 1025 529 q 1028 501 1028 521 q 1026 472 1029 481 l 1026 454 q 1024 425 1024 440 q 1021 394 1024 410 q 1017 375 1018 385 q 1013 356 1015 365 q 999 307 1006 331 q 983 261 993 283 q 871 99 942 164 q 696 0 800 35 q 665 -8 681 -6 q 635 -14 650 -11 q 620 -17 628 -17 q 606 -18 613 -17 l 560 -22 q 540 -23 554 -24 q 522 -21 526 -22 q 509 -20 515 -19 q 496 -19 503 -21 l 481 -19 q 460 -16 469 -17 q 439 -12 450 -15 q 417 -8 428 -10 q 394 -3 406 -6 q 363 8 379 3 q 332 21 347 14 q 191 117 249 57 q 97 261 133 178 q 83 302 89 281 q 71 346 78 324 q 68 358 68 353 q 67 368 68 363 q 63 388 64 378 q 58 410 61 399 q 58 423 57 417 q 56 435 58 429 q 56 452 54 443 q 56 469 57 461 q 53 491 53 476 q 56 513 53 506 q 56 526 57 519 q 56 539 54 532 l 56 547 q 58 566 58 557 q 60 583 57 575 q 63 598 63 590 q 65 613 63 606 q 76 659 72 636 q 89 704 81 682 q 110 751 100 728 q 133 796 119 775 q 229 907 175 863 q 361 983 283 951 q 399 994 379 990 q 439 1004 419 999 q 452 1007 446 1007 q 465 1008 458 1007 l 507 1013 q 515 1013 510 1014 q 522 1013 519 1011 q 693 992 621 1015 q 822 929 765 969 q 860 901 840 917 q 892 868 879 885 q 906 853 899 861 q 918 839 913 846 q 949 794 933 817 q 975 744 964 771 q 990 707 983 725 q 1003 668 996 689 q 1010 640 1007 654 q 1017 610 1013 625 q 1019 591 1019 600 q 1022 574 1019 582 q 1024 556 1025 565 q 1025 540 1024 547 l 1025 529 m 810 471 q 813 491 813 478 q 810 511 813 504 l 810 535 q 809 545 808 540 q 807 556 810 550 q 803 577 804 567 q 800 597 803 588 q 797 613 800 604 q 789 643 793 628 q 778 674 785 658 q 690 788 747 744 q 529 832 632 832 q 523 831 526 831 q 517 831 519 832 q 506 830 511 829 q 493 828 500 831 q 463 822 478 825 q 436 813 449 818 q 344 743 378 788 q 289 636 310 699 q 283 606 285 621 q 276 576 281 592 q 275 566 275 571 q 274 556 275 561 q 272 540 271 549 q 272 525 274 532 q 269 499 269 518 q 271 474 268 481 l 271 458 q 272 447 272 453 q 274 435 272 440 q 274 424 274 429 q 275 414 275 419 q 281 383 279 399 q 289 354 283 368 q 326 272 304 310 q 382 210 349 233 q 397 199 389 203 q 413 190 404 194 q 445 175 428 181 q 482 164 463 169 q 495 162 489 161 q 508 161 501 163 q 525 158 517 158 q 543 158 533 158 l 554 158 q 567 159 561 160 q 579 161 572 158 q 607 166 593 164 q 633 174 621 168 q 727 235 693 197 q 785 332 761 272 q 795 365 792 347 q 804 401 799 383 l 808 435 q 810 447 810 440 q 810 460 810 453 l 810 471 z "},"P":{"ha":926,"x_min":94,"x_max":886,"o":"m 825 867 q 872 768 857 822 q 882 638 886 714 q 872 581 879 607 q 856 533 865 556 q 851 523 853 528 q 846 513 849 518 q 835 494 840 503 q 824 476 831 485 q 756 413 796 438 q 667 372 717 389 q 635 365 651 367 q 601 360 618 364 q 585 358 593 358 q 568 357 576 358 l 511 357 l 394 357 q 356 357 376 357 q 325 349 336 357 q 311 315 311 339 q 311 267 311 290 l 311 83 q 312 47 311 67 q 306 17 313 28 q 281 1 300 7 q 260 0 271 -1 q 238 1 249 1 l 157 1 q 128 2 142 1 q 107 10 115 3 q 97 31 99 17 q 96 61 96 46 l 96 892 q 95 938 96 911 q 101 975 94 964 q 122 989 107 983 q 128 990 125 990 q 135 990 132 989 l 536 990 q 561 991 549 990 q 585 989 574 992 l 592 989 q 607 986 599 986 q 622 983 615 986 q 635 982 629 982 q 647 979 640 982 q 692 966 669 972 q 733 949 714 960 q 749 939 740 943 q 765 928 757 935 q 777 919 772 924 q 789 908 782 914 l 797 900 q 825 867 814 883 m 672 639 q 674 677 675 654 q 669 715 674 700 q 649 764 661 746 q 611 797 636 782 q 560 816 590 810 q 494 824 529 822 q 421 824 458 825 q 350 824 383 824 q 342 822 346 822 q 335 821 339 821 q 317 804 321 815 q 311 774 311 793 q 311 740 311 756 l 311 608 q 311 572 311 592 q 318 540 311 551 q 335 528 324 532 q 360 523 346 524 q 390 523 374 522 q 419 524 406 524 q 554 531 493 524 q 647 579 615 538 q 661 606 656 592 q 672 639 667 621 z "},"Q":{"ha":1081,"x_min":53,"x_max":1029,"o":"m 1025 531 q 1028 502 1028 522 q 1026 474 1029 482 q 1026 459 1026 467 q 1025 444 1026 451 q 1022 415 1022 429 q 1018 385 1022 400 q 1013 361 1015 374 q 1008 338 1011 349 q 990 285 999 310 q 969 236 982 260 q 965 227 967 232 q 961 218 964 222 q 948 196 954 207 q 935 174 942 185 q 922 158 928 165 q 913 139 915 150 q 914 119 908 126 q 924 104 919 111 q 951 79 935 90 q 957 72 953 76 q 989 44 974 60 q 1003 28 994 38 q 1006 3 1011 18 q 987 -22 999 -11 q 964 -44 975 -33 q 949 -60 957 -51 q 929 -74 940 -69 q 902 -71 914 -81 q 883 -56 890 -61 q 853 -28 868 -43 q 822 -1 839 -14 q 804 15 813 6 q 781 26 796 24 q 761 26 769 29 q 747 19 753 22 q 717 8 732 13 q 686 -3 701 3 q 648 -10 668 -8 q 608 -17 628 -12 q 592 -18 600 -18 q 574 -19 583 -18 q 549 -22 567 -21 q 525 -19 532 -22 l 508 -19 q 482 -17 496 -17 q 456 -14 468 -17 q 436 -10 446 -11 q 417 -7 426 -10 q 371 6 393 0 q 328 22 349 13 q 196 114 254 54 q 106 246 138 174 q 90 285 97 265 q 76 325 83 304 q 69 356 72 340 q 63 388 65 372 q 60 405 60 396 q 57 422 60 414 q 56 439 56 431 q 56 456 57 447 l 56 471 q 53 492 53 478 q 56 514 53 507 q 55 522 56 518 q 56 529 54 526 q 56 543 56 536 q 57 557 57 550 q 60 580 58 568 q 63 603 61 592 q 71 642 68 622 q 81 679 74 661 q 186 867 119 793 q 361 985 253 940 q 399 996 379 992 q 439 1006 419 1000 q 452 1008 446 1008 q 465 1010 458 1008 l 507 1014 q 515 1014 510 1015 q 522 1014 519 1013 q 680 998 611 1017 q 801 944 749 979 q 849 911 824 932 q 858 903 854 908 q 868 894 863 897 q 887 877 878 886 q 903 857 896 868 q 910 849 906 853 q 918 840 915 844 q 949 794 933 818 q 975 746 964 771 q 990 708 983 726 q 1003 669 996 690 q 1010 641 1007 656 q 1017 611 1013 626 q 1019 592 1019 601 q 1022 575 1019 583 q 1024 558 1025 567 q 1025 542 1024 549 l 1025 531 m 810 469 q 813 491 813 476 q 810 513 813 506 l 810 536 q 809 547 808 542 q 807 557 810 551 q 804 576 804 567 q 801 596 804 586 q 792 632 796 615 q 782 664 789 649 q 745 733 767 701 q 693 786 724 764 q 622 821 663 808 q 529 833 582 833 q 513 832 521 832 q 499 831 506 832 q 468 824 483 826 q 439 815 453 821 q 345 745 381 790 q 289 638 310 700 q 283 608 285 622 q 276 578 281 593 q 275 567 275 572 q 274 557 275 563 q 272 542 271 550 q 271 526 274 533 l 271 511 q 269 493 269 504 q 271 475 269 482 l 271 460 q 273 440 274 450 q 275 419 272 429 q 276 411 276 415 q 278 403 276 407 q 283 378 281 390 q 289 353 286 365 q 341 251 308 294 q 426 183 374 207 l 447 175 q 466 169 457 171 q 486 164 475 167 q 501 162 493 163 q 517 161 510 161 l 526 161 q 542 159 533 158 q 558 160 551 160 l 571 160 q 583 161 578 161 q 594 164 589 161 q 601 197 618 176 q 581 219 593 210 q 560 240 569 228 q 553 250 557 244 q 551 265 549 256 q 564 287 554 279 q 581 306 574 294 q 587 313 583 310 q 593 321 590 317 q 600 326 596 322 q 607 335 603 331 q 617 343 611 340 q 634 352 624 350 q 656 347 644 354 q 682 325 671 338 q 708 301 693 313 l 717 293 q 731 283 722 289 q 751 281 740 278 q 767 294 758 283 q 773 303 769 299 q 779 314 776 308 q 791 349 786 331 q 801 386 796 367 q 804 403 803 394 q 807 419 806 411 q 809 438 808 429 q 810 457 810 447 l 810 469 z "},"R":{"ha":1003,"x_min":94,"x_max":933,"o":"m 931 32 q 930 17 933 24 q 922 7 926 10 q 899 1 914 0 q 869 1 885 1 l 793 1 q 754 3 771 1 q 729 19 738 6 q 717 64 718 38 q 710 114 715 90 q 709 124 710 119 q 708 133 708 129 q 704 169 704 150 q 701 203 704 188 q 700 215 700 207 q 695 247 697 231 q 689 278 693 263 q 663 335 678 310 q 619 372 647 360 q 606 376 613 375 q 590 381 599 378 q 533 389 565 389 q 468 389 500 389 l 354 389 q 335 385 343 386 q 321 376 326 383 q 311 333 310 363 q 313 281 313 304 l 313 103 q 312 80 313 92 q 311 57 311 68 q 311 37 311 46 q 308 21 311 28 q 292 4 304 8 q 275 1 285 1 q 254 1 265 1 l 192 1 q 144 1 169 1 q 107 10 119 0 q 96 35 96 17 q 96 72 96 54 l 96 917 q 95 949 96 932 q 101 975 94 965 q 122 989 107 983 q 128 990 125 990 q 135 990 132 989 l 607 990 q 649 990 629 990 q 688 985 669 989 q 702 982 694 982 q 717 979 710 982 q 736 974 726 976 q 756 967 746 971 q 819 929 790 951 q 868 878 849 907 q 877 863 874 871 q 886 849 881 856 q 903 808 897 829 q 915 763 908 788 q 916 751 917 757 q 918 740 915 746 l 918 728 q 919 701 921 717 q 915 675 918 685 q 913 655 913 664 q 910 636 913 646 q 896 597 903 615 q 878 561 889 578 q 871 552 875 557 q 864 543 867 547 q 855 532 860 538 q 844 522 850 526 q 828 508 836 515 q 810 494 819 501 q 799 485 804 490 q 790 474 793 481 q 793 460 788 465 q 803 451 799 454 q 831 429 817 440 q 854 403 844 418 q 881 354 871 379 q 899 297 890 329 q 902 271 901 285 q 906 244 903 257 q 906 228 906 236 q 907 213 907 221 q 908 201 908 207 q 908 188 907 194 q 909 176 910 182 q 910 164 908 171 q 913 135 913 150 q 915 106 913 119 l 919 81 q 925 56 922 68 q 931 32 928 43 m 701 658 q 702 696 704 674 q 697 729 700 718 q 694 739 694 735 q 692 747 694 743 q 631 810 675 790 q 576 822 607 821 q 513 824 546 824 l 351 824 q 346 822 349 821 q 340 822 343 822 q 318 808 324 818 q 312 780 311 797 q 313 746 313 763 l 313 617 q 313 583 313 600 q 319 557 313 567 q 338 546 325 549 q 365 542 350 543 q 397 541 381 540 q 426 542 414 542 l 508 542 q 529 541 518 542 q 549 543 540 540 l 567 543 q 588 546 578 546 q 608 549 599 546 q 650 567 632 556 q 681 596 668 578 q 693 624 689 608 q 701 658 697 639 z "},"S":{"ha":901,"x_min":35,"x_max":868,"o":"m 422 1011 q 793 851 692 1015 q 815 806 807 829 q 829 754 822 782 q 831 728 832 743 q 825 707 831 714 q 806 697 818 699 q 778 694 793 694 l 690 694 q 665 694 678 694 q 644 697 653 694 q 624 719 628 704 q 613 750 619 735 q 597 779 607 764 q 576 803 588 794 q 539 826 557 817 q 498 838 522 833 q 448 844 474 843 q 397 843 422 846 q 353 832 372 840 q 303 799 321 818 q 279 743 286 781 q 278 722 276 733 q 282 703 279 710 q 313 662 293 674 q 361 639 333 650 q 392 628 376 632 q 425 619 408 625 q 502 598 463 607 q 581 578 542 589 q 594 575 588 575 q 608 572 601 575 q 666 554 636 563 q 719 531 696 546 q 784 483 757 507 q 835 422 811 460 q 847 397 842 411 q 857 369 851 383 q 858 362 858 365 q 860 356 858 358 q 865 300 865 333 q 865 286 868 293 l 865 261 q 860 232 863 246 q 854 204 858 218 q 836 158 846 179 q 813 118 826 138 q 801 106 807 111 q 792 94 796 101 q 776 78 785 86 q 758 64 768 71 q 744 53 751 58 q 728 42 736 47 q 678 17 704 26 q 625 -3 653 7 q 585 -12 606 -10 q 543 -18 564 -14 q 524 -20 533 -21 q 507 -22 515 -19 l 496 -22 q 488 -22 493 -22 q 481 -22 483 -21 q 457 -24 474 -24 q 433 -22 440 -24 l 419 -22 q 399 -20 410 -19 q 381 -18 389 -21 q 368 -17 374 -18 q 356 -15 363 -17 q 321 -8 339 -11 q 288 0 303 -6 q 168 56 219 22 q 82 146 117 90 q 47 225 60 179 q 44 242 44 233 q 40 260 43 250 q 36 287 38 271 q 42 311 35 303 q 62 324 49 322 q 92 326 75 326 l 179 326 q 203 326 190 326 q 225 322 215 326 q 243 299 240 315 q 253 267 246 283 q 267 236 258 250 q 285 210 275 222 q 300 194 292 201 q 317 182 308 188 q 392 150 347 163 q 410 147 401 147 q 431 144 419 147 l 438 144 q 468 142 449 142 q 499 144 488 142 q 513 146 503 146 q 527 148 519 147 q 542 151 535 149 q 617 185 589 164 q 656 254 644 206 q 656 276 658 264 q 651 296 654 289 q 604 354 638 333 q 589 363 600 357 q 542 383 568 375 q 492 399 517 390 q 473 403 482 401 q 453 408 464 406 q 408 420 431 415 q 364 432 385 425 q 353 435 357 435 q 343 438 349 435 q 323 443 332 440 q 303 449 314 446 q 242 472 271 460 q 188 499 213 483 q 129 547 156 519 q 88 611 103 575 q 79 637 82 624 q 72 665 76 650 q 68 701 69 678 q 69 740 67 725 q 71 757 71 746 q 78 786 75 772 q 86 814 81 800 q 140 897 107 863 q 215 958 172 931 q 275 985 243 975 q 343 1003 307 994 q 370 1006 357 1006 q 397 1010 383 1007 q 410 1010 401 1011 q 422 1011 419 1008 z "},"T":{"ha":849,"x_min":19,"x_max":831,"o":"m 57 990 l 613 990 l 754 990 q 790 990 772 990 q 818 982 807 989 q 824 973 822 979 q 828 960 826 967 l 828 953 q 829 940 829 947 q 829 926 829 933 l 829 872 q 830 853 829 863 q 828 836 831 844 q 800 811 821 813 q 750 810 779 810 l 608 810 q 560 808 581 810 q 533 782 540 806 q 533 769 532 775 q 532 757 535 764 q 531 738 531 749 q 532 719 532 728 l 532 596 l 532 196 l 532 65 q 530 27 532 43 q 513 4 528 11 q 490 1 503 1 q 467 1 478 1 l 372 1 q 344 3 357 1 q 324 13 331 4 q 317 41 317 24 q 317 76 317 58 l 317 215 l 317 601 l 317 719 q 317 740 317 729 q 315 758 318 750 q 315 771 314 765 q 314 782 317 776 q 285 808 307 806 q 235 810 264 810 l 106 810 q 72 809 90 810 q 42 811 53 808 q 25 824 31 815 q 20 842 21 831 q 19 864 19 853 l 19 932 q 22 964 19 950 q 35 985 24 978 q 50 990 39 988 q 57 990 57 990 z "},"U":{"ha":1029,"x_min":92,"x_max":936,"o":"m 129 992 l 247 992 q 277 990 263 992 q 299 981 292 989 q 306 952 306 969 q 307 917 307 935 l 307 776 l 307 490 l 307 442 q 306 430 307 436 q 307 418 306 424 l 307 396 q 306 369 307 383 q 308 344 306 356 q 310 329 308 335 q 315 299 313 314 q 322 268 317 283 q 362 208 338 232 q 426 171 386 185 q 449 167 438 168 q 471 163 460 165 q 483 160 478 160 q 496 160 489 161 q 514 159 501 158 q 531 161 526 160 l 551 161 q 574 165 563 164 q 594 169 585 167 q 625 179 614 174 q 669 209 650 190 q 699 251 688 228 q 717 337 714 288 q 719 439 719 386 l 719 715 l 719 901 q 719 944 719 921 q 726 979 718 968 q 746 990 733 988 q 774 992 758 992 l 863 992 q 884 992 874 992 q 904 990 894 993 q 929 976 924 986 q 935 945 936 965 q 935 908 935 925 l 935 722 l 935 442 q 933 339 935 389 q 921 249 932 289 q 872 135 901 183 q 793 54 842 88 q 692 4 750 24 q 666 -3 679 0 q 640 -8 653 -6 q 624 -11 632 -11 q 608 -14 617 -11 q 571 -18 592 -17 q 531 -19 550 -19 q 306 13 399 -21 q 160 124 213 47 q 130 176 142 149 q 108 235 118 203 q 106 247 106 242 q 103 258 106 251 q 92 346 92 297 q 92 443 92 394 l 92 831 l 92 928 q 92 955 92 942 q 96 976 92 968 q 118 990 104 986 q 124 990 121 990 q 129 992 126 990 z "},"V":{"ha":875,"x_min":3,"x_max":878,"o":"m 36 990 l 149 990 q 180 990 164 990 q 206 983 196 990 q 222 961 218 976 q 232 931 226 946 q 249 878 242 904 q 267 824 257 851 q 322 651 294 738 q 376 479 349 565 q 391 432 383 456 q 406 385 399 408 q 414 360 410 372 q 425 338 418 347 q 428 334 426 335 q 433 331 431 333 q 453 344 449 331 q 463 368 458 357 q 482 428 474 397 q 501 490 490 458 q 560 673 532 582 q 619 856 589 764 q 633 899 626 878 q 647 943 640 921 q 656 965 653 954 q 671 983 660 976 q 694 990 681 990 q 721 990 707 990 l 814 990 q 842 990 828 990 q 864 985 856 990 q 874 959 878 978 q 865 928 869 940 q 842 862 853 896 q 821 794 832 828 q 815 778 817 786 q 810 761 813 769 q 790 701 799 732 q 769 640 781 671 q 694 415 732 528 q 619 189 657 301 q 597 124 607 157 q 576 60 588 92 q 563 24 569 40 q 535 3 556 8 q 510 1 524 0 q 483 1 496 1 l 383 1 q 351 1 368 1 q 322 7 333 0 q 302 33 307 15 q 292 67 297 50 q 273 126 282 96 q 254 185 264 156 q 196 361 224 272 q 138 539 168 450 q 113 619 125 579 q 88 697 101 658 q 79 722 82 710 q 71 747 76 735 q 47 824 58 786 q 21 901 35 863 q 14 926 18 914 q 6 950 10 938 q 3 964 4 957 q 6 976 3 971 q 24 989 10 986 q 30 990 26 990 q 36 990 33 989 z "},"W":{"ha":1311,"x_min":8,"x_max":1294,"o":"m 46 990 l 156 990 q 186 990 171 990 q 210 983 201 990 q 224 960 221 975 q 232 931 228 946 q 242 891 238 911 q 251 851 246 871 q 254 840 254 844 q 256 828 254 835 q 265 789 261 808 q 274 750 268 769 q 282 718 279 735 q 289 685 285 701 q 312 592 303 639 q 333 499 321 544 q 344 457 340 478 q 353 415 347 436 q 361 387 358 399 q 375 364 364 375 q 378 363 378 364 q 382 364 379 363 q 394 379 390 367 q 401 400 399 392 q 410 437 407 418 q 421 474 414 456 q 424 487 422 481 q 426 500 425 493 q 437 537 433 518 q 446 574 440 556 q 449 585 447 579 q 451 597 450 590 q 458 623 456 610 q 465 649 461 636 q 468 665 468 660 q 474 685 471 675 q 479 704 476 694 q 500 783 492 743 q 519 861 508 822 q 530 900 526 881 q 539 939 533 919 q 549 967 544 954 q 568 988 553 981 q 590 990 578 990 q 615 990 603 990 l 697 990 q 726 990 713 990 q 749 982 739 989 q 761 962 758 975 q 768 935 764 949 q 781 884 775 910 q 793 833 786 858 q 802 797 799 815 q 811 761 806 779 q 818 731 815 746 q 826 701 821 717 q 853 597 842 650 q 879 492 864 543 q 890 449 886 471 q 900 407 893 426 q 907 381 904 393 q 917 360 910 369 q 924 356 918 358 l 929 356 q 932 358 931 357 q 935 360 933 358 q 946 384 943 371 q 953 411 949 397 q 963 456 960 433 q 974 500 967 478 q 1003 622 992 561 q 1033 744 1015 683 q 1044 789 1040 767 q 1054 833 1047 811 q 1057 845 1057 840 q 1058 857 1057 850 q 1068 896 1064 876 q 1078 935 1072 915 q 1084 960 1081 946 q 1096 981 1088 974 q 1119 989 1106 988 q 1151 990 1133 990 l 1231 990 q 1258 990 1244 990 q 1281 986 1271 990 q 1293 963 1294 979 q 1288 932 1292 946 q 1269 865 1276 900 q 1250 796 1261 829 q 1246 780 1247 788 q 1242 764 1244 772 q 1228 715 1235 740 q 1215 665 1222 689 q 1212 651 1213 658 q 1208 638 1211 644 q 1198 601 1201 619 q 1188 565 1194 583 q 1185 553 1185 558 q 1182 540 1185 547 q 1172 501 1175 521 q 1161 461 1168 481 q 1153 434 1157 447 q 1146 407 1150 421 q 1117 300 1129 354 q 1088 194 1106 246 q 1083 176 1085 185 q 1079 158 1082 168 q 1066 109 1072 135 q 1051 60 1060 83 q 1042 26 1046 42 q 1021 4 1038 11 q 997 1 1011 1 q 971 1 983 1 l 881 1 q 851 2 865 1 q 828 10 838 3 q 817 27 819 17 q 810 49 814 38 q 796 103 801 76 q 783 158 790 131 q 774 192 778 175 q 765 228 771 210 q 759 253 761 240 q 753 279 757 267 q 735 348 742 313 q 718 418 728 383 q 708 456 711 438 q 699 493 704 474 q 688 539 692 517 q 676 583 683 561 q 670 604 672 594 q 663 622 668 614 q 654 628 660 625 q 649 628 650 629 q 635 611 639 625 q 628 588 631 597 q 613 527 618 558 q 599 465 607 496 q 567 340 581 403 q 536 215 554 278 q 526 172 529 193 q 515 128 522 150 q 505 89 508 108 q 496 50 501 69 q 488 25 492 36 q 474 7 485 14 q 450 1 464 1 q 421 1 436 1 l 300 1 q 283 5 290 4 q 269 11 276 6 q 256 34 258 18 q 249 65 253 50 q 235 111 242 88 q 222 158 229 135 q 219 174 219 167 q 215 192 218 182 q 201 239 207 215 q 189 286 196 263 q 186 297 186 292 q 185 307 186 301 q 173 348 178 326 q 161 390 168 369 q 160 399 160 394 q 157 408 160 403 q 147 448 150 428 q 136 489 143 468 q 128 517 132 503 q 121 546 125 532 q 114 574 117 560 q 106 601 111 588 q 84 683 93 642 q 63 765 75 725 q 58 782 60 774 q 54 799 57 790 q 38 858 44 828 q 21 919 31 889 q 13 949 18 929 q 15 978 8 968 q 35 989 22 986 q 40 990 38 990 q 46 990 43 989 z "},"X":{"ha":926,"x_min":15,"x_max":917,"o":"m 74 990 l 206 990 q 245 990 226 990 q 275 979 264 989 q 284 971 281 976 q 292 960 288 965 q 305 938 299 949 q 318 915 311 926 q 363 844 342 879 q 408 772 385 808 q 424 745 417 758 q 440 719 432 732 q 451 706 446 713 q 465 696 456 699 q 479 699 474 694 q 488 707 485 704 q 508 735 500 719 q 528 767 517 751 q 577 844 551 806 q 626 922 603 883 q 650 960 638 939 q 683 988 663 981 q 708 990 694 990 q 736 990 722 990 l 836 990 q 867 989 851 990 q 885 976 882 988 q 883 958 889 967 q 874 944 876 950 q 849 906 861 925 q 824 868 836 888 q 737 739 779 803 q 650 610 694 675 q 629 577 639 593 q 608 544 619 561 q 601 531 606 539 q 599 511 596 522 q 608 490 601 499 q 621 471 614 481 q 674 393 644 433 q 755 269 714 331 q 838 144 796 207 q 868 99 853 121 q 899 53 883 76 q 909 36 901 47 q 914 15 917 25 q 893 2 910 3 q 860 1 876 1 l 749 1 q 719 1 735 1 q 693 3 704 0 q 657 31 669 10 q 632 72 644 53 q 577 158 604 115 q 522 244 550 201 q 510 263 515 254 q 499 282 506 272 q 490 296 494 289 q 481 310 486 303 q 471 319 476 314 q 456 322 465 325 q 441 313 446 319 q 431 299 436 306 q 415 274 422 286 q 399 249 407 261 q 340 160 369 204 q 283 72 311 117 q 259 32 272 54 q 222 3 246 10 q 197 1 211 0 q 171 1 183 1 l 79 1 q 50 1 65 1 q 25 6 35 0 q 21 10 22 8 q 17 15 19 13 q 23 41 15 31 q 38 63 31 51 q 67 106 53 85 q 96 149 81 126 q 176 270 136 210 q 257 393 217 331 q 281 428 268 411 q 304 464 293 446 q 319 486 311 475 q 331 513 328 497 q 329 533 333 524 q 321 547 325 542 q 301 579 311 564 q 281 610 292 594 q 267 631 274 621 q 253 651 260 640 q 195 737 224 694 q 136 822 167 779 q 123 843 129 833 q 110 864 117 853 q 92 889 100 876 q 76 913 85 901 q 64 929 69 921 q 53 946 58 938 q 45 963 50 953 q 46 981 40 972 q 63 989 50 986 q 68 990 65 990 q 74 990 71 989 z "},"Y":{"ha":926,"x_min":6,"x_max":924,"o":"m 40 992 l 163 992 q 197 992 179 992 q 226 986 215 992 q 252 960 242 979 q 272 926 263 940 q 317 851 296 889 q 361 776 338 814 q 394 720 379 749 q 428 664 410 692 q 442 640 435 653 q 464 624 449 626 q 481 631 474 622 q 492 644 488 639 q 515 683 504 664 q 538 722 525 703 q 594 817 567 769 q 651 914 622 865 q 675 956 663 932 q 707 988 688 979 q 747 993 719 994 q 793 992 774 992 l 871 992 q 894 991 882 992 q 913 986 906 990 q 918 965 924 979 q 908 943 913 950 q 876 888 892 915 q 843 833 860 861 q 752 683 796 758 q 663 533 708 608 q 634 488 647 511 q 607 442 621 465 q 587 411 596 426 q 572 376 578 396 q 572 363 571 369 q 571 350 572 357 q 569 340 569 346 q 569 329 569 335 l 569 286 l 569 106 q 570 49 569 79 q 554 8 571 18 q 533 3 546 3 q 507 3 519 3 l 410 3 q 382 4 394 3 q 363 14 369 6 q 356 33 356 22 q 354 60 356 44 l 354 114 l 354 294 l 354 347 q 354 365 354 356 q 351 381 354 374 q 336 418 346 401 q 315 450 326 435 q 290 494 303 472 q 264 538 278 515 q 244 570 253 553 q 225 603 236 588 q 156 717 189 660 q 88 831 122 774 q 56 884 71 858 q 25 938 40 910 q 13 956 21 943 q 11 979 6 969 q 19 987 14 985 q 29 990 24 989 q 35 991 32 992 q 40 992 38 990 z "},"Z":{"ha":900,"x_min":31,"x_max":867,"o":"m 113 990 l 669 990 l 790 990 q 827 988 811 990 q 849 971 843 986 q 853 942 853 961 q 853 908 853 922 q 854 888 853 899 q 853 871 856 878 l 853 854 q 849 822 853 836 q 834 799 843 808 q 817 778 825 789 q 793 749 806 763 q 769 719 781 735 q 763 713 767 717 q 757 706 760 708 q 738 682 747 693 q 718 658 728 671 q 713 653 715 656 q 708 647 711 650 q 688 623 699 635 q 668 599 678 611 q 602 519 636 558 q 536 440 568 481 q 529 432 533 436 q 522 425 525 428 q 492 388 507 406 q 461 350 476 369 q 452 340 457 344 q 444 331 447 336 q 412 292 429 311 q 379 253 394 272 q 360 232 371 242 q 347 207 350 222 q 350 192 344 196 q 363 185 356 188 q 375 182 367 185 l 393 182 q 403 181 397 181 q 415 182 410 182 l 461 182 l 744 182 l 811 182 q 836 181 825 182 q 854 175 847 181 q 865 156 863 168 q 867 128 867 143 l 867 53 q 865 28 867 40 q 856 10 863 15 q 831 2 846 3 q 799 1 815 1 l 682 1 l 215 1 l 101 1 q 72 1 88 1 q 49 7 57 0 q 33 31 39 13 q 32 51 31 40 q 33 74 33 63 q 33 126 33 97 q 39 174 32 156 q 56 200 46 189 q 76 222 67 211 q 105 258 90 242 q 133 293 119 274 q 142 303 138 299 q 150 311 147 307 q 171 337 161 325 q 192 361 181 349 q 197 367 194 364 q 201 374 199 371 q 256 438 228 407 q 310 504 285 469 q 327 524 318 515 q 344 544 336 533 q 351 552 347 549 q 358 560 356 556 q 383 590 369 575 q 408 622 397 606 q 419 634 414 629 q 429 644 425 639 q 470 694 449 671 q 511 744 492 718 q 524 759 518 751 q 535 776 531 767 q 540 784 538 779 q 539 794 542 789 q 524 807 536 806 q 497 810 511 808 l 413 810 l 182 810 q 158 809 172 810 q 131 808 144 808 q 106 810 118 808 q 89 815 94 811 q 78 835 81 821 q 74 866 75 849 q 74 901 74 883 q 75 932 75 919 q 76 957 75 944 q 82 978 76 969 q 101 989 86 986 q 107 990 104 990 q 113 990 110 989 z "},"[":{"ha":463,"x_min":96,"x_max":461,"o":"m 454 -112 q 460 -134 460 -121 q 460 -160 460 -147 q 459 -215 460 -189 q 436 -249 458 -242 q 422 -251 429 -251 q 406 -250 414 -250 l 186 -250 q 139 -251 165 -250 q 104 -239 113 -251 q 96 -210 96 -228 q 96 -172 96 -192 l 96 956 q 96 980 96 968 q 101 1000 96 992 q 119 1013 107 1007 q 132 1014 129 1013 l 356 1014 q 378 1015 365 1014 q 405 1015 392 1015 q 429 1014 418 1015 q 446 1008 440 1013 q 460 970 461 997 q 460 919 460 943 q 460 899 460 910 q 457 882 460 889 q 426 862 450 864 q 376 861 403 860 q 324 860 349 863 q 293 839 300 857 q 290 816 290 829 q 290 792 290 803 l 290 -33 q 291 -61 290 -47 q 297 -83 292 -75 q 336 -98 308 -99 q 389 -97 364 -97 q 401 -97 394 -97 q 411 -97 407 -96 l 426 -97 q 443 -103 436 -100 q 454 -112 450 -106 z "},"\\":{"ha":515,"x_min":-1,"x_max":517,"o":"m 503 50 q 509 33 506 43 q 515 13 513 24 q 515 -6 517 3 q 503 -18 513 -14 q 480 -22 493 -22 q 454 -22 467 -22 q 414 -22 435 -22 q 381 -15 393 -22 q 365 3 369 -8 q 354 29 360 15 q 337 78 344 53 q 318 128 329 103 q 295 188 306 157 q 272 249 285 219 q 267 263 269 256 q 263 276 265 269 q 245 322 253 299 q 228 368 238 346 q 224 380 225 375 q 219 390 222 385 q 202 440 210 414 q 183 489 194 465 q 133 624 156 556 q 82 760 110 693 q 77 774 79 767 q 72 789 75 782 q 51 843 61 815 q 31 897 42 871 q 25 915 28 906 q 18 932 22 924 q 10 953 14 943 q 3 975 7 964 q 0 985 1 978 q 1 997 -1 992 q 18 1011 6 1010 q 24 1012 21 1013 q 29 1014 26 1011 q 59 1015 43 1014 q 90 1015 75 1015 q 119 1011 106 1014 q 140 1003 132 1008 q 157 976 151 996 q 169 940 163 956 q 192 882 181 913 q 214 824 203 851 q 219 810 217 817 q 224 796 221 803 q 241 749 233 772 q 258 701 249 725 q 273 663 267 682 q 288 625 279 644 q 336 497 314 561 q 385 368 358 432 q 390 351 388 360 q 396 333 393 342 q 412 292 404 313 q 428 250 419 271 q 435 228 432 239 q 443 207 439 218 q 473 128 458 168 q 503 50 488 89 z "},"]":{"ha":463,"x_min":1,"x_max":367,"o":"m 8 876 q 3 898 3 885 q 3 924 3 911 q 2 952 3 938 q 3 979 1 967 q 10 1000 4 992 q 26 1013 15 1008 q 41 1015 33 1015 q 57 1014 49 1014 l 276 1014 q 324 1015 297 1014 q 358 1003 350 1015 q 367 974 367 992 q 367 936 367 956 l 367 -192 q 367 -216 367 -204 q 361 -236 367 -228 q 343 -249 356 -243 q 331 -250 333 -249 l 107 -250 q 84 -251 97 -250 q 58 -251 71 -251 q 33 -250 44 -251 q 17 -244 22 -249 q 2 -206 1 -233 q 3 -156 3 -179 q 3 -135 3 -146 q 6 -118 3 -125 q 36 -98 13 -100 q 87 -97 60 -96 q 138 -97 114 -99 q 169 -75 163 -94 q 172 -52 172 -65 q 172 -28 172 -39 l 172 797 q 172 825 172 811 q 165 847 171 839 q 126 862 154 863 q 74 861 99 861 q 62 860 68 861 q 51 861 56 860 l 36 861 q 19 867 26 864 q 8 876 13 869 z "},"^":{"ha":833,"x_min":103,"x_max":738,"o":"m 113 443 q 103 460 103 449 q 107 481 103 471 q 128 530 118 506 q 150 579 139 554 q 212 715 181 647 q 274 851 243 782 q 289 886 281 869 q 304 919 297 903 q 314 942 308 931 q 329 961 319 954 q 347 969 335 967 q 356 969 351 971 q 363 971 360 968 l 453 971 q 482 970 468 971 q 506 963 496 969 q 520 947 515 957 q 531 925 525 936 q 543 897 538 911 q 556 868 549 883 q 611 744 583 806 q 667 619 639 682 q 696 556 682 588 q 725 493 710 525 q 733 469 728 485 q 728 446 738 453 q 710 439 724 442 l 700 439 q 685 437 693 436 q 669 438 676 438 q 632 437 651 438 q 599 443 613 436 q 572 474 582 450 q 554 515 563 497 q 513 608 535 561 q 472 700 492 654 q 456 736 464 718 q 439 771 449 754 q 431 784 436 776 q 417 789 425 792 q 404 781 408 786 q 397 769 400 776 q 381 738 388 754 q 368 707 375 722 q 327 614 349 660 q 285 522 306 568 q 267 478 276 503 q 240 444 257 454 q 207 438 229 438 q 167 438 185 438 q 151 437 160 438 q 136 439 143 436 l 128 439 q 119 440 124 440 q 113 443 115 440 z "},"_":{"ha":694,"x_min":-3,"x_max":692,"o":"m 678 -110 q 687 -122 682 -112 q 689 -139 692 -131 q 676 -164 686 -158 q 654 -170 668 -169 q 626 -171 640 -171 l 69 -171 q 42 -171 57 -171 q 18 -167 28 -171 q 0 -140 3 -160 q 13 -110 -3 -119 q 20 -106 15 -107 q 29 -104 25 -106 q 36 -103 35 -104 l 631 -103 q 657 -103 644 -103 q 678 -110 669 -103 z "},"`":{"ha":360,"x_min":-32,"x_max":263,"o":"m -1 1001 l 92 1001 q 119 1001 106 1001 q 142 997 132 1001 q 165 980 157 992 q 181 957 174 968 q 202 926 192 942 q 224 894 213 910 q 242 869 232 882 q 258 842 251 857 q 262 829 261 836 q 260 817 263 822 q 240 807 254 810 l 232 807 q 219 806 226 806 q 206 807 213 807 q 177 807 190 807 q 153 811 164 807 q 130 825 139 817 q 110 842 121 833 l 103 849 q 65 883 82 864 q 26 918 47 903 q 18 926 22 922 q 10 936 14 931 q -3 948 3 942 q -17 961 -10 954 q -27 972 -22 967 q -32 988 -32 976 q -27 994 -29 992 q -21 999 -25 996 q -11 1000 -15 1000 q -1 1001 -7 1000 z "},"a":{"ha":797,"x_min":43,"x_max":729,"o":"m 725 56 q 728 25 728 40 q 714 4 729 10 q 694 0 706 0 q 672 0 683 0 l 597 0 q 573 1 585 0 q 554 7 561 1 q 540 23 544 13 q 526 40 535 33 q 519 45 524 43 q 508 46 515 47 q 495 39 501 43 q 482 32 489 35 q 467 22 475 26 q 450 14 458 18 q 413 1 432 6 q 372 -10 393 -4 q 353 -13 363 -12 q 335 -15 344 -14 q 326 -16 331 -15 q 318 -17 322 -17 l 303 -17 q 275 -17 289 -19 l 263 -17 q 244 -15 253 -14 q 226 -12 235 -15 q 200 -8 213 -10 q 176 0 188 -6 q 108 40 136 15 q 63 104 79 64 q 55 125 58 114 q 49 149 51 136 q 47 163 46 156 q 46 176 47 169 q 44 194 44 181 q 44 213 43 207 q 47 236 47 226 q 56 267 51 251 q 67 296 60 283 q 121 357 90 336 q 199 393 151 378 q 236 403 217 400 q 275 410 256 406 q 299 413 286 413 q 324 417 311 414 q 343 419 333 419 q 364 421 353 418 q 383 424 374 424 q 404 426 393 424 q 458 438 433 433 q 501 463 482 443 q 518 490 514 475 q 519 497 519 494 q 519 503 518 500 q 521 511 521 506 q 521 519 521 517 q 519 531 519 525 q 517 540 518 536 q 458 597 503 582 q 428 603 446 601 q 393 605 411 606 q 358 601 375 604 q 329 594 342 599 q 313 587 321 592 q 299 576 306 582 q 284 561 292 571 q 274 543 276 551 q 262 517 267 529 q 242 500 257 504 q 218 497 231 497 q 193 497 206 497 l 140 497 q 126 497 133 497 q 114 497 119 496 l 101 497 q 94 499 99 499 q 88 501 90 499 q 72 519 76 504 q 72 533 71 526 q 75 546 74 540 q 84 574 79 561 q 96 599 89 588 q 104 613 100 606 q 113 626 108 619 q 140 656 124 642 q 149 663 143 657 q 161 672 156 668 q 174 681 167 676 q 224 705 197 696 q 278 722 250 714 q 313 728 294 726 q 349 733 331 729 q 366 733 354 735 q 381 735 378 732 q 490 731 438 736 q 584 710 542 725 q 657 669 626 694 q 704 603 688 643 q 715 549 714 579 q 717 486 717 518 l 717 176 q 717 123 717 150 q 722 74 717 96 q 724 65 724 69 q 725 56 724 60 m 521 269 q 522 285 522 276 q 521 301 522 294 q 518 317 518 310 q 513 328 518 324 q 492 333 506 333 q 482 331 486 332 q 472 329 478 331 q 451 325 463 326 q 429 321 440 324 q 417 319 425 319 q 381 314 399 315 q 346 307 363 313 q 325 302 335 304 q 306 296 315 300 q 256 258 276 283 q 242 189 236 233 q 257 150 244 165 q 286 126 267 135 q 328 113 306 117 q 377 110 351 108 q 425 119 403 113 q 482 155 461 131 q 514 215 503 179 q 517 235 517 225 q 521 257 518 246 l 521 269 z "},"b":{"ha":849,"x_min":75,"x_max":797,"o":"m 794 394 q 797 366 797 386 q 796 338 797 346 q 795 326 796 331 q 794 314 794 321 q 792 292 792 303 q 789 271 792 282 q 786 251 789 265 q 778 217 782 235 q 768 185 775 200 q 706 76 743 122 q 607 4 668 31 q 581 -5 594 -1 q 553 -12 568 -8 q 535 -15 544 -15 q 518 -17 526 -15 l 506 -17 q 483 -19 497 -19 q 461 -15 469 -18 l 453 -15 q 438 -13 446 -14 q 421 -11 429 -12 q 372 3 394 -4 q 331 22 350 10 q 315 33 322 28 q 300 46 307 39 q 292 51 296 49 q 283 56 288 54 q 268 50 271 60 q 259 27 261 40 q 249 7 257 14 q 229 1 240 1 q 204 0 218 0 l 138 0 q 117 -1 128 0 q 99 1 107 -1 q 77 27 79 8 q 75 69 75 46 l 75 917 q 75 949 75 932 q 82 975 75 965 q 101 988 88 985 q 108 988 104 989 q 114 989 111 988 l 201 989 q 244 987 226 989 q 268 965 263 985 q 271 928 272 951 q 269 889 269 906 l 269 738 q 269 707 269 722 q 272 681 269 692 q 275 669 274 674 q 282 663 276 664 q 290 660 285 660 q 297 661 294 660 q 315 673 307 667 q 333 686 324 679 q 371 708 351 699 q 414 724 390 717 q 436 728 425 728 q 458 732 447 729 q 479 735 468 735 q 501 735 490 735 l 515 735 q 525 734 519 733 q 536 733 531 735 q 565 727 551 729 q 590 719 578 725 q 694 651 654 693 q 763 547 735 610 q 774 513 769 531 q 785 475 779 494 q 788 456 788 465 q 792 436 789 447 q 794 421 794 429 q 794 404 793 413 l 794 394 m 589 264 q 597 299 593 278 q 601 341 600 319 q 601 384 601 363 q 596 421 600 406 q 590 447 592 435 q 583 471 589 460 q 528 553 564 519 q 425 588 493 588 q 415 587 419 588 q 406 586 411 586 q 388 581 396 583 q 371 576 379 579 q 310 526 331 558 q 275 451 289 493 q 270 428 271 440 q 267 406 269 417 q 265 392 265 401 q 265 381 264 386 q 264 369 265 375 q 263 339 261 358 q 267 311 264 319 q 270 288 269 299 q 275 265 271 276 q 305 198 288 226 q 354 150 322 169 q 400 131 376 136 q 406 130 403 131 q 414 129 410 129 q 428 127 418 128 q 444 128 438 126 q 470 133 458 131 q 493 139 482 135 q 553 189 532 157 q 589 264 575 221 z "},"c":{"ha":797,"x_min":51,"x_max":753,"o":"m 403 736 q 591 703 515 739 q 711 600 667 667 q 744 524 733 567 q 749 506 747 517 q 749 486 751 494 q 729 469 743 471 q 696 467 715 467 l 624 467 q 598 467 611 467 q 576 472 585 467 q 561 490 565 478 q 550 514 557 501 q 532 542 542 529 q 510 564 522 554 q 467 583 490 576 q 450 586 458 586 q 435 589 442 586 l 421 589 q 376 583 393 589 q 311 545 336 571 q 271 483 286 519 q 260 451 264 468 q 253 414 257 433 q 251 403 251 408 q 250 392 251 397 q 248 353 247 378 q 251 314 249 328 q 253 299 251 303 q 256 279 256 289 q 260 260 257 269 q 286 201 271 228 q 325 157 301 175 q 342 147 331 153 q 373 135 357 138 q 413 129 389 132 q 421 129 415 129 q 429 131 426 129 l 442 131 q 460 135 451 133 q 478 140 469 138 q 542 193 519 158 q 551 209 547 200 q 558 225 556 218 q 568 252 564 240 q 588 271 572 264 q 628 276 600 276 q 674 275 656 275 q 694 276 683 275 q 711 274 704 276 l 722 274 q 733 272 728 272 q 742 268 739 271 q 751 252 749 263 q 750 231 753 242 q 719 149 738 185 q 538 0 663 42 q 508 -6 524 -4 q 478 -12 493 -8 q 461 -14 469 -14 q 444 -15 453 -14 l 429 -15 q 408 -17 422 -18 q 388 -15 394 -17 q 367 -13 376 -12 q 349 -11 358 -14 q 335 -9 342 -10 q 321 -7 328 -8 q 292 1 306 -3 q 265 11 278 6 q 156 83 200 39 q 83 192 111 126 q 72 219 76 204 q 64 249 68 233 q 63 259 63 254 q 60 271 63 264 q 57 291 57 281 q 54 311 57 301 l 54 335 q 51 351 51 342 q 54 367 51 360 q 54 379 56 374 q 54 390 53 385 q 56 408 57 400 q 58 425 56 417 q 69 473 65 450 q 82 518 74 496 q 159 636 113 589 q 278 713 206 683 q 318 724 297 721 q 361 733 339 728 q 382 735 372 735 q 403 736 392 735 z "},"d":{"ha":849,"x_min":46,"x_max":775,"o":"m 775 79 q 775 41 775 60 q 767 11 775 22 q 749 2 760 4 q 724 0 738 0 l 647 0 q 622 1 633 0 q 603 7 610 1 q 592 25 593 14 q 586 47 590 36 q 581 52 583 50 q 576 57 579 54 q 554 50 561 57 q 540 36 547 43 q 522 24 531 29 q 504 13 514 19 q 492 7 499 10 q 479 1 486 4 q 438 -11 460 -6 q 425 -14 431 -14 q 414 -15 419 -14 q 402 -16 407 -15 q 390 -17 397 -17 l 378 -17 q 353 -19 369 -19 q 329 -15 336 -18 q 312 -13 319 -12 q 296 -11 304 -14 q 263 -1 279 -6 q 232 11 247 4 q 145 76 183 32 q 85 168 107 119 q 74 198 78 183 q 64 228 69 213 q 63 238 63 233 q 60 250 63 243 q 55 274 57 261 q 50 301 53 288 q 49 311 49 306 q 49 321 50 317 q 49 334 49 328 q 47 347 49 340 q 46 363 46 354 q 47 378 46 372 q 49 391 49 385 q 49 404 49 397 q 49 417 50 411 q 51 431 49 424 q 56 460 54 446 q 63 488 58 474 q 72 519 68 504 q 83 550 76 535 q 132 629 103 592 q 140 637 135 633 q 147 644 144 640 q 158 657 153 651 q 171 668 164 663 q 181 676 176 671 q 190 683 185 681 q 271 722 225 707 q 291 726 281 725 q 313 731 301 728 q 338 734 322 733 q 368 735 353 735 q 398 733 383 735 q 422 729 413 732 q 463 717 443 722 q 499 701 482 711 q 517 688 508 694 q 535 675 525 682 q 551 664 540 671 q 571 664 561 657 q 576 674 576 667 q 579 688 576 681 l 579 701 q 581 711 581 706 q 581 722 581 717 l 581 911 q 580 945 581 926 q 586 974 579 964 q 607 988 592 985 q 613 988 610 989 q 618 989 615 988 l 717 989 q 747 988 733 989 q 768 976 761 986 q 775 948 775 965 q 775 914 775 931 l 775 79 m 586 351 q 587 363 588 357 q 586 375 586 369 q 585 403 586 389 q 581 428 583 417 q 576 456 578 443 q 568 479 574 468 q 512 558 549 529 q 406 588 475 588 q 383 585 397 588 q 363 580 372 582 q 346 574 354 578 q 288 526 308 558 q 254 454 267 494 q 249 426 250 440 q 243 397 247 413 l 243 378 q 242 344 240 365 q 246 313 243 322 q 247 305 246 308 q 247 299 247 301 q 252 278 250 288 q 257 257 254 268 q 338 150 281 185 q 388 131 356 138 q 404 129 393 129 q 417 127 408 128 q 432 128 426 126 q 454 132 443 131 q 476 138 465 133 q 532 176 511 153 q 568 236 553 200 q 576 262 574 249 q 582 290 579 275 q 583 303 583 297 q 585 317 582 310 q 586 326 586 321 q 586 339 586 332 l 586 351 z "},"e":{"ha":797,"x_min":40,"x_max":757,"o":"m 754 365 q 754 340 757 354 q 744 322 751 326 q 724 315 738 317 q 695 312 711 313 q 663 312 679 311 q 635 313 647 313 l 296 313 q 277 313 286 313 q 261 310 268 313 q 247 299 250 304 q 242 288 244 296 q 240 274 239 281 q 244 258 243 265 q 247 242 244 250 q 274 187 258 208 q 318 149 290 165 q 341 140 329 142 q 365 133 353 138 q 396 129 376 131 q 429 131 415 128 l 442 131 q 467 137 456 133 q 490 144 479 140 q 522 163 504 151 q 547 185 539 174 q 562 203 554 194 q 581 217 569 213 q 616 223 594 224 q 656 222 638 222 q 673 223 664 222 q 689 221 682 224 l 703 221 q 722 214 717 218 q 728 201 728 211 q 726 185 729 192 q 711 150 719 165 q 692 119 703 135 q 622 46 661 74 q 525 -1 583 18 q 494 -8 510 -7 q 463 -14 479 -10 q 451 -15 457 -15 q 439 -15 444 -14 l 424 -15 q 408 -17 417 -18 q 392 -15 399 -17 q 372 -15 381 -14 q 354 -14 364 -17 q 339 -11 347 -11 q 324 -8 331 -11 q 293 -2 308 -6 q 265 8 278 1 q 237 19 250 14 q 213 31 224 24 q 133 95 168 58 q 76 181 99 132 q 65 212 69 196 q 54 244 61 228 q 53 255 53 250 q 51 265 53 260 q 44 301 46 282 q 42 340 43 321 q 41 356 42 347 q 42 371 40 364 l 42 388 l 46 421 q 56 467 51 444 q 68 508 60 489 q 271 713 128 653 q 310 724 290 721 q 353 733 331 728 q 374 735 364 735 q 394 736 383 735 q 516 720 465 738 q 607 675 567 703 q 632 656 619 667 q 654 635 644 646 q 665 624 658 628 q 686 592 676 608 q 707 560 696 576 q 719 534 714 547 q 729 506 724 521 q 740 468 736 488 q 750 429 744 449 q 752 405 753 418 q 754 381 751 392 l 754 365 m 546 447 q 548 481 556 461 q 536 511 540 501 q 485 569 517 549 q 396 590 453 589 q 386 589 392 588 q 376 589 381 590 q 361 585 369 586 q 346 582 353 585 q 256 506 285 563 q 249 491 253 500 q 244 473 246 482 q 245 456 243 464 q 254 442 247 447 q 285 435 265 435 q 322 435 304 435 l 476 435 q 517 435 496 435 q 546 447 539 436 z "},"f":{"ha":463,"x_min":-1,"x_max":461,"o":"m 347 990 q 376 990 360 990 q 408 989 392 990 q 436 984 424 988 q 453 974 449 981 q 461 942 461 963 q 461 904 461 922 q 460 876 461 890 q 454 856 460 863 q 440 845 449 847 q 422 843 432 843 q 401 844 411 843 q 381 843 390 844 q 342 830 356 838 q 319 799 328 822 q 317 791 317 794 q 317 783 318 788 q 314 767 315 778 q 314 749 313 756 q 321 732 317 739 q 333 721 325 725 q 367 717 347 714 q 403 717 386 719 q 415 716 410 715 q 425 715 419 717 q 443 703 438 710 q 447 690 446 699 q 450 670 449 681 q 451 649 451 660 q 449 633 450 639 q 449 623 447 628 q 447 613 450 618 q 431 592 444 596 q 404 587 419 586 q 374 588 389 588 q 364 588 369 588 q 354 586 358 588 l 343 586 q 314 556 319 581 q 313 536 311 547 q 314 514 314 525 l 314 429 l 314 158 l 314 93 q 315 76 314 85 q 313 60 315 67 l 313 44 q 306 13 313 22 q 296 6 303 8 q 282 1 289 4 l 275 1 q 260 1 268 0 q 244 1 251 1 l 183 1 q 163 1 174 1 q 146 3 153 0 q 124 17 129 7 q 119 35 119 24 q 118 57 118 46 l 118 129 l 118 518 q 115 559 118 542 q 96 583 113 576 q 58 587 81 590 q 21 590 36 583 q 1 614 6 597 q -1 631 -1 621 q 0 650 0 640 q 3 692 0 675 q 26 715 6 708 q 50 718 38 718 q 74 718 63 718 q 96 720 86 718 q 111 731 106 722 q 119 766 121 744 q 121 807 117 788 q 123 818 122 813 q 125 831 124 824 q 136 866 131 850 q 151 896 142 882 q 203 949 171 929 q 275 981 235 969 q 299 985 286 985 q 324 989 311 986 q 336 989 328 990 q 347 990 344 988 z "},"g":{"ha":849,"x_min":53,"x_max":764,"o":"m 753 708 q 763 685 763 701 q 764 653 764 669 l 764 60 q 763 38 764 49 q 763 17 763 28 q 760 -3 761 6 q 758 -24 760 -12 q 749 -60 753 -43 q 739 -93 746 -78 q 678 -181 715 -146 q 589 -237 642 -215 q 558 -249 574 -244 q 526 -257 543 -253 q 496 -262 511 -261 q 465 -267 481 -264 q 454 -267 460 -267 q 442 -268 449 -268 q 429 -269 436 -269 q 415 -269 422 -268 q 397 -271 408 -271 q 379 -269 386 -271 q 367 -269 372 -269 q 356 -268 361 -269 q 333 -265 344 -265 q 311 -262 321 -265 q 304 -261 308 -261 q 297 -260 300 -261 q 270 -253 283 -257 q 244 -244 257 -250 q 150 -188 192 -222 q 89 -97 108 -154 q 86 -89 86 -93 q 85 -82 86 -85 q 88 -55 81 -64 q 110 -43 96 -46 q 141 -41 124 -40 q 174 -42 158 -42 l 221 -42 q 233 -42 228 -42 q 244 -43 238 -43 q 272 -58 267 -49 q 289 -82 278 -67 q 301 -96 293 -87 q 304 -100 303 -99 q 307 -104 306 -101 q 331 -119 318 -112 q 358 -132 343 -126 q 378 -135 368 -135 q 399 -139 388 -136 l 414 -139 q 439 -140 424 -142 q 463 -135 454 -137 q 474 -132 469 -132 q 485 -129 479 -132 q 533 -96 514 -117 q 565 -47 553 -75 q 569 -31 568 -39 q 574 -12 571 -22 q 577 15 576 0 q 578 44 578 29 q 578 56 578 50 q 578 65 579 61 q 576 78 575 72 q 574 89 576 83 q 570 93 572 92 q 565 97 568 94 q 545 92 553 99 q 531 79 538 85 q 506 61 518 69 q 478 46 493 53 q 447 35 463 39 q 415 26 432 31 q 399 24 407 25 q 385 22 392 24 q 363 21 378 21 q 340 22 347 21 l 329 22 q 320 24 325 24 q 310 25 315 24 q 272 33 290 29 q 239 43 254 36 q 142 109 179 67 q 81 211 106 151 q 71 243 74 226 q 63 276 68 260 q 61 288 63 283 q 58 312 58 299 q 56 336 58 325 q 54 349 54 343 q 54 363 54 356 q 53 380 53 369 q 54 397 53 390 l 54 411 q 55 422 56 417 q 57 433 54 428 q 61 460 60 447 q 65 488 63 474 q 83 540 74 515 q 106 588 92 565 q 122 613 113 601 q 140 638 131 625 q 152 651 144 644 q 167 664 160 658 l 175 672 q 189 683 182 678 q 203 692 196 688 q 240 711 221 703 q 283 726 260 719 q 306 731 294 731 q 329 735 318 732 q 344 735 335 736 q 357 736 354 733 q 437 728 401 738 q 500 700 472 718 q 508 694 504 697 q 518 686 513 690 q 533 672 526 679 q 550 660 540 665 q 558 657 553 658 q 565 658 563 656 q 574 668 572 661 q 578 682 575 675 q 583 697 581 689 q 590 710 585 704 q 610 716 599 715 q 635 717 622 717 l 706 717 q 733 716 721 717 q 753 708 744 715 m 563 279 q 572 311 568 292 q 578 352 576 331 q 578 394 579 374 q 574 432 578 415 q 572 441 571 438 q 571 450 572 444 q 565 469 568 460 q 558 488 563 479 q 503 563 539 536 q 397 589 467 589 q 390 587 394 586 q 381 586 385 588 q 363 581 371 583 q 346 576 354 579 q 290 531 310 561 q 258 463 271 500 q 256 451 256 456 q 254 440 256 447 q 249 396 250 425 q 251 349 247 367 l 251 335 q 256 313 254 324 q 260 292 257 303 q 290 228 272 256 q 340 185 308 201 q 379 171 354 178 q 394 169 389 171 q 403 169 397 169 q 411 169 408 168 l 425 169 q 449 174 438 172 q 471 181 460 175 q 527 219 506 194 q 563 279 549 244 z "},"h":{"ha":824,"x_min":74,"x_max":749,"o":"m 114 989 l 208 989 q 235 989 222 989 q 257 982 249 989 q 269 958 267 976 q 270 945 269 951 q 271 932 271 939 l 271 882 l 271 722 q 270 700 271 713 q 271 676 269 688 q 277 656 272 664 q 292 649 282 649 q 297 651 294 651 q 303 654 300 651 q 321 670 313 661 q 340 686 329 679 q 372 706 356 697 q 408 722 389 714 q 419 725 414 725 q 432 728 425 725 q 461 733 446 732 q 494 735 476 735 q 508 735 501 735 q 521 733 514 735 l 529 733 q 548 731 539 732 q 567 728 557 729 q 610 713 590 721 q 650 694 631 706 q 699 645 681 675 q 731 579 718 615 q 735 556 733 568 q 740 533 738 544 q 743 507 743 521 q 746 479 743 493 l 746 464 q 747 440 749 453 q 746 415 746 426 l 746 317 l 746 100 q 747 50 746 76 q 738 10 749 24 q 715 1 731 1 q 685 0 700 0 l 615 0 q 578 2 593 0 q 556 19 563 4 q 551 40 551 28 q 551 63 551 51 l 551 142 l 551 364 q 546 472 551 422 q 511 549 540 521 q 464 576 492 568 q 455 578 458 578 q 446 579 451 578 q 431 582 440 581 q 417 581 422 583 q 399 579 408 579 q 382 576 390 579 q 326 551 350 568 q 290 499 301 532 q 274 426 278 467 q 270 339 269 385 q 271 250 271 293 l 271 82 q 271 44 271 64 q 264 13 271 24 q 253 5 260 7 q 239 0 246 3 q 220 -1 231 -3 q 200 0 210 0 q 171 -1 188 0 q 138 -1 154 -1 q 107 1 121 -1 q 86 8 93 3 q 77 30 78 15 q 76 60 76 44 l 76 183 l 76 706 l 76 894 q 75 938 76 913 q 81 974 74 963 q 103 988 89 983 q 108 988 106 989 q 114 989 111 988 z "},"i":{"ha":358,"x_min":81,"x_max":276,"o":"m 267 981 q 276 947 276 969 q 276 904 276 925 q 276 867 276 886 q 267 840 276 847 q 245 832 258 833 q 217 831 232 831 l 139 831 q 112 832 124 831 q 92 840 100 833 q 84 856 86 844 q 81 883 82 868 q 81 913 81 897 q 82 939 82 928 q 83 959 82 950 q 88 975 83 968 q 95 983 90 981 q 106 989 100 986 q 113 990 108 989 q 119 990 117 990 l 221 990 q 247 989 235 990 q 267 981 260 988 m 276 76 q 275 29 276 49 q 250 3 274 10 q 232 1 242 0 q 211 1 222 1 l 133 1 q 109 3 121 1 q 92 11 97 4 q 83 35 83 21 q 82 67 82 50 l 82 653 q 82 681 82 667 q 88 703 82 694 q 111 715 96 713 q 119 716 114 717 q 126 717 124 715 l 196 717 q 215 717 204 717 q 232 717 225 718 l 243 717 q 258 713 251 714 q 269 704 265 711 q 276 685 275 697 q 276 658 276 672 l 276 76 z "},"j":{"ha":386,"x_min":-25,"x_max":290,"o":"m 149 831 q 122 832 135 831 q 103 842 110 833 q 95 859 97 847 q 93 884 93 871 q 94 911 93 897 q 94 936 94 925 q 95 958 94 947 q 100 976 96 969 q 108 983 103 981 q 117 989 113 986 q 123 990 119 989 q 129 990 126 990 l 226 990 q 255 990 242 990 q 276 983 268 990 q 289 948 289 974 q 289 900 289 922 q 290 885 289 893 q 288 869 290 876 l 288 861 q 278 839 285 846 q 256 831 269 832 q 228 831 243 831 l 149 831 m 289 28 q 287 -77 289 -26 q 264 -161 285 -128 q 222 -207 246 -189 q 164 -236 199 -225 q 139 -242 151 -240 q 114 -246 126 -243 q 94 -247 104 -247 q 75 -249 85 -247 l 60 -249 q 34 -251 51 -251 q 10 -249 17 -251 q -19 -232 -11 -244 q -23 -215 -22 -225 q -24 -194 -24 -206 q -24 -172 -24 -185 q -25 -147 -25 -160 q -24 -124 -25 -135 q -19 -106 -22 -112 q 6 -91 -12 -90 q 42 -86 24 -92 q 92 -33 82 -76 q 92 -22 93 -28 q 93 -10 92 -17 q 95 8 96 -1 q 94 28 94 18 l 94 642 q 94 674 94 657 q 100 703 93 692 q 122 717 106 713 q 131 716 125 717 q 139 718 136 715 l 208 718 q 226 719 217 718 q 243 717 236 719 l 256 717 q 270 713 263 714 q 281 704 278 711 q 287 686 285 697 q 290 661 289 675 q 290 633 290 647 q 289 608 289 619 l 289 28 z "},"k":{"ha":797,"x_min":92,"x_max":779,"o":"m 129 990 l 231 990 q 258 989 246 990 q 278 981 271 988 q 288 940 289 968 q 288 889 288 913 l 288 654 l 288 569 q 286 549 288 560 q 288 528 285 538 l 288 515 q 292 501 290 508 q 300 490 293 493 q 311 490 304 488 q 321 494 318 492 q 345 517 335 504 q 367 540 356 529 q 390 563 378 551 q 413 589 403 575 q 422 597 417 592 q 436 612 429 604 q 450 626 443 619 l 482 658 q 490 667 485 664 q 499 676 494 671 q 523 701 510 690 q 556 715 536 711 q 575 717 563 717 q 586 717 581 718 q 599 717 592 717 l 644 717 q 672 718 656 717 q 699 717 688 719 l 714 717 q 728 713 721 714 q 738 707 735 713 q 738 696 740 703 q 733 686 736 689 q 713 662 725 672 q 689 640 700 651 q 670 621 679 631 q 650 603 661 611 q 638 591 643 597 q 626 579 633 585 q 614 568 619 575 q 601 556 608 561 l 549 503 q 531 487 539 494 q 517 468 524 479 q 511 458 514 464 q 511 444 508 451 q 522 419 514 429 q 536 399 529 410 q 556 368 547 383 q 576 338 565 353 l 722 117 q 749 78 736 97 q 774 39 763 58 q 778 22 778 32 q 772 7 779 13 q 761 4 767 4 q 749 1 756 4 q 736 1 743 0 q 722 1 729 1 l 668 1 q 615 1 646 1 q 569 7 585 0 q 543 33 554 14 q 522 67 532 51 q 475 142 499 104 q 428 218 451 181 q 406 254 417 236 q 383 289 396 272 q 374 300 381 293 q 358 304 367 307 q 340 296 346 301 q 326 283 333 290 q 306 264 315 275 q 290 238 296 253 q 288 213 288 226 q 288 188 288 200 l 288 101 q 288 80 288 92 q 289 56 289 68 q 288 33 289 43 q 282 17 286 22 q 265 5 276 8 q 238 1 253 1 q 206 1 222 0 q 176 1 189 1 q 143 1 161 1 q 114 4 125 0 q 94 29 96 11 q 93 71 93 47 l 93 231 l 93 788 l 93 917 q 92 949 93 932 q 97 975 92 965 q 117 989 103 985 q 123 990 119 989 q 129 990 126 990 z "},"l":{"ha":358,"x_min":81,"x_max":278,"o":"m 119 990 l 221 990 q 247 989 235 990 q 267 981 260 988 q 276 955 275 971 q 276 922 276 939 l 276 799 l 276 300 l 276 88 q 277 49 276 71 q 271 17 278 28 q 246 1 264 6 q 227 0 238 -1 q 207 1 217 1 l 140 1 q 113 3 125 1 q 92 11 100 4 q 83 33 83 18 q 82 63 82 47 l 82 186 l 82 707 l 82 896 q 81 939 82 914 q 88 975 81 964 q 95 983 90 981 q 106 989 100 986 q 113 990 108 989 q 119 990 117 990 z "},"m":{"ha":1258,"x_min":82,"x_max":1178,"o":"m 485 735 q 575 724 536 736 q 643 689 614 711 q 663 669 654 681 q 683 647 672 658 q 692 640 686 644 q 706 638 699 635 q 735 658 721 642 q 761 682 749 674 q 803 708 781 697 q 853 728 825 718 q 880 733 864 731 q 913 735 896 735 q 947 735 931 736 q 975 731 963 733 q 988 729 982 729 q 1000 726 993 729 q 1038 715 1019 721 q 1071 700 1056 710 q 1158 594 1129 664 q 1167 569 1164 582 q 1172 543 1169 556 q 1174 525 1174 533 q 1176 508 1175 517 l 1176 494 q 1177 475 1178 486 q 1176 454 1176 464 l 1176 374 l 1176 103 q 1177 77 1176 92 q 1177 49 1178 63 q 1174 24 1176 36 q 1165 8 1171 13 q 1144 1 1157 1 q 1115 0 1131 0 l 1042 0 q 1007 3 1022 0 q 986 18 992 6 q 982 40 982 28 q 982 63 982 51 l 982 140 l 982 328 l 982 386 q 983 401 982 393 q 981 417 983 410 l 981 428 q 981 444 981 436 q 979 461 981 453 q 978 473 978 467 q 976 485 978 479 q 965 522 971 506 q 946 550 958 538 q 899 578 926 569 q 889 578 893 579 q 879 581 885 578 q 866 583 874 582 q 851 582 858 583 q 835 579 843 579 q 818 576 826 579 q 760 535 778 563 q 731 455 736 503 q 726 350 726 407 l 726 167 l 726 64 q 726 36 726 50 q 719 14 726 22 q 699 2 713 4 q 669 0 686 0 l 594 0 q 570 1 582 0 q 550 4 558 1 q 534 26 536 11 q 532 61 532 42 l 532 179 l 532 397 q 529 474 532 438 q 511 533 526 510 q 483 563 500 553 q 440 579 465 572 q 429 580 435 581 q 417 581 424 579 q 388 578 401 583 q 382 577 385 578 q 376 576 379 576 q 333 553 354 569 q 299 515 311 536 q 283 466 288 493 q 277 407 278 439 q 276 338 276 375 l 276 150 l 276 65 q 276 40 276 53 q 272 18 276 28 q 251 3 267 6 q 217 0 236 0 l 144 0 q 117 1 131 0 q 96 7 104 1 q 83 33 83 14 q 82 72 82 51 l 82 235 l 82 574 l 82 657 q 83 684 82 672 q 89 704 83 696 q 111 715 96 713 l 119 715 q 134 717 126 717 q 149 717 142 717 l 206 717 q 227 716 217 717 q 246 713 238 715 q 260 699 257 708 q 267 676 264 689 q 267 669 268 672 q 269 663 267 665 q 273 656 271 658 q 278 651 275 654 q 306 662 294 650 q 326 681 317 674 q 366 706 346 694 q 410 724 386 717 q 435 729 422 728 q 461 733 447 731 q 474 734 465 735 q 485 735 482 733 z "},"n":{"ha":824,"x_min":75,"x_max":746,"o":"m 482 735 q 621 711 565 738 q 708 633 676 685 q 724 601 718 618 q 735 565 729 583 q 738 544 738 554 q 742 525 739 535 q 743 514 742 517 q 746 474 746 494 q 746 433 746 453 l 746 310 l 746 85 q 745 34 746 58 q 725 3 744 10 q 706 0 717 0 q 683 0 694 0 l 608 0 q 578 2 592 0 q 558 14 565 4 q 552 35 553 22 q 551 64 551 49 l 551 161 l 551 368 q 547 463 551 419 q 522 538 543 507 q 465 576 503 565 q 451 579 458 579 q 435 582 443 579 q 417 583 428 583 q 401 581 407 582 q 392 579 396 579 q 383 578 388 579 q 332 556 351 569 q 279 463 288 524 q 271 325 271 401 l 271 151 l 271 67 q 271 42 271 54 q 267 21 271 29 q 244 3 260 6 q 207 0 229 0 l 138 0 q 107 1 122 0 q 85 11 92 3 q 76 47 75 24 q 76 92 76 71 l 76 281 l 76 586 l 76 657 q 77 685 76 672 q 85 706 78 697 q 94 712 88 710 q 107 715 100 714 l 114 715 q 128 717 121 717 q 143 717 136 717 l 201 717 q 223 716 213 717 q 242 713 233 715 q 255 700 251 708 q 261 681 258 692 q 262 671 263 675 q 264 663 261 667 q 269 654 267 656 q 275 650 271 653 q 300 660 290 649 q 321 679 310 672 q 404 724 358 707 q 430 729 417 728 q 458 733 443 731 q 471 734 463 735 q 482 735 479 733 z "},"o":{"ha":849,"x_min":50,"x_max":794,"o":"m 792 388 q 794 364 794 379 q 792 340 794 349 l 792 326 q 790 304 789 315 q 788 282 790 293 q 783 264 785 272 q 781 246 782 256 q 771 215 775 231 q 760 185 767 199 q 683 76 731 118 q 569 7 636 35 q 535 -3 553 0 q 500 -11 518 -7 q 485 -14 493 -14 q 469 -15 476 -14 q 460 -16 465 -15 q 451 -17 456 -17 q 429 -19 444 -18 q 406 -17 414 -19 l 392 -17 q 377 -16 385 -15 q 363 -14 369 -17 q 352 -12 357 -12 q 340 -11 347 -12 q 313 -4 326 -7 q 286 4 299 -1 q 255 15 269 10 q 225 29 240 21 q 142 97 176 58 q 83 190 107 136 q 73 217 76 203 q 65 246 69 231 q 63 258 63 253 q 60 271 63 264 q 57 294 57 282 q 54 317 57 306 q 53 329 53 324 q 53 342 53 335 q 51 365 50 350 q 54 389 51 381 l 54 399 q 55 413 56 406 q 57 428 54 421 q 58 441 58 435 q 61 454 58 447 q 71 490 67 472 q 82 524 75 507 q 142 619 107 581 q 226 689 176 657 q 256 701 240 696 q 286 714 271 707 q 324 724 304 721 q 364 732 343 726 q 385 733 375 733 q 404 735 394 733 q 544 718 485 736 q 649 668 603 700 q 680 644 664 657 q 707 615 696 631 q 727 588 718 601 q 746 558 736 574 q 761 526 756 543 q 774 489 767 508 q 781 465 778 478 q 786 440 783 453 q 788 429 788 435 q 789 418 788 424 q 790 403 792 411 q 792 388 789 394 m 597 338 q 599 358 599 344 q 597 378 599 371 l 597 389 q 594 404 594 396 q 593 419 594 413 q 592 428 593 425 q 587 451 589 439 q 581 474 585 463 q 544 535 565 510 q 489 576 524 561 q 472 581 481 579 q 454 586 464 583 q 431 588 443 589 q 406 588 418 588 q 396 585 401 585 q 386 585 390 586 q 367 580 376 582 q 351 574 358 578 q 295 530 317 558 q 261 464 274 501 q 255 435 257 450 q 250 404 253 419 q 249 390 249 397 q 249 376 249 383 q 247 347 246 367 q 250 318 247 328 l 250 306 q 254 284 253 294 q 258 263 256 274 q 288 195 272 221 q 339 149 304 169 q 360 138 349 142 q 385 131 372 133 q 394 130 390 129 q 404 129 399 131 q 416 127 410 128 q 428 128 422 126 l 439 128 q 461 132 450 131 q 482 138 472 133 q 540 175 518 151 q 578 233 563 199 q 586 261 583 247 q 593 290 589 275 q 594 301 594 296 q 596 311 594 306 q 596 324 596 318 q 597 338 596 331 z "},"p":{"ha":849,"x_min":74,"x_max":804,"o":"m 803 367 q 804 342 804 358 q 801 318 804 325 l 801 300 q 797 271 797 285 q 792 243 796 257 q 786 217 789 231 q 778 192 783 204 q 758 148 768 168 q 736 108 749 128 q 719 85 728 96 q 699 64 710 75 l 689 54 q 674 42 682 47 q 660 31 667 36 q 635 16 649 22 q 608 3 622 10 q 580 -7 594 -4 q 550 -12 565 -10 q 533 -15 542 -15 q 514 -18 524 -15 l 501 -18 q 481 -18 490 -21 l 467 -18 q 449 -16 458 -15 q 432 -14 440 -17 q 390 -1 410 -7 q 353 15 369 4 q 335 27 343 21 q 317 40 326 33 q 300 53 311 44 q 281 54 289 61 q 274 44 274 50 q 271 29 274 38 q 269 -3 268 15 q 269 -36 269 -21 l 269 -178 q 269 -213 269 -196 q 261 -242 268 -231 q 246 -250 257 -247 q 221 -253 235 -253 q 193 -253 207 -254 q 169 -253 179 -253 l 132 -253 q 122 -253 128 -253 q 113 -251 117 -253 l 101 -251 q 76 -224 78 -244 q 75 -176 75 -204 l 75 639 q 74 672 75 654 q 81 699 74 689 q 96 711 86 708 q 113 714 103 714 q 133 714 124 714 l 200 714 q 226 714 214 714 q 247 707 239 714 q 258 690 257 700 q 264 668 258 679 q 267 662 265 664 q 272 657 269 660 q 297 665 288 656 q 317 682 307 675 q 354 705 335 694 q 397 722 374 715 q 422 728 408 726 q 447 732 435 729 q 459 732 453 733 q 469 733 465 731 q 603 712 549 736 q 697 649 658 688 q 710 635 704 642 q 721 622 715 629 q 738 597 731 610 q 753 572 746 585 q 756 565 756 569 q 760 556 757 561 q 775 522 768 542 q 781 505 778 514 q 786 486 783 496 q 794 451 792 469 q 800 414 796 433 q 801 399 800 407 q 803 382 801 390 l 803 367 m 607 335 q 608 353 608 342 q 607 372 608 365 l 607 385 q 604 403 604 393 q 601 422 604 413 q 596 449 599 436 q 588 474 593 463 q 544 544 571 518 q 469 583 518 571 q 445 586 458 586 q 419 586 432 586 q 410 585 414 585 q 400 583 406 585 q 381 578 390 581 q 364 572 372 576 q 308 525 328 557 q 275 454 288 493 q 271 431 272 443 q 267 408 269 419 q 265 390 265 403 q 264 377 263 385 q 264 363 265 369 q 264 347 261 354 l 264 331 q 264 318 264 324 q 267 307 264 313 q 268 292 267 297 q 271 275 269 283 q 275 258 272 267 q 305 192 288 218 q 354 147 322 167 q 400 129 374 136 q 410 128 406 128 q 419 128 414 129 q 436 126 425 126 q 454 126 447 125 q 477 131 465 129 q 500 138 489 133 q 554 176 533 151 q 589 235 575 201 q 599 269 596 251 q 606 307 601 288 q 606 321 606 314 q 607 335 607 328 z "},"q":{"ha":849,"x_min":43,"x_max":774,"o":"m 772 -171 q 772 -215 772 -193 q 757 -244 771 -236 q 725 -251 746 -251 q 686 -250 704 -250 q 658 -251 674 -250 q 627 -251 642 -251 q 601 -247 613 -250 q 583 -235 589 -243 q 577 -203 576 -224 q 578 -167 578 -183 l 578 -15 q 578 19 578 0 q 574 49 578 39 q 569 53 571 51 q 564 58 567 56 q 544 53 551 60 q 529 42 538 47 q 503 24 517 32 q 475 8 490 15 q 419 -9 450 -3 q 357 -16 389 -15 q 294 -11 325 -17 q 238 6 263 -6 q 136 77 175 33 q 71 185 97 121 q 61 216 64 200 q 54 247 58 232 q 52 258 51 253 q 51 268 53 263 q 48 292 49 279 q 44 318 47 306 l 44 336 q 43 353 43 343 q 44 371 43 364 q 46 383 46 378 q 46 396 46 389 q 47 410 47 403 q 49 424 46 417 q 53 449 51 436 q 57 475 54 463 q 72 519 64 499 q 88 560 79 540 q 108 597 96 579 q 133 632 121 615 q 161 660 146 647 q 167 667 165 664 q 179 676 174 671 q 190 685 185 681 q 231 708 210 699 q 276 725 253 717 q 301 731 289 729 q 326 735 314 732 q 342 735 331 736 q 356 736 353 733 q 439 728 400 738 q 506 703 478 719 q 522 692 514 697 q 538 681 531 686 q 552 667 546 674 q 574 661 558 661 q 578 666 576 664 q 583 671 581 668 q 589 692 588 682 q 600 710 590 703 q 620 716 607 715 q 647 717 633 717 l 714 717 q 733 717 724 717 q 751 714 743 717 q 767 701 761 711 q 773 675 774 692 q 772 643 772 658 l 772 -171 m 583 349 q 584 356 585 351 q 583 363 583 360 q 582 389 582 376 q 579 413 582 401 q 578 420 578 417 q 578 428 579 424 q 573 448 575 439 q 568 467 571 457 q 531 536 554 507 q 469 581 507 565 q 437 588 454 588 q 400 589 419 589 q 390 587 396 586 q 379 586 385 588 q 363 581 371 583 q 347 576 354 579 q 284 524 307 558 q 249 443 261 489 q 245 423 246 432 q 242 403 244 414 q 240 389 242 393 q 238 365 239 382 q 240 340 238 347 l 240 328 q 242 317 242 322 q 243 307 242 311 q 244 300 243 304 q 244 293 244 296 q 249 272 247 282 q 254 253 250 263 q 283 193 265 218 q 329 150 301 168 q 372 133 349 139 q 380 132 376 132 q 389 131 383 132 q 402 128 393 129 q 418 129 411 128 q 426 130 421 131 q 435 131 431 129 q 453 135 444 133 q 472 139 463 136 q 530 179 508 154 q 567 240 551 204 q 574 264 571 251 q 579 289 576 276 q 580 299 579 294 q 581 308 581 303 q 583 332 583 322 l 583 349 z "},"r":{"ha":540,"x_min":75,"x_max":538,"o":"m 482 735 q 509 732 497 735 q 528 719 521 729 q 536 681 536 708 q 536 633 536 654 q 537 599 536 618 q 532 568 538 579 q 516 556 526 558 q 492 553 506 553 q 465 554 479 553 q 438 553 450 556 q 418 549 428 550 q 400 546 408 549 q 356 526 378 539 q 321 496 333 513 q 306 473 314 485 q 292 449 299 461 q 284 426 288 438 q 278 403 281 414 q 275 383 275 393 q 272 363 275 372 q 272 352 271 357 q 271 343 272 347 l 271 321 q 269 299 268 311 q 271 276 271 288 l 271 188 l 271 69 q 269 36 271 51 q 261 11 268 21 q 252 5 258 7 q 239 1 246 3 l 232 1 q 217 0 225 0 q 201 0 208 0 l 142 0 q 124 1 133 1 q 106 1 115 1 q 92 6 99 4 q 82 15 85 8 q 76 35 76 22 q 75 63 75 49 l 75 157 l 75 549 l 75 651 q 75 678 75 665 q 81 700 75 692 q 101 714 88 711 q 135 717 115 717 l 206 717 q 235 715 222 717 q 254 701 247 713 q 259 682 258 694 q 261 658 260 669 q 266 636 263 646 q 279 626 269 626 q 285 629 282 629 q 290 632 288 629 q 305 648 299 639 q 321 664 311 657 q 331 673 326 668 q 340 682 335 678 q 366 699 353 690 q 393 714 379 707 q 422 724 407 719 q 451 732 436 728 q 467 733 456 733 q 482 735 479 732 z "},"s":{"ha":746,"x_min":46,"x_max":706,"o":"m 347 736 q 528 713 451 739 q 646 625 606 688 q 663 594 656 610 q 676 558 671 578 q 679 540 679 550 q 676 524 679 531 q 661 513 671 515 q 644 510 654 510 q 625 510 635 510 l 564 510 q 544 509 554 510 q 526 511 535 508 q 506 522 513 514 q 493 540 499 531 q 483 559 488 549 q 468 576 478 569 q 441 593 454 588 q 408 603 428 599 q 380 607 399 606 q 351 606 361 608 l 342 606 q 328 603 335 604 q 315 601 322 603 q 277 583 292 594 q 257 547 263 571 q 257 529 254 538 q 263 515 260 521 q 285 489 272 499 q 317 472 299 479 q 374 453 343 461 q 438 440 406 446 q 502 426 471 433 q 561 407 533 418 q 585 398 574 401 q 608 388 597 394 q 656 351 635 371 q 690 303 678 332 q 697 283 694 293 q 703 263 700 274 q 705 237 704 254 q 704 210 706 219 l 704 203 q 701 187 701 194 q 699 172 700 179 q 668 99 689 131 q 614 44 646 65 q 542 8 582 24 q 509 -1 526 1 q 475 -8 492 -4 q 449 -12 463 -11 q 424 -15 436 -12 l 399 -15 q 370 -18 390 -18 q 342 -15 350 -18 q 333 -15 338 -15 q 322 -14 328 -14 q 289 -10 306 -11 q 257 -4 272 -8 q 161 31 203 11 q 90 92 119 51 q 57 153 71 118 q 51 175 54 161 q 47 194 49 182 q 49 215 46 207 q 63 229 53 225 q 79 232 69 232 q 100 232 89 232 l 165 232 q 188 232 176 232 q 207 229 199 232 q 227 211 222 224 q 239 185 232 199 q 249 167 242 178 q 263 153 257 156 q 294 131 279 139 q 333 117 310 124 q 347 115 340 114 q 361 114 354 115 q 385 112 372 111 q 408 115 399 113 q 422 117 415 117 q 435 119 428 117 q 470 136 454 126 q 496 161 486 146 q 507 196 503 172 q 507 214 510 206 q 501 228 504 222 q 477 257 492 247 q 443 275 463 267 q 388 293 417 286 q 329 308 358 300 q 306 313 318 311 q 283 317 294 314 q 199 341 239 329 q 125 376 158 353 q 68 451 86 404 q 63 478 65 461 q 58 501 60 488 q 60 526 57 515 q 61 538 63 533 q 63 550 60 543 q 69 578 65 565 q 78 604 72 592 q 128 669 96 644 q 200 710 160 694 q 232 720 215 717 q 267 728 249 724 q 283 731 275 731 q 300 733 292 732 q 324 735 311 735 q 347 736 336 735 z "},"t":{"ha":489,"x_min":11,"x_max":471,"o":"m 169 931 l 263 931 q 299 928 283 931 q 322 911 315 926 q 325 894 325 904 q 325 875 325 885 l 325 813 q 324 797 325 806 q 325 781 324 788 l 325 765 q 326 745 325 754 q 333 729 328 736 q 369 716 343 717 q 418 715 394 715 q 435 715 426 715 q 450 713 443 715 q 467 688 465 706 q 469 647 469 669 q 470 628 469 638 q 468 611 471 618 q 439 588 461 589 q 389 586 417 586 q 377 587 383 586 q 367 586 371 588 q 357 585 361 585 q 349 583 353 586 q 333 572 338 581 q 325 550 328 563 q 325 535 324 543 q 325 519 326 526 l 325 433 l 325 271 q 327 210 325 236 q 344 165 329 185 q 363 153 351 157 q 388 147 375 150 q 397 147 392 146 q 404 146 401 147 l 419 146 q 446 144 435 146 q 464 133 457 143 q 469 112 469 125 q 469 85 469 99 q 469 31 469 56 q 446 -1 468 7 q 433 -3 439 -4 q 421 -6 428 -3 l 407 -6 q 399 -5 404 -6 q 389 -6 393 -4 q 374 -6 382 -7 q 360 -6 367 -6 q 346 -6 353 -6 q 333 -6 339 -7 l 318 -6 q 303 -4 311 -4 q 288 -3 294 -4 q 269 0 278 -1 q 253 3 261 1 q 224 13 238 7 q 197 25 210 18 q 189 31 193 28 q 179 39 185 35 q 172 45 176 42 q 165 51 168 49 q 136 110 146 78 q 134 120 133 115 q 133 132 135 125 q 132 139 132 135 q 131 146 132 143 l 131 160 q 130 172 129 165 q 131 186 131 179 l 131 239 l 131 446 l 131 519 q 131 539 131 529 q 129 557 132 549 q 110 582 124 576 q 71 586 94 589 q 31 590 47 583 q 17 603 19 594 q 11 624 14 611 l 11 653 q 14 693 11 678 q 38 714 17 708 q 49 716 43 717 q 61 715 54 715 q 100 717 82 715 q 125 733 118 719 q 130 756 129 743 q 131 781 131 768 l 131 867 q 131 890 131 878 q 133 911 131 903 q 154 929 140 925 q 162 930 157 931 q 169 931 167 929 z "},"u":{"ha":824,"x_min":75,"x_max":746,"o":"m 111 715 l 215 715 q 243 714 231 715 q 261 704 256 713 q 269 681 268 696 q 271 651 271 667 l 271 554 l 271 347 q 275 253 271 297 q 300 179 279 208 q 363 138 319 150 q 374 136 369 136 q 386 135 379 136 q 401 133 393 133 q 414 135 410 133 q 426 136 421 138 q 436 138 431 135 q 482 156 465 144 q 522 195 507 171 q 542 249 536 219 q 550 316 549 279 q 551 393 551 353 l 551 561 l 551 651 q 551 677 551 664 q 557 699 551 690 q 578 713 564 711 q 611 715 592 715 l 685 715 q 711 715 699 715 q 732 710 724 715 q 744 689 743 703 q 746 657 746 675 l 746 551 l 746 161 l 746 63 q 746 35 746 49 q 740 14 746 21 q 719 1 733 3 q 690 0 706 0 l 615 0 q 588 1 600 0 q 569 13 576 3 q 565 25 567 17 q 560 42 563 33 q 556 57 558 50 q 547 65 553 64 q 540 67 544 68 q 533 64 536 65 q 517 51 524 58 q 501 39 510 44 q 491 30 496 35 q 479 21 486 25 q 404 -10 447 1 q 385 -13 394 -12 q 364 -17 375 -14 q 352 -17 358 -18 q 340 -18 346 -17 q 323 -19 336 -19 q 306 -17 310 -18 q 292 -16 299 -17 q 278 -15 285 -15 q 246 -8 261 -11 q 215 0 231 -6 q 203 5 208 3 q 192 10 199 7 q 114 83 143 36 q 88 153 96 113 q 77 241 79 194 q 76 337 75 288 q 76 435 76 386 l 76 624 q 76 666 76 642 q 82 701 75 690 q 99 714 86 708 q 111 715 107 714 z "},"v":{"ha":722,"x_min":17,"x_max":701,"o":"m 49 717 l 150 717 q 179 716 165 717 q 203 710 193 715 q 224 674 218 700 q 238 629 231 649 q 267 535 253 583 q 296 440 281 488 q 317 372 307 407 q 339 306 326 338 q 348 279 343 293 q 368 265 353 265 q 372 269 371 268 q 376 272 374 269 q 383 286 381 279 q 389 301 386 293 q 399 333 396 317 q 408 365 403 350 q 445 483 428 424 q 482 600 463 542 q 493 634 489 617 q 503 667 497 651 q 510 689 506 678 q 522 707 514 700 q 540 715 526 710 q 558 717 549 718 q 576 717 568 717 l 644 717 q 673 716 660 717 q 693 708 686 715 q 699 688 701 701 q 694 667 697 675 q 681 626 688 647 q 667 585 674 604 q 660 566 663 575 q 656 549 658 557 q 644 518 649 533 q 633 488 639 503 q 631 478 632 483 q 628 469 631 474 q 613 427 619 449 q 600 385 607 406 q 571 299 585 343 q 540 214 557 256 q 528 176 533 194 q 515 138 522 157 q 511 126 513 131 q 507 114 510 121 q 497 83 501 99 q 486 51 492 67 q 474 23 479 36 q 453 4 468 10 q 429 1 442 0 q 404 1 417 1 l 314 1 q 284 1 299 1 q 258 7 269 1 q 244 24 249 14 q 236 47 240 35 q 224 82 229 64 q 211 117 218 100 q 208 127 208 122 q 204 139 207 132 q 192 174 197 156 q 179 210 186 192 q 175 223 176 217 q 171 236 174 229 q 161 262 165 249 q 153 288 157 275 q 150 297 150 292 q 147 306 150 301 q 138 331 142 318 q 129 357 135 343 q 106 423 117 389 q 83 490 94 457 q 57 566 68 528 q 32 642 46 604 l 19 679 q 17 690 18 683 q 19 701 17 696 q 39 715 24 711 q 49 717 46 715 z "},"w":{"ha":1131,"x_min":18,"x_max":1111,"o":"m 53 718 l 156 718 q 185 717 171 718 q 207 711 199 717 q 220 697 215 706 q 228 676 225 688 q 233 652 231 664 q 239 631 236 640 q 267 531 256 582 q 294 429 279 479 q 299 413 297 421 q 303 397 300 406 q 315 355 310 376 q 326 313 319 333 q 333 290 329 303 q 349 275 338 278 q 360 283 356 274 q 367 296 364 292 q 377 336 374 315 q 388 376 381 357 q 394 402 392 389 q 400 428 397 415 q 417 496 410 461 q 435 564 425 531 q 442 593 439 579 q 449 621 444 607 q 460 671 454 642 q 481 711 465 700 q 503 717 490 717 q 531 718 515 718 l 603 718 q 633 717 619 718 q 657 708 647 715 q 667 694 664 703 q 672 676 669 685 q 681 638 678 657 q 692 600 685 619 q 720 489 708 546 q 747 378 732 432 q 756 344 753 361 q 765 311 760 326 q 776 282 771 292 q 780 280 778 281 q 783 276 782 279 q 799 285 796 278 q 807 303 803 293 q 821 349 815 325 q 833 397 826 374 q 840 424 838 411 q 847 451 843 438 q 872 539 863 494 q 896 625 882 583 q 908 672 903 644 q 926 708 914 699 q 949 717 936 715 q 976 718 961 718 l 1050 718 q 1074 718 1061 718 q 1094 715 1086 718 q 1110 697 1108 710 q 1106 669 1111 685 q 1087 608 1096 638 q 1067 546 1078 578 q 1002 342 1033 444 q 938 139 971 240 q 924 95 931 117 q 911 51 918 74 q 901 24 906 36 q 882 7 896 13 q 846 1 868 0 q 806 3 824 3 q 750 2 783 3 q 703 8 717 1 q 690 24 694 15 q 683 44 686 33 q 673 83 676 64 q 664 121 669 101 q 657 147 660 133 q 649 174 654 160 q 627 257 636 214 q 604 342 618 300 q 590 394 596 367 q 568 439 585 422 q 551 428 554 439 q 543 407 547 418 q 528 351 533 379 q 514 296 524 324 q 488 194 499 246 q 463 92 478 142 q 457 69 460 82 q 451 46 454 57 q 444 25 449 35 q 432 10 439 15 q 413 3 425 4 q 385 3 400 3 l 311 3 l 271 3 q 256 6 263 4 q 243 10 249 7 q 229 29 233 17 q 221 54 225 42 q 207 97 214 75 q 193 142 200 119 q 127 347 158 244 q 63 553 96 450 q 44 607 53 581 q 28 660 36 633 q 22 683 25 668 q 24 706 18 697 q 42 717 28 711 q 53 718 50 717 z "},"x":{"ha":746,"x_min":21,"x_max":725,"o":"m 74 717 l 185 717 q 222 715 204 717 q 250 706 239 714 q 267 687 260 699 q 282 664 275 675 q 306 628 293 646 q 331 593 318 611 q 347 568 338 582 q 369 550 356 554 q 380 551 375 549 q 388 556 385 553 q 403 572 397 563 q 415 592 408 582 q 439 627 426 610 q 464 663 451 644 q 485 696 475 682 q 521 715 496 710 q 542 717 531 718 q 564 717 553 717 l 650 717 q 677 715 664 717 q 693 701 690 713 q 692 688 696 694 q 686 678 689 682 q 669 652 679 664 q 651 626 660 640 q 589 538 619 582 q 526 449 558 493 q 510 426 518 438 q 494 401 501 415 q 490 390 492 397 q 489 376 488 383 q 501 351 493 361 q 515 329 508 340 q 532 306 524 318 q 547 283 540 294 q 607 197 578 240 q 667 110 636 154 q 690 76 678 93 q 714 42 703 60 q 721 30 717 38 q 721 14 725 22 q 706 3 718 4 q 679 1 693 1 l 551 1 q 538 3 544 3 q 524 7 531 4 q 499 35 508 18 q 478 67 489 51 q 449 109 463 88 q 421 151 435 131 q 401 183 413 164 q 374 206 389 201 q 357 202 364 208 q 347 190 350 196 q 326 159 336 175 q 304 126 315 143 l 250 47 q 235 25 243 36 q 215 7 228 14 q 172 1 200 0 q 121 1 143 1 l 75 1 q 63 1 69 1 q 53 1 57 0 q 42 2 47 3 q 33 4 38 1 q 27 9 29 7 q 22 14 25 11 q 26 37 21 28 q 38 54 32 46 q 59 85 49 69 q 81 115 69 100 q 136 197 108 156 q 192 281 164 239 q 210 306 201 293 q 226 331 218 318 q 240 350 233 340 q 249 374 246 360 q 249 386 251 381 q 244 394 246 392 q 228 422 238 410 q 211 446 219 433 q 147 540 179 494 q 82 633 114 585 q 67 656 75 644 q 51 679 58 667 q 45 689 49 683 q 44 701 42 694 q 51 710 47 708 q 63 715 56 713 q 74 717 71 715 z "},"y":{"ha":721,"x_min":4,"x_max":719,"o":"m 36 719 l 142 719 q 169 719 156 719 q 193 714 183 719 q 216 679 210 703 q 229 636 222 656 q 241 601 236 619 q 253 567 246 583 q 274 503 264 535 q 294 442 283 472 l 324 354 q 331 328 328 342 q 340 303 335 315 q 349 278 344 292 q 369 265 354 264 q 374 269 372 268 q 379 272 376 269 q 386 286 383 279 q 392 300 389 293 q 403 333 399 315 q 413 367 407 350 q 450 482 432 425 q 488 597 468 539 q 499 635 494 617 q 511 672 504 654 q 519 694 515 683 q 532 711 522 704 q 553 719 540 718 q 581 719 565 719 l 665 719 q 692 718 679 719 q 711 710 704 717 q 714 685 719 700 q 707 663 711 674 q 699 640 703 651 q 661 541 679 592 q 624 442 643 490 q 608 399 615 421 q 593 357 601 378 q 579 319 586 338 q 565 282 572 301 q 513 142 538 213 q 461 4 489 72 q 455 -14 457 -6 q 449 -31 453 -22 q 428 -82 438 -57 q 407 -130 418 -107 q 381 -172 396 -153 q 343 -207 365 -192 q 303 -227 325 -219 q 257 -242 282 -235 q 235 -244 246 -244 q 213 -247 224 -244 l 176 -247 q 150 -247 165 -247 q 120 -246 135 -247 q 94 -242 106 -244 q 76 -236 82 -240 q 67 -223 69 -231 q 63 -204 65 -215 l 63 -171 q 63 -121 63 -147 q 79 -87 63 -94 q 98 -84 86 -85 q 118 -86 110 -83 l 153 -86 l 169 -86 q 181 -85 175 -85 q 192 -82 186 -85 q 247 -25 235 -69 q 253 -8 250 -19 q 253 11 256 3 q 250 25 250 18 q 247 39 250 32 q 229 94 239 67 q 208 147 219 121 q 188 200 197 174 q 168 253 179 226 q 156 286 161 269 q 144 319 151 303 q 103 428 122 372 q 63 536 85 483 q 60 545 60 542 q 57 553 60 549 q 38 603 46 578 q 19 653 31 629 q 10 677 17 661 q 8 704 4 693 q 26 718 13 715 q 31 719 29 719 q 36 719 33 718 z "},"z":{"ha":721,"x_min":29,"x_max":689,"o":"m 96 717 l 522 717 l 603 717 q 628 716 615 717 q 647 710 640 715 q 661 689 656 704 l 661 668 q 663 652 664 661 q 663 636 663 643 q 663 600 663 618 q 657 569 663 582 q 644 551 651 558 q 631 535 638 543 q 613 513 622 524 q 594 492 603 503 q 589 487 592 489 q 583 482 586 485 q 567 464 576 472 q 551 446 558 456 q 504 392 529 417 q 457 338 479 367 l 446 326 q 430 308 439 317 q 414 290 421 300 q 398 272 407 281 q 382 256 389 264 q 369 240 375 247 q 356 225 363 233 q 344 212 350 218 q 333 199 339 206 q 324 188 328 193 q 317 175 319 182 q 315 168 315 172 q 317 161 314 164 q 326 152 319 153 q 342 149 333 151 q 373 147 356 146 q 406 147 390 147 l 610 147 q 657 146 635 147 q 686 125 679 144 q 689 110 689 118 q 689 92 689 101 q 689 44 689 71 q 676 8 689 18 q 656 1 668 1 q 628 1 643 1 l 542 1 l 188 1 l 93 1 q 65 1 78 1 q 42 8 51 1 q 32 31 33 15 q 31 61 31 46 q 30 103 31 81 q 35 142 29 126 q 42 158 38 150 q 51 172 46 165 q 74 197 63 185 q 96 222 85 208 q 107 232 103 229 q 149 281 126 258 q 190 328 171 303 q 201 340 196 335 q 211 353 207 346 q 227 370 218 363 q 243 389 236 378 q 249 394 246 392 q 254 399 251 396 q 270 418 261 410 q 286 436 279 426 q 294 444 289 440 q 303 453 299 449 q 326 481 314 468 q 350 507 339 493 q 366 525 357 517 q 378 546 375 533 q 376 558 381 554 q 367 565 371 563 q 330 572 351 572 q 289 571 308 571 l 139 571 q 103 570 122 571 q 74 576 85 569 q 60 603 61 583 q 58 642 58 622 q 58 657 58 649 q 58 672 57 665 l 58 683 q 60 693 60 688 q 64 701 61 699 q 82 714 72 713 q 89 715 85 715 q 96 717 93 714 z "},"{":{"ha":463,"x_min":-10,"x_max":461,"o":"m 290 1015 l 403 1015 q 432 1014 418 1015 q 453 1004 446 1013 q 460 970 461 993 q 460 928 460 947 q 460 899 460 913 q 454 876 460 886 q 440 866 449 868 q 419 863 431 864 q 397 863 408 863 q 374 860 385 863 q 315 803 329 849 q 310 765 310 786 q 311 722 311 743 l 311 622 q 312 598 311 611 q 310 574 313 585 l 310 539 q 307 516 307 528 q 304 493 307 504 q 287 453 297 474 q 261 422 276 433 q 243 410 253 415 q 224 397 233 404 q 220 392 221 394 q 217 388 219 390 q 216 381 217 385 q 218 375 215 378 q 237 359 222 368 q 258 343 251 350 q 289 308 278 329 q 307 261 300 288 q 310 241 310 251 q 310 219 310 231 l 310 200 q 312 174 313 189 q 311 149 311 160 l 311 42 q 313 -17 311 10 q 326 -62 315 -43 q 351 -84 338 -78 q 385 -94 364 -90 l 393 -94 q 403 -95 397 -96 q 414 -96 408 -94 l 426 -96 q 454 -110 449 -100 q 460 -131 460 -118 q 460 -158 460 -144 q 460 -212 460 -186 q 439 -246 460 -239 q 422 -249 432 -249 q 400 -249 411 -249 l 332 -249 q 297 -249 315 -249 q 264 -246 279 -250 q 178 -203 211 -233 q 126 -128 146 -174 q 122 -108 124 -118 q 118 -87 121 -99 q 117 -80 118 -83 q 117 -72 117 -76 q 115 -40 114 -58 q 115 -6 115 -21 l 115 150 q 117 174 115 161 q 115 199 118 188 q 114 213 113 206 q 113 226 115 219 q 92 272 106 254 q 56 304 78 290 q 34 313 44 310 q 15 320 24 317 q 0 331 7 324 q -10 353 -7 338 l -10 381 q -10 406 -10 393 q -6 429 -10 419 q 24 449 3 443 q 60 465 46 456 q 88 490 75 475 q 107 521 100 504 q 115 574 115 543 q 115 635 115 604 l 115 774 q 119 857 115 819 q 140 922 122 894 q 236 1004 175 981 q 251 1009 243 1007 q 268 1014 260 1011 q 280 1013 272 1014 q 290 1015 288 1013 z "},"|":{"ha":310,"x_min":81,"x_max":229,"o":"m 82 -242 l 82 725 l 82 969 q 81 1029 82 999 q 89 1078 81 1060 q 103 1088 93 1085 q 126 1090 114 1090 q 151 1090 139 1090 q 172 1089 164 1089 l 201 1089 q 222 1076 214 1085 q 228 1033 229 1060 q 228 982 228 1007 l 228 760 l 228 54 l 228 -161 l 228 -214 q 228 -229 228 -221 q 228 -244 229 -237 q 227 -253 226 -249 q 226 -264 228 -257 q 215 -287 224 -279 q 201 -293 211 -292 q 181 -294 192 -294 q 158 -294 169 -294 q 139 -293 147 -293 q 115 -294 128 -293 q 94 -287 101 -294 q 82 -257 86 -276 l 82 -242 z "},"}":{"ha":463,"x_min":0,"x_max":471,"o":"m 171 -250 l 58 -250 q 29 -249 43 -250 q 8 -239 15 -247 q 1 -205 0 -228 q 1 -162 1 -182 q 1 -134 1 -147 q 7 -111 1 -121 q 22 -101 13 -103 q 42 -98 31 -99 q 65 -97 53 -97 q 88 -94 76 -97 q 146 -37 132 -83 q 151 1 151 -21 q 150 43 150 22 l 150 143 q 149 167 150 154 q 151 192 149 181 l 151 226 q 154 249 154 238 q 157 272 154 261 q 174 312 164 292 q 200 343 185 332 q 218 356 208 350 q 238 368 228 361 q 241 373 240 371 q 244 378 242 375 q 245 384 244 381 q 243 390 246 388 q 224 406 239 397 q 203 422 210 415 q 172 457 183 436 q 154 504 161 478 q 151 524 151 514 q 151 546 151 535 l 151 565 q 149 591 149 576 q 150 617 150 606 l 150 724 q 148 782 150 756 q 135 828 146 808 q 110 849 124 843 q 76 860 97 856 l 68 860 q 58 860 64 861 q 47 861 53 860 l 35 861 q 7 875 13 865 q 1 897 1 883 q 1 924 1 910 q 1 978 1 951 q 22 1011 1 1004 q 40 1014 29 1014 q 61 1014 50 1014 l 129 1014 q 164 1015 146 1014 q 197 1011 182 1015 q 283 969 250 999 q 335 893 315 939 q 339 874 338 883 q 343 853 340 864 q 344 845 343 849 q 344 838 344 842 q 347 805 347 824 q 346 771 346 786 l 346 615 q 344 591 346 604 q 346 567 343 578 q 347 553 349 560 q 349 539 346 546 q 369 493 356 511 q 406 461 383 475 q 427 451 417 454 q 446 445 438 449 q 461 434 454 442 q 471 413 468 426 l 471 385 q 471 359 471 372 q 467 336 471 346 q 437 316 458 322 q 401 300 415 310 q 374 276 386 290 q 354 244 361 261 q 346 192 346 222 q 346 131 346 161 l 346 -8 q 342 -92 346 -54 q 321 -157 339 -129 q 225 -239 286 -215 q 210 -244 218 -242 q 193 -249 201 -246 q 181 -248 189 -249 q 171 -250 174 -247 z "},"~":{"ha":833,"x_min":99,"x_max":736,"o":"m 261 471 q 328 463 299 472 q 385 442 358 453 q 429 424 408 433 q 476 403 453 414 q 524 385 499 393 q 554 379 535 382 q 572 378 563 376 q 586 382 581 379 q 646 422 624 394 l 650 426 q 659 438 654 432 q 671 447 664 443 q 676 451 674 449 q 683 451 679 453 q 697 442 693 449 q 706 429 701 436 q 719 401 713 415 q 731 371 725 386 q 732 343 736 357 q 719 320 728 329 q 704 300 711 311 q 610 236 669 254 q 587 231 603 233 q 564 232 571 229 l 550 232 q 540 233 544 233 q 531 233 535 232 q 508 239 519 236 q 486 247 497 242 q 426 276 454 260 q 365 306 397 293 q 340 314 353 311 q 311 321 326 317 q 300 322 306 322 q 289 324 294 322 q 271 324 282 325 q 254 322 260 324 q 247 321 250 321 q 239 319 243 321 q 209 304 224 314 q 185 283 194 294 q 178 274 182 281 q 169 263 174 268 q 158 255 164 258 q 146 254 151 251 q 128 274 135 260 q 118 300 122 289 q 108 322 113 311 q 101 346 104 332 q 106 369 99 357 q 117 386 113 381 q 152 428 132 410 q 200 458 172 447 q 218 463 208 461 q 239 468 228 465 q 251 469 243 469 q 261 471 258 468 z "},"":{"ha":951,"x_min":6,"x_max":947,"o":"m 935 67 q 940 53 936 61 q 945 35 943 44 q 946 18 947 26 q 936 6 944 10 q 899 0 925 -1 q 857 1 874 1 l 792 1 q 772 1 781 1 q 754 3 763 0 q 732 19 739 7 q 722 43 725 31 q 713 68 718 56 q 698 113 706 90 q 682 156 690 135 q 674 178 678 168 q 667 197 671 189 q 654 212 663 206 q 632 221 646 218 q 619 222 625 221 q 606 222 613 222 l 386 222 q 335 223 363 222 q 293 213 308 224 q 278 190 282 204 q 268 163 274 176 q 249 113 257 139 q 232 63 242 88 q 222 33 226 49 q 206 10 217 18 q 185 2 199 4 q 156 0 172 0 q 124 1 140 0 q 94 1 107 1 q 51 1 76 1 q 14 7 25 0 q 6 19 7 11 q 8 37 6 28 q 13 54 10 46 q 18 68 15 63 q 44 133 32 100 q 68 199 56 167 q 76 221 74 210 q 85 243 79 232 q 107 303 96 272 q 129 363 118 333 q 150 417 140 390 q 171 472 160 444 q 230 626 203 549 q 289 781 257 704 q 293 793 292 788 q 297 806 294 799 q 319 865 308 835 q 343 925 331 896 q 355 956 350 940 q 372 982 360 972 q 390 989 379 986 q 396 990 393 990 q 401 990 399 989 l 524 990 q 555 991 539 990 q 581 985 571 992 q 601 960 596 976 q 613 928 606 944 q 631 881 622 904 q 649 835 639 858 q 654 818 651 826 q 660 801 657 810 q 681 747 671 774 q 701 692 690 719 q 753 551 729 622 q 807 411 778 481 q 810 401 810 406 q 814 390 811 396 q 831 346 822 368 q 847 301 839 324 q 856 280 853 290 q 863 258 858 269 q 896 169 881 214 q 929 82 911 125 q 932 74 932 78 q 935 67 932 71 m 575 385 q 592 408 593 392 q 583 440 590 425 q 581 451 581 446 q 578 461 581 456 q 544 557 560 508 q 510 654 529 606 q 504 672 507 661 q 497 691 501 682 q 488 707 493 700 q 474 714 482 714 q 468 710 471 711 q 463 706 465 708 q 447 672 451 692 q 435 635 442 653 q 405 556 418 596 q 376 475 392 515 q 367 448 371 461 q 358 419 363 435 q 360 394 354 408 q 383 383 367 385 q 415 382 399 382 l 521 382 q 549 382 533 382 q 575 385 564 382 m 411 1257 q 423 1220 424 1247 q 422 1171 422 1193 q 423 1156 422 1164 q 422 1140 424 1147 q 419 1124 419 1131 q 411 1113 418 1117 q 391 1105 403 1106 q 364 1104 379 1104 l 290 1104 q 266 1106 278 1104 q 247 1115 254 1108 q 238 1158 238 1129 q 239 1210 239 1186 q 240 1232 239 1221 q 244 1250 240 1243 q 265 1264 250 1258 q 276 1265 275 1264 l 363 1265 q 390 1265 378 1265 q 411 1257 403 1264 m 697 1256 q 708 1219 708 1247 q 708 1171 708 1192 q 709 1156 708 1164 q 707 1142 710 1149 l 707 1135 q 703 1123 706 1129 q 697 1114 701 1117 q 676 1106 689 1107 q 649 1104 664 1104 l 576 1104 q 550 1106 563 1104 q 532 1117 538 1108 q 523 1159 522 1129 q 524 1211 524 1189 q 524 1233 524 1222 q 529 1250 525 1243 q 550 1264 535 1258 q 561 1265 560 1264 l 647 1265 q 676 1264 663 1265 q 697 1256 689 1263 z "},"":{"ha":951,"x_min":6,"x_max":947,"o":"m 935 67 q 940 53 936 61 q 945 35 943 44 q 946 18 947 26 q 936 6 944 10 q 899 0 925 -1 q 857 1 874 1 l 792 1 q 772 1 781 1 q 754 3 763 0 q 732 19 739 7 q 722 43 725 31 q 713 68 718 56 q 698 113 706 90 q 682 156 690 135 q 674 178 678 168 q 667 197 671 189 q 654 212 663 206 q 632 221 646 218 q 619 222 625 221 q 606 222 613 222 l 386 222 q 335 223 363 222 q 293 213 308 224 q 278 190 282 204 q 268 163 274 176 q 249 113 257 139 q 232 63 242 88 q 222 33 226 49 q 206 10 217 18 q 185 2 199 4 q 156 0 172 0 q 124 1 140 0 q 94 1 107 1 q 51 1 76 1 q 14 7 25 0 q 6 19 7 11 q 8 37 6 28 q 13 54 10 46 q 18 68 15 63 q 44 133 32 100 q 68 199 56 167 q 76 221 74 210 q 85 243 79 232 q 107 303 96 272 q 129 363 118 333 q 150 417 140 390 q 171 472 160 444 q 230 626 203 549 q 289 781 257 704 q 293 793 292 788 q 297 806 294 799 q 319 865 308 835 q 343 925 331 896 q 355 956 350 940 q 372 982 360 972 q 390 989 379 986 q 396 990 393 990 q 401 990 399 989 l 524 990 q 555 991 539 990 q 581 985 571 992 q 601 960 596 976 q 613 928 606 944 q 631 881 622 904 q 649 835 639 858 q 654 818 651 826 q 660 801 657 810 q 681 747 671 774 q 701 692 690 719 q 753 551 729 622 q 807 411 778 481 q 810 401 810 406 q 814 390 811 396 q 831 346 822 368 q 847 301 839 324 q 856 280 853 290 q 863 258 858 269 q 896 169 881 214 q 929 82 911 125 q 932 74 932 78 q 935 67 932 71 m 575 385 q 592 408 593 392 q 583 440 590 425 q 581 451 581 446 q 578 461 581 456 q 544 557 560 508 q 510 654 529 606 q 504 672 507 661 q 497 691 501 682 q 488 707 493 700 q 474 714 482 714 q 468 710 471 711 q 463 706 465 708 q 447 672 451 692 q 435 635 442 653 q 405 556 418 596 q 376 475 392 515 q 367 448 371 461 q 358 419 363 435 q 360 394 354 408 q 383 383 367 385 q 415 382 399 382 l 521 382 q 549 382 533 382 q 575 385 564 382 m 631 1246 q 642 1183 642 1218 q 631 1119 642 1147 q 535 1028 601 1054 q 518 1024 526 1025 q 501 1019 510 1022 q 492 1018 497 1018 q 483 1017 488 1018 q 473 1016 479 1015 q 464 1018 467 1017 q 454 1018 458 1019 q 446 1019 450 1017 q 407 1031 426 1024 q 348 1073 369 1047 q 311 1139 326 1099 q 303 1168 307 1150 q 304 1204 299 1186 q 308 1221 307 1213 q 313 1238 310 1229 q 351 1299 328 1274 q 410 1340 374 1325 q 427 1345 418 1343 q 446 1350 436 1347 q 456 1351 449 1351 q 465 1353 463 1350 q 572 1322 532 1354 q 631 1246 611 1290 m 561 1165 q 562 1197 564 1181 q 556 1224 560 1213 q 524 1266 544 1251 q 464 1281 503 1281 q 460 1280 463 1279 q 456 1279 458 1281 q 440 1275 451 1278 q 410 1253 422 1268 q 392 1219 399 1239 q 388 1201 390 1213 q 385 1180 385 1192 q 389 1161 386 1168 q 406 1123 396 1138 q 436 1097 417 1108 q 458 1090 443 1093 q 483 1089 472 1086 q 554 1140 536 1100 q 558 1152 557 1146 q 561 1165 558 1158 z "},"":{"ha":1029,"x_min":53,"x_max":971,"o":"m 531 1024 q 558 1022 546 1024 q 583 1017 571 1019 q 594 1015 588 1015 q 617 1010 606 1013 q 640 1006 629 1008 q 654 1002 647 1003 q 668 999 661 1001 q 699 989 683 993 q 729 978 714 985 q 911 824 846 929 q 937 774 926 800 q 957 717 947 747 q 960 689 960 704 q 950 667 960 674 q 942 663 947 664 q 931 660 936 661 l 915 660 q 894 658 906 657 q 874 660 883 660 l 828 660 q 815 659 821 660 q 804 660 808 658 l 789 660 q 780 662 785 661 q 772 664 775 663 q 749 692 757 671 q 731 729 740 714 q 676 788 708 765 q 597 825 643 811 q 547 832 574 832 q 540 833 544 832 q 531 833 535 835 q 524 833 528 832 q 517 832 521 833 q 498 829 507 829 q 479 826 489 829 q 386 786 426 813 q 330 724 353 761 q 292 642 307 686 q 283 608 286 625 q 276 574 281 592 q 274 551 275 563 q 271 529 272 540 l 271 517 q 269 493 269 510 q 271 469 269 476 l 271 457 q 274 433 274 446 q 276 410 275 421 q 279 396 279 403 q 282 382 279 389 q 297 333 289 357 q 315 289 304 310 q 369 222 340 249 q 446 175 399 194 q 477 166 458 169 q 517 160 496 163 q 558 160 538 158 q 596 165 579 161 q 637 180 619 172 q 674 201 654 188 q 688 210 681 206 q 699 222 694 215 q 713 240 706 232 q 725 257 719 247 q 738 281 732 268 q 749 307 743 294 q 759 343 756 322 q 775 372 763 364 q 797 380 783 379 q 825 381 810 381 l 917 381 q 949 378 935 381 q 968 364 963 376 q 970 344 971 356 q 967 324 969 332 q 965 313 964 318 q 963 303 965 308 q 942 239 953 267 q 924 196 932 214 q 910 175 917 185 q 897 154 904 165 q 781 43 850 86 q 743 24 763 32 q 703 6 724 15 q 668 -5 686 -1 q 632 -12 650 -8 q 614 -15 622 -14 q 596 -18 606 -17 q 579 -19 585 -18 q 549 -28 563 -22 q 535 -53 535 -33 q 540 -58 538 -56 q 544 -62 542 -60 q 557 -65 551 -65 q 569 -67 563 -64 q 588 -69 579 -69 q 606 -72 597 -69 q 656 -100 638 -83 q 683 -151 675 -117 l 683 -157 q 682 -194 688 -175 q 672 -224 676 -212 q 643 -262 661 -247 q 601 -287 625 -278 q 586 -292 594 -290 q 569 -297 578 -294 q 517 -306 547 -304 q 464 -300 488 -307 q 439 -295 453 -297 q 411 -290 425 -293 q 386 -281 397 -286 q 369 -268 375 -276 q 368 -237 360 -254 q 388 -217 376 -221 q 401 -215 394 -212 q 437 -223 417 -218 q 477 -228 457 -228 q 515 -226 497 -229 q 542 -208 532 -222 q 549 -190 546 -201 q 549 -168 553 -179 q 514 -139 540 -146 q 497 -137 508 -137 q 476 -139 486 -136 q 449 -137 461 -142 q 431 -125 436 -133 q 426 -113 428 -121 q 428 -99 425 -106 q 435 -85 431 -92 q 443 -72 439 -79 q 449 -64 446 -68 q 454 -54 451 -60 q 460 -38 458 -47 q 457 -22 463 -29 q 442 -13 451 -15 q 424 -8 433 -11 q 388 1 406 -3 q 354 11 371 4 q 301 36 326 22 q 253 65 276 50 q 230 83 240 74 q 208 103 219 93 q 199 110 203 106 q 190 121 194 115 q 178 135 182 129 q 164 151 171 143 q 150 169 157 160 q 127 204 139 186 q 107 242 115 222 q 97 269 101 256 q 86 294 92 282 q 77 322 81 308 q 69 351 74 336 q 64 381 65 365 q 60 411 63 396 q 58 420 58 415 q 58 429 58 425 q 56 443 56 436 q 56 457 57 450 l 56 472 q 53 493 53 479 q 56 514 53 507 l 56 529 q 56 543 57 536 q 58 556 56 550 q 60 575 58 568 q 64 605 63 590 q 69 633 65 619 q 75 656 72 644 q 81 679 78 668 q 102 735 92 707 q 128 788 113 763 q 145 814 136 801 q 164 839 154 826 q 173 851 168 846 q 182 863 178 856 q 189 868 186 867 q 206 888 196 879 q 226 906 215 897 q 231 909 229 907 q 236 914 233 911 q 255 928 246 921 q 275 942 264 935 q 333 972 303 960 q 399 996 364 985 q 444 1006 421 1003 q 492 1017 468 1010 q 519 1022 508 1019 q 531 1024 528 1022 z "},"":{"ha":900,"x_min":96,"x_max":846,"o":"m 133 990 l 653 990 l 774 990 q 806 989 790 990 q 828 978 821 988 q 831 968 831 974 q 835 957 832 963 l 835 942 q 835 921 836 932 q 835 900 835 910 q 835 878 835 889 q 835 858 836 868 q 833 838 833 851 q 819 815 829 821 q 799 810 811 810 q 772 810 786 810 l 676 810 l 425 810 q 399 810 414 810 q 370 810 385 811 q 343 808 356 810 q 325 801 331 806 q 313 781 315 794 q 311 751 311 768 l 311 672 l 311 632 q 317 613 314 621 q 326 601 319 606 q 346 595 335 596 q 369 594 357 594 l 444 594 l 683 594 q 708 595 693 594 q 736 595 722 596 q 762 593 750 594 q 779 588 774 592 q 789 571 786 583 q 792 544 792 558 q 792 514 793 529 q 792 488 792 499 q 792 468 792 478 q 789 451 792 458 q 778 433 786 440 q 759 428 771 429 q 733 426 747 426 q 703 427 718 426 q 679 428 689 428 l 408 428 q 376 428 392 428 q 348 427 361 429 q 326 419 335 425 q 313 400 317 413 q 311 385 311 393 q 311 371 311 378 l 311 318 l 311 240 q 313 210 311 224 q 325 190 315 197 q 335 185 329 186 q 349 182 342 185 l 363 182 q 378 181 369 181 q 393 182 386 182 l 451 182 l 713 182 l 786 182 q 808 182 797 182 q 826 178 818 182 q 842 163 838 174 q 845 146 844 156 q 846 125 846 136 l 846 61 q 844 30 846 44 q 832 8 843 15 q 810 1 824 1 q 782 1 797 1 l 678 1 l 267 1 l 157 1 q 123 3 138 1 q 101 17 108 6 q 96 38 96 25 q 96 64 96 51 l 96 164 l 96 542 l 96 844 l 96 931 q 96 956 96 943 q 101 975 96 968 q 122 989 107 985 q 128 990 125 990 q 133 990 131 989 m 511 1278 l 610 1278 q 636 1278 621 1278 q 658 1274 651 1278 q 662 1270 661 1272 q 665 1267 663 1268 q 652 1238 667 1250 q 628 1215 638 1225 q 606 1195 617 1206 q 585 1176 596 1185 q 576 1167 579 1172 q 567 1160 572 1163 q 560 1153 564 1156 q 546 1140 553 1146 q 532 1128 539 1133 q 528 1124 529 1125 q 525 1119 528 1122 q 503 1101 514 1111 q 478 1086 493 1092 q 467 1085 472 1085 q 456 1083 463 1085 q 444 1083 451 1082 q 432 1083 438 1083 q 400 1083 417 1083 q 375 1090 383 1083 q 371 1110 367 1096 q 381 1130 374 1121 q 393 1149 388 1139 q 419 1186 407 1168 q 444 1224 432 1204 q 459 1247 451 1235 q 476 1267 467 1260 q 496 1276 482 1271 q 503 1277 499 1278 q 511 1278 508 1276 z "},"":{"ha":1029,"x_min":97,"x_max":933,"o":"m 135 990 l 247 990 q 277 991 263 990 q 303 986 292 992 q 324 969 317 981 q 339 947 332 958 l 389 868 q 487 710 438 789 q 585 553 536 632 q 631 477 608 515 q 679 403 654 439 q 690 386 685 394 q 703 371 694 378 q 710 365 706 368 q 718 365 714 363 q 728 378 728 368 q 731 399 728 388 q 731 420 732 408 q 731 443 731 432 l 731 531 l 731 853 l 731 906 q 730 919 731 913 q 731 932 729 926 l 731 947 q 739 978 731 967 q 758 989 746 988 q 785 990 769 990 l 869 990 q 892 990 881 990 q 911 988 903 990 q 931 963 929 981 q 932 922 932 946 l 932 769 l 932 188 l 932 71 q 933 40 932 56 q 928 17 933 25 q 915 6 922 8 q 896 1 907 4 l 847 1 l 771 1 q 747 1 758 1 q 726 6 735 1 q 703 24 711 13 q 686 50 694 36 q 662 90 674 69 q 638 129 650 110 l 429 463 q 391 524 410 494 q 353 586 372 554 q 337 610 346 596 q 313 625 328 625 q 301 603 301 615 q 300 571 300 590 l 300 474 l 300 142 l 300 88 q 301 74 300 81 q 299 60 301 67 l 299 44 q 292 13 299 22 q 273 3 285 4 q 246 1 261 1 l 161 1 q 139 1 150 1 q 119 4 128 1 q 99 29 101 11 q 97 71 97 47 l 97 231 l 97 788 l 97 917 q 97 949 97 932 q 103 975 97 965 q 122 989 108 985 q 128 990 125 989 q 135 990 132 990 m 710 1264 q 748 1258 733 1265 q 756 1225 763 1250 q 752 1217 753 1221 q 750 1210 751 1213 q 725 1165 739 1186 q 690 1129 711 1143 q 649 1113 675 1119 q 614 1108 636 1108 q 578 1113 592 1108 q 558 1116 567 1115 q 538 1119 549 1117 q 498 1133 518 1126 q 458 1146 478 1139 q 440 1149 449 1149 q 421 1153 431 1150 q 399 1153 410 1156 q 389 1151 396 1151 q 378 1145 382 1149 q 368 1139 374 1142 q 364 1135 364 1135 q 349 1116 357 1126 q 331 1101 342 1106 q 297 1098 315 1094 q 274 1113 279 1101 q 272 1128 271 1119 q 276 1142 274 1136 q 288 1170 282 1157 q 301 1196 293 1183 q 369 1253 328 1235 q 384 1256 376 1256 q 399 1260 392 1257 q 432 1263 413 1263 q 465 1260 451 1264 q 515 1243 492 1253 q 561 1226 538 1233 q 582 1221 572 1222 q 603 1217 592 1219 q 621 1218 611 1215 q 637 1222 631 1221 q 650 1226 643 1222 q 666 1240 660 1232 q 682 1256 672 1249 q 699 1263 689 1260 q 704 1263 701 1264 q 710 1264 707 1263 z "},"":{"ha":1081,"x_min":53,"x_max":1029,"o":"m 1025 529 q 1028 501 1028 521 q 1026 472 1029 481 l 1026 454 q 1024 425 1024 440 q 1021 394 1024 410 q 1017 375 1018 385 q 1013 356 1015 365 q 999 307 1006 331 q 983 261 993 283 q 871 99 942 164 q 696 0 800 35 q 665 -8 681 -6 q 635 -14 650 -11 q 620 -17 628 -17 q 606 -18 613 -17 l 560 -22 q 540 -23 554 -24 q 522 -21 526 -22 q 509 -20 515 -19 q 496 -19 503 -21 l 481 -19 q 460 -16 469 -17 q 439 -12 450 -15 q 417 -8 428 -10 q 394 -3 406 -6 q 363 8 379 3 q 332 21 347 14 q 191 117 249 57 q 97 261 133 178 q 83 302 89 281 q 71 346 78 324 q 68 358 68 353 q 67 368 68 363 q 63 388 64 378 q 58 410 61 399 q 58 423 57 417 q 56 435 58 429 q 56 452 54 443 q 56 469 57 461 q 53 491 53 476 q 56 513 53 506 q 56 526 57 519 q 56 539 54 532 l 56 547 q 58 566 58 557 q 60 583 57 575 q 63 598 63 590 q 65 613 63 606 q 76 659 72 636 q 89 704 81 682 q 110 751 100 728 q 133 796 119 775 q 229 907 175 863 q 361 983 283 951 q 399 994 379 990 q 439 1004 419 999 q 452 1007 446 1007 q 465 1008 458 1007 l 507 1013 q 515 1013 510 1014 q 522 1013 519 1011 q 693 992 621 1015 q 822 929 765 969 q 860 901 840 917 q 892 868 879 885 q 906 853 899 861 q 918 839 913 846 q 949 794 933 817 q 975 744 964 771 q 990 707 983 725 q 1003 668 996 689 q 1010 640 1007 654 q 1017 610 1013 625 q 1019 591 1019 600 q 1022 574 1019 582 q 1024 556 1025 565 q 1025 540 1024 547 l 1025 529 m 810 471 q 813 491 813 478 q 810 511 813 504 l 810 535 q 809 545 808 540 q 807 556 810 550 q 803 577 804 567 q 800 597 803 588 q 797 613 800 604 q 789 643 793 628 q 778 674 785 658 q 690 788 747 744 q 529 832 632 832 q 523 831 526 831 q 517 831 519 832 q 506 830 511 829 q 493 828 500 831 q 463 822 478 825 q 436 813 449 818 q 344 743 378 788 q 289 636 310 699 q 283 606 285 621 q 276 576 281 592 q 275 566 275 571 q 274 556 275 561 q 272 540 271 549 q 272 525 274 532 q 269 499 269 518 q 271 474 268 481 l 271 458 q 272 447 272 453 q 274 435 272 440 q 274 424 274 429 q 275 414 275 419 q 281 383 279 399 q 289 354 283 368 q 326 272 304 310 q 382 210 349 233 q 397 199 389 203 q 413 190 404 194 q 445 175 428 181 q 482 164 463 169 q 495 162 489 161 q 508 161 501 163 q 525 158 517 158 q 543 158 533 158 l 554 158 q 567 159 561 160 q 579 161 572 158 q 607 166 593 164 q 633 174 621 168 q 727 235 693 197 q 785 332 761 272 q 795 365 792 347 q 804 401 799 383 l 808 435 q 810 447 810 440 q 810 460 810 453 l 810 471 m 479 1257 q 491 1220 492 1247 q 490 1171 490 1193 q 491 1156 490 1164 q 490 1140 492 1147 q 487 1124 488 1131 q 479 1113 486 1117 q 459 1105 471 1106 q 432 1104 447 1104 l 358 1104 q 334 1106 346 1104 q 315 1115 322 1108 q 306 1158 306 1129 q 307 1210 307 1186 q 308 1232 307 1221 q 313 1250 308 1243 q 333 1264 318 1258 q 344 1265 343 1264 l 431 1265 q 458 1265 446 1265 q 479 1257 471 1264 m 765 1256 q 776 1219 776 1247 q 776 1171 776 1192 q 777 1156 776 1164 q 775 1142 778 1149 l 775 1135 q 772 1123 774 1129 q 765 1114 769 1117 q 744 1106 757 1107 q 717 1104 732 1104 l 644 1104 q 618 1106 631 1104 q 600 1117 606 1108 q 591 1159 590 1129 q 592 1211 592 1189 q 592 1233 592 1222 q 597 1250 593 1243 q 618 1264 603 1258 q 629 1265 628 1264 l 715 1265 q 744 1264 731 1265 q 765 1256 757 1263 z "},"":{"ha":1029,"x_min":92,"x_max":936,"o":"m 465 1265 l 465 1103 l 278 1103 l 278 1265 l 465 1265 m 751 1265 l 751 1103 l 564 1103 l 564 1265 l 751 1265 m 129 992 l 247 992 q 277 990 263 992 q 299 981 292 989 q 306 952 306 969 q 307 917 307 935 l 307 776 l 307 490 l 307 442 q 306 430 307 436 q 307 418 306 424 l 307 396 q 306 369 307 383 q 308 344 306 356 q 310 329 308 335 q 315 299 313 314 q 322 268 317 283 q 362 208 338 232 q 426 171 386 185 q 449 167 438 168 q 471 163 460 165 q 483 160 478 160 q 496 160 489 161 q 514 159 501 158 q 531 161 526 160 l 551 161 q 574 165 563 164 q 594 169 585 167 q 625 179 614 174 q 669 209 650 190 q 699 251 688 228 q 717 337 714 288 q 719 439 719 386 l 719 715 l 719 901 q 719 944 719 921 q 726 979 718 968 q 746 990 733 988 q 774 992 758 992 l 863 992 q 884 992 874 992 q 904 990 894 993 q 929 976 924 986 q 935 945 936 965 q 935 908 935 925 l 935 722 l 935 442 q 933 339 935 389 q 921 249 932 289 q 872 135 901 183 q 793 54 842 88 q 692 4 750 24 q 666 -3 679 0 q 640 -8 653 -6 q 624 -11 632 -11 q 608 -14 617 -11 q 571 -18 592 -17 q 531 -19 550 -19 q 306 13 399 -21 q 160 124 213 47 q 130 176 142 149 q 108 235 118 203 q 106 247 106 242 q 103 258 106 251 q 92 346 92 297 q 92 443 92 394 l 92 831 l 92 928 q 92 955 92 942 q 96 976 92 968 q 118 990 104 986 q 124 990 121 990 q 129 992 126 990 z "},"":{"ha":797,"x_min":43,"x_max":729,"o":"m 725 56 q 724 65 724 60 q 722 74 724 69 q 717 123 717 96 q 717 176 717 150 l 717 486 q 715 549 717 518 q 704 603 714 579 q 657 669 688 643 q 584 710 626 694 q 490 731 542 725 q 381 735 438 736 q 366 733 378 732 q 349 733 354 735 q 313 728 331 729 q 278 722 294 726 q 224 705 250 714 q 174 681 197 696 q 161 672 167 676 q 149 663 156 668 q 140 656 143 657 q 113 626 124 642 q 104 613 108 619 q 96 599 100 606 q 84 574 89 588 q 75 546 79 561 q 72 533 74 540 q 72 519 71 526 q 88 501 76 504 q 94 499 90 499 q 101 497 99 499 l 114 497 q 126 497 119 496 q 140 497 133 497 l 193 497 q 218 497 206 497 q 242 500 231 497 q 262 517 257 504 q 274 543 267 529 q 284 561 276 551 q 299 576 292 571 q 313 587 306 582 q 329 594 321 592 q 358 601 342 599 q 393 605 375 604 q 428 603 411 606 q 458 597 446 601 q 517 540 503 582 q 519 531 518 536 q 521 519 519 525 q 521 511 521 517 q 519 503 521 506 q 519 497 518 500 q 518 490 519 494 q 501 463 514 475 q 458 438 482 443 q 404 426 433 433 q 383 424 393 424 q 364 421 374 424 q 343 419 353 418 q 324 417 333 419 q 299 413 311 414 q 275 410 286 413 q 236 403 256 406 q 199 393 217 400 q 121 357 151 378 q 67 296 90 336 q 56 267 60 283 q 47 236 51 251 q 44 213 47 226 q 44 194 43 207 q 46 176 44 181 q 47 163 47 169 q 49 149 46 156 q 55 125 51 136 q 63 104 58 114 q 108 40 79 64 q 176 0 136 15 q 200 -8 188 -6 q 226 -12 213 -10 q 244 -15 235 -15 q 263 -17 253 -14 l 275 -17 q 303 -17 289 -19 l 318 -17 q 326 -16 322 -17 q 335 -15 331 -15 q 353 -13 344 -14 q 372 -10 363 -12 q 413 1 393 -4 q 450 14 432 6 q 467 22 458 18 q 482 32 475 26 q 495 39 489 35 q 508 46 501 43 q 519 45 515 47 q 526 40 524 43 q 540 23 535 33 q 554 7 544 13 q 573 1 561 1 q 597 0 585 0 l 672 0 q 694 0 683 0 q 714 4 706 0 q 728 25 729 10 q 725 56 728 40 m 521 269 l 521 257 q 517 235 518 246 q 514 215 517 225 q 482 155 503 179 q 425 119 461 131 q 377 110 403 113 q 328 113 351 108 q 286 126 306 117 q 257 150 267 135 q 242 189 244 165 q 256 258 236 233 q 306 296 276 283 q 325 302 315 300 q 346 307 335 304 q 381 314 363 313 q 417 319 399 315 q 429 321 425 319 q 451 325 440 324 q 472 329 463 326 q 482 331 478 331 q 492 333 486 332 q 513 328 506 333 q 518 317 518 324 q 521 301 518 310 q 522 285 522 294 q 521 269 522 276 m 457 1001 l 556 1001 q 582 1001 567 1001 q 604 997 597 1001 q 608 994 607 996 q 611 990 608 992 q 598 961 613 974 q 574 939 583 949 q 552 919 563 929 q 531 900 542 908 q 522 891 525 896 q 513 883 518 886 q 506 876 510 879 q 492 863 499 869 q 478 851 485 857 q 474 847 475 849 q 471 843 474 846 q 449 825 460 835 q 424 810 439 815 q 413 808 418 808 q 401 807 408 808 q 390 806 397 806 q 378 807 383 807 q 346 807 363 807 q 321 814 329 807 q 317 833 313 819 q 326 853 319 844 q 339 872 333 863 q 365 910 353 892 q 390 947 378 928 q 405 971 397 958 q 422 990 413 983 q 442 1000 428 994 q 449 1001 444 1001 q 457 1001 454 1000 z "},"":{"ha":797,"x_min":43,"x_max":729,"o":"m 725 56 q 724 65 724 60 q 722 74 724 69 q 717 123 717 96 q 717 176 717 150 l 717 486 q 715 549 717 518 q 704 603 714 579 q 657 669 688 643 q 584 710 626 694 q 490 731 542 725 q 381 735 438 736 q 366 733 378 732 q 349 733 354 735 q 313 728 331 729 q 278 722 294 726 q 224 705 250 714 q 174 681 197 696 q 161 672 167 676 q 149 663 156 668 q 140 656 143 657 q 113 626 124 642 q 104 613 108 619 q 96 599 100 606 q 84 574 89 588 q 75 546 79 561 q 72 533 74 540 q 72 519 71 526 q 88 501 76 504 q 94 499 90 499 q 101 497 99 499 l 114 497 q 126 497 119 496 q 140 497 133 497 l 193 497 q 218 497 206 497 q 242 500 231 497 q 262 517 257 504 q 274 543 267 529 q 284 561 276 551 q 299 576 292 571 q 313 587 306 582 q 329 594 321 592 q 358 601 342 599 q 393 605 375 604 q 428 603 411 606 q 458 597 446 601 q 517 540 503 582 q 519 531 518 536 q 521 519 519 525 q 521 511 521 517 q 519 503 521 506 q 519 497 518 500 q 518 490 519 494 q 501 463 514 475 q 458 438 482 443 q 404 426 433 433 q 383 424 393 424 q 364 421 374 424 q 343 419 353 418 q 324 417 333 419 q 299 413 311 414 q 275 410 286 413 q 236 403 256 406 q 199 393 217 400 q 121 357 151 378 q 67 296 90 336 q 56 267 60 283 q 47 236 51 251 q 44 213 47 226 q 44 194 43 207 q 46 176 44 181 q 47 163 47 169 q 49 149 46 156 q 55 125 51 136 q 63 104 58 114 q 108 40 79 64 q 176 0 136 15 q 200 -8 188 -6 q 226 -12 213 -10 q 244 -15 235 -15 q 263 -17 253 -14 l 275 -17 q 303 -17 289 -19 l 318 -17 q 326 -16 322 -17 q 335 -15 331 -15 q 353 -13 344 -14 q 372 -10 363 -12 q 413 1 393 -4 q 450 14 432 6 q 467 22 458 18 q 482 32 475 26 q 495 39 489 35 q 508 46 501 43 q 519 45 515 47 q 526 40 524 43 q 540 23 535 33 q 554 7 544 13 q 573 1 561 1 q 597 0 585 0 l 672 0 q 694 0 683 0 q 714 4 706 0 q 728 25 729 10 q 725 56 728 40 m 521 269 l 521 257 q 517 235 518 246 q 514 215 517 225 q 482 155 503 179 q 425 119 461 131 q 377 110 403 113 q 328 113 351 108 q 286 126 306 117 q 257 150 267 135 q 242 189 244 165 q 256 258 236 233 q 306 296 276 283 q 325 302 315 300 q 346 307 335 304 q 381 314 363 313 q 417 319 399 315 q 429 321 425 319 q 451 325 440 324 q 472 329 463 326 q 482 331 478 331 q 492 333 486 332 q 513 328 506 333 q 518 317 518 324 q 521 301 518 310 q 522 285 522 294 q 521 269 522 276 m 218 1003 l 311 1003 q 338 1003 325 1003 q 361 999 351 1003 q 385 981 376 993 q 400 958 393 969 q 422 927 411 943 q 443 896 432 911 q 461 871 451 883 q 478 843 471 858 q 481 831 481 838 q 479 818 482 824 q 460 808 474 811 l 451 808 q 439 808 446 807 q 425 808 432 808 q 397 808 410 808 q 372 813 383 808 q 349 826 358 818 q 329 843 340 835 l 322 850 q 284 885 301 865 q 246 919 267 904 q 238 928 242 924 q 229 938 233 932 q 216 949 222 943 q 203 963 210 956 q 192 973 197 968 q 188 989 188 978 q 192 995 190 993 q 199 1000 194 997 q 208 1001 204 1001 q 218 1003 213 1001 z "},"":{"ha":797,"x_min":43,"x_max":729,"o":"m 725 56 q 724 65 724 60 q 722 74 724 69 q 717 123 717 96 q 717 176 717 150 l 717 486 q 715 549 717 518 q 704 603 714 579 q 657 669 688 643 q 584 710 626 694 q 490 731 542 725 q 381 735 438 736 q 366 733 378 732 q 349 733 354 735 q 313 728 331 729 q 278 722 294 726 q 224 705 250 714 q 174 681 197 696 q 161 672 167 676 q 149 663 156 668 q 140 656 143 657 q 113 626 124 642 q 104 613 108 619 q 96 599 100 606 q 84 574 89 588 q 75 546 79 561 q 72 533 74 540 q 72 519 71 526 q 88 501 76 504 q 94 499 90 499 q 101 497 99 499 l 114 497 q 126 497 119 496 q 140 497 133 497 l 193 497 q 218 497 206 497 q 242 500 231 497 q 262 517 257 504 q 274 543 267 529 q 284 561 276 551 q 299 576 292 571 q 313 587 306 582 q 329 594 321 592 q 358 601 342 599 q 393 605 375 604 q 428 603 411 606 q 458 597 446 601 q 517 540 503 582 q 519 531 518 536 q 521 519 519 525 q 521 511 521 517 q 519 503 521 506 q 519 497 518 500 q 518 490 519 494 q 501 463 514 475 q 458 438 482 443 q 404 426 433 433 q 383 424 393 424 q 364 421 374 424 q 343 419 353 418 q 324 417 333 419 q 299 413 311 414 q 275 410 286 413 q 236 403 256 406 q 199 393 217 400 q 121 357 151 378 q 67 296 90 336 q 56 267 60 283 q 47 236 51 251 q 44 213 47 226 q 44 194 43 207 q 46 176 44 181 q 47 163 47 169 q 49 149 46 156 q 55 125 51 136 q 63 104 58 114 q 108 40 79 64 q 176 0 136 15 q 200 -8 188 -6 q 226 -12 213 -10 q 244 -15 235 -15 q 263 -17 253 -14 l 275 -17 q 303 -17 289 -19 l 318 -17 q 326 -16 322 -17 q 335 -15 331 -15 q 353 -13 344 -14 q 372 -10 363 -12 q 413 1 393 -4 q 450 14 432 6 q 467 22 458 18 q 482 32 475 26 q 495 39 489 35 q 508 46 501 43 q 519 45 515 47 q 526 40 524 43 q 540 23 535 33 q 554 7 544 13 q 573 1 561 1 q 597 0 585 0 l 672 0 q 694 0 683 0 q 714 4 706 0 q 728 25 729 10 q 725 56 728 40 m 521 269 l 521 257 q 517 235 518 246 q 514 215 517 225 q 482 155 503 179 q 425 119 461 131 q 377 110 403 113 q 328 113 351 108 q 286 126 306 117 q 257 150 267 135 q 242 189 244 165 q 256 258 236 233 q 306 296 276 283 q 325 302 315 300 q 346 307 335 304 q 381 314 363 313 q 417 319 399 315 q 429 321 425 319 q 451 325 440 324 q 472 329 463 326 q 482 331 478 331 q 492 333 486 332 q 513 328 506 333 q 518 317 518 324 q 521 301 518 310 q 522 285 522 294 q 521 269 522 276 m 339 1003 l 429 1003 q 458 1003 444 1003 q 482 999 471 1003 q 503 983 494 993 q 518 963 511 974 q 544 930 531 946 q 569 897 557 914 q 587 875 578 886 q 604 853 596 864 q 613 839 608 846 q 615 821 617 832 q 612 817 613 818 q 610 814 611 815 q 591 808 603 808 q 568 808 579 808 q 513 808 538 808 q 471 821 489 808 q 461 831 465 825 q 453 843 457 838 q 440 860 446 851 q 426 876 433 868 q 413 892 419 885 q 394 903 406 900 q 371 892 382 906 q 356 872 360 879 q 347 862 351 867 q 338 851 342 857 q 319 829 329 840 q 296 813 310 818 q 267 808 285 807 q 233 808 249 808 q 208 808 221 808 q 188 814 194 808 q 184 817 185 815 q 181 822 183 819 q 194 856 181 840 q 215 883 208 872 q 242 917 229 900 q 268 951 256 933 q 285 974 276 963 q 304 992 293 985 q 322 1001 311 997 q 331 1001 325 1003 q 339 1003 336 1000 z "},"":{"ha":797,"x_min":43,"x_max":729,"o":"m 725 56 q 728 25 728 40 q 714 4 729 10 q 694 0 706 0 q 672 0 683 0 l 597 0 q 573 1 585 0 q 554 7 561 1 q 540 23 544 13 q 526 40 535 33 q 519 45 524 43 q 508 46 515 47 q 495 39 501 43 q 482 32 489 35 q 467 22 475 26 q 450 14 458 18 q 413 1 432 6 q 372 -10 393 -4 q 353 -13 363 -12 q 335 -15 344 -14 q 326 -16 331 -15 q 318 -17 322 -17 l 303 -17 q 275 -17 289 -19 l 263 -17 q 244 -15 253 -14 q 226 -12 235 -15 q 200 -8 213 -10 q 176 0 188 -6 q 108 40 136 15 q 63 104 79 64 q 55 125 58 114 q 49 149 51 136 q 47 163 46 156 q 46 176 47 169 q 44 194 44 181 q 44 213 43 207 q 47 236 47 226 q 56 267 51 251 q 67 296 60 283 q 121 357 90 336 q 199 393 151 378 q 236 403 217 400 q 275 410 256 406 q 299 413 286 413 q 324 417 311 414 q 343 419 333 419 q 364 421 353 418 q 383 424 374 424 q 404 426 393 424 q 458 438 433 433 q 501 463 482 443 q 518 490 514 475 q 519 497 519 494 q 519 503 518 500 q 521 511 521 506 q 521 519 521 517 q 519 531 519 525 q 517 540 518 536 q 458 597 503 582 q 428 603 446 601 q 393 605 411 606 q 358 601 375 604 q 329 594 342 599 q 313 587 321 592 q 299 576 306 582 q 284 561 292 571 q 274 543 276 551 q 262 517 267 529 q 242 500 257 504 q 218 497 231 497 q 193 497 206 497 l 140 497 q 126 497 133 497 q 114 497 119 496 l 101 497 q 94 499 99 499 q 88 501 90 499 q 72 519 76 504 q 72 533 71 526 q 75 546 74 540 q 84 574 79 561 q 96 599 89 588 q 104 613 100 606 q 113 626 108 619 q 140 656 124 642 q 149 663 143 657 q 161 672 156 668 q 174 681 167 676 q 224 705 197 696 q 278 722 250 714 q 313 728 294 726 q 349 733 331 729 q 366 733 354 735 q 381 735 378 732 q 490 731 438 736 q 584 710 542 725 q 657 669 626 694 q 704 603 688 643 q 715 549 714 579 q 717 486 717 518 l 717 176 q 717 123 717 150 q 722 74 717 96 q 724 65 724 69 q 725 56 724 60 m 521 269 q 522 285 522 276 q 521 301 522 294 q 518 317 518 310 q 513 328 518 324 q 492 333 506 333 q 482 331 486 332 q 472 329 478 331 q 451 325 463 326 q 429 321 440 324 q 417 319 425 319 q 381 314 399 315 q 346 307 363 313 q 325 302 335 304 q 306 296 315 300 q 256 258 276 283 q 242 189 236 233 q 257 150 244 165 q 286 126 267 135 q 328 113 306 117 q 377 110 351 108 q 425 119 403 113 q 482 155 461 131 q 514 215 503 179 q 517 235 517 225 q 521 257 518 246 l 521 269 m 338 982 q 349 945 350 972 q 349 896 349 918 q 349 881 349 889 q 349 865 350 872 q 345 849 346 856 q 338 838 344 842 q 317 830 329 831 q 290 829 306 829 l 217 829 q 192 831 204 829 q 174 840 181 833 q 165 883 164 854 q 165 935 165 911 q 166 957 165 946 q 171 975 167 968 q 192 989 176 983 q 203 990 201 989 l 289 990 q 317 990 304 990 q 338 982 329 989 m 624 981 q 635 944 635 972 q 635 896 635 917 q 635 881 635 889 q 633 867 636 874 l 633 860 q 630 848 632 854 q 624 839 628 842 q 603 831 615 832 q 575 829 590 829 l 503 829 q 476 831 489 829 q 458 842 464 833 q 449 884 449 854 q 450 936 450 914 q 451 958 450 947 q 456 975 451 968 q 476 989 461 983 q 488 990 486 989 l 574 990 q 602 989 589 990 q 624 981 615 988 z "},"":{"ha":797,"x_min":43,"x_max":729,"o":"m 725 56 q 724 65 724 60 q 722 74 724 69 q 717 123 717 96 q 717 176 717 150 l 717 486 q 715 549 717 518 q 704 603 714 579 q 657 669 688 643 q 584 710 626 694 q 490 731 542 725 q 381 735 438 736 q 366 733 378 732 q 349 733 354 735 q 313 728 331 729 q 278 722 294 726 q 224 705 250 714 q 174 681 197 696 q 161 672 167 676 q 149 663 156 668 q 140 656 143 657 q 113 626 124 642 q 104 613 108 619 q 96 599 100 606 q 84 574 89 588 q 75 546 79 561 q 72 533 74 540 q 72 519 71 526 q 88 501 76 504 q 94 499 90 499 q 101 497 99 499 l 114 497 q 126 497 119 496 q 140 497 133 497 l 193 497 q 218 497 206 497 q 242 500 231 497 q 262 517 257 504 q 274 543 267 529 q 284 561 276 551 q 299 576 292 571 q 313 587 306 582 q 329 594 321 592 q 358 601 342 599 q 393 605 375 604 q 428 603 411 606 q 458 597 446 601 q 517 540 503 582 q 519 531 518 536 q 521 519 519 525 q 521 511 521 517 q 519 503 521 506 q 519 497 518 500 q 518 490 519 494 q 501 463 514 475 q 458 438 482 443 q 404 426 433 433 q 383 424 393 424 q 364 421 374 424 q 343 419 353 418 q 324 417 333 419 q 299 413 311 414 q 275 410 286 413 q 236 403 256 406 q 199 393 217 400 q 121 357 151 378 q 67 296 90 336 q 56 267 60 283 q 47 236 51 251 q 44 213 47 226 q 44 194 43 207 q 46 176 44 181 q 47 163 47 169 q 49 149 46 156 q 55 125 51 136 q 63 104 58 114 q 108 40 79 64 q 176 0 136 15 q 200 -8 188 -6 q 226 -12 213 -10 q 244 -15 235 -15 q 263 -17 253 -14 l 275 -17 q 303 -17 289 -19 l 318 -17 q 326 -16 322 -17 q 335 -15 331 -15 q 353 -13 344 -14 q 372 -10 363 -12 q 413 1 393 -4 q 450 14 432 6 q 467 22 458 18 q 482 32 475 26 q 495 39 489 35 q 508 46 501 43 q 519 45 515 47 q 526 40 524 43 q 540 23 535 33 q 554 7 544 13 q 573 1 561 1 q 597 0 585 0 l 672 0 q 694 0 683 0 q 714 4 706 0 q 728 25 729 10 q 725 56 728 40 m 521 269 l 521 257 q 517 235 518 246 q 514 215 517 225 q 482 155 503 179 q 425 119 461 131 q 377 110 403 113 q 328 113 351 108 q 286 126 306 117 q 257 150 267 135 q 242 189 244 165 q 256 258 236 233 q 306 296 276 283 q 325 302 315 300 q 346 307 335 304 q 381 314 363 313 q 417 319 399 315 q 429 321 425 319 q 451 325 440 324 q 472 329 463 326 q 482 331 478 331 q 492 333 486 332 q 513 328 506 333 q 518 317 518 324 q 521 301 518 310 q 522 285 522 294 q 521 269 522 276 m 594 990 q 633 984 618 992 q 640 951 647 976 q 637 943 638 947 q 635 936 636 939 q 610 891 624 913 q 575 856 596 869 q 533 839 560 846 q 499 835 521 835 q 463 839 476 835 q 442 842 451 842 q 422 846 433 843 q 383 859 403 853 q 343 872 363 865 q 324 876 333 875 q 306 879 315 876 q 283 879 294 882 q 274 878 281 878 q 263 872 267 875 q 253 865 258 868 q 249 861 249 861 q 234 842 242 853 q 215 828 226 832 q 182 824 200 821 q 158 839 164 828 q 157 854 156 846 q 161 868 158 863 q 172 897 167 883 q 186 922 178 910 q 254 979 213 961 q 269 983 261 982 q 283 986 276 983 q 317 990 297 989 q 350 986 336 990 q 399 969 376 979 q 446 953 422 960 q 467 947 457 949 q 488 943 476 946 q 506 944 496 942 q 522 948 515 947 q 535 953 528 949 q 551 967 544 958 q 567 982 557 975 q 583 989 574 986 q 589 990 586 990 q 594 990 592 989 z "},"":{"ha":797,"x_min":43,"x_max":729,"o":"m 725 56 q 728 25 728 40 q 714 4 729 10 q 694 0 706 0 q 672 0 683 0 l 597 0 q 573 1 585 0 q 554 7 561 1 q 540 23 544 13 q 526 40 535 33 q 519 45 524 43 q 508 46 515 47 q 495 39 501 43 q 482 32 489 35 q 467 22 475 26 q 450 14 458 18 q 413 1 432 6 q 372 -10 393 -4 q 353 -13 363 -12 q 335 -15 344 -14 q 326 -16 331 -15 q 318 -17 322 -17 l 303 -17 q 275 -17 289 -19 l 263 -17 q 244 -15 253 -14 q 226 -12 235 -15 q 200 -8 213 -10 q 176 0 188 -6 q 108 40 136 15 q 63 104 79 64 q 55 125 58 114 q 49 149 51 136 q 47 163 46 156 q 46 176 47 169 q 44 194 44 181 q 44 213 43 207 q 47 236 47 226 q 56 267 51 251 q 67 296 60 283 q 121 357 90 336 q 199 393 151 378 q 236 403 217 400 q 275 410 256 406 q 299 413 286 413 q 324 417 311 414 q 343 419 333 419 q 364 421 353 418 q 383 424 374 424 q 404 426 393 424 q 458 438 433 433 q 501 463 482 443 q 518 490 514 475 q 519 497 519 494 q 519 503 518 500 q 521 511 521 506 q 521 519 521 517 q 519 531 519 525 q 517 540 518 536 q 458 597 503 582 q 428 603 446 601 q 393 605 411 606 q 358 601 375 604 q 329 594 342 599 q 313 587 321 592 q 299 576 306 582 q 284 561 292 571 q 274 543 276 551 q 262 517 267 529 q 242 500 257 504 q 218 497 231 497 q 193 497 206 497 l 140 497 q 126 497 133 497 q 114 497 119 496 l 101 497 q 94 499 99 499 q 88 501 90 499 q 72 519 76 504 q 72 533 71 526 q 75 546 74 540 q 84 574 79 561 q 96 599 89 588 q 104 613 100 606 q 113 626 108 619 q 140 656 124 642 q 149 663 143 657 q 161 672 156 668 q 174 681 167 676 q 224 705 197 696 q 278 722 250 714 q 313 728 294 726 q 349 733 331 729 q 366 733 354 735 q 381 735 378 732 q 490 731 438 736 q 584 710 542 725 q 657 669 626 694 q 704 603 688 643 q 715 549 714 579 q 717 486 717 518 l 717 176 q 717 123 717 150 q 722 74 717 96 q 724 65 724 69 q 725 56 724 60 m 521 269 q 522 285 522 276 q 521 301 522 294 q 518 317 518 310 q 513 328 518 324 q 492 333 506 333 q 482 331 486 332 q 472 329 478 331 q 451 325 463 326 q 429 321 440 324 q 417 319 425 319 q 381 314 399 315 q 346 307 363 313 q 325 302 335 304 q 306 296 315 300 q 256 258 276 283 q 242 189 236 233 q 257 150 244 165 q 286 126 267 135 q 328 113 306 117 q 377 110 351 108 q 425 119 403 113 q 482 155 461 131 q 514 215 503 179 q 517 235 517 225 q 521 257 518 246 l 521 269 m 556 972 q 567 909 567 944 q 556 846 567 874 q 460 754 526 781 q 443 750 451 751 q 426 746 435 749 q 417 744 422 744 q 408 743 413 744 q 398 742 404 742 q 389 744 392 743 q 379 744 383 746 q 371 746 375 743 q 332 757 351 750 q 273 799 294 774 q 236 865 251 825 q 228 894 232 876 q 229 931 224 913 q 233 947 232 939 q 238 964 235 956 q 276 1026 253 1000 q 335 1067 299 1051 q 352 1072 343 1069 q 371 1076 361 1074 q 381 1077 374 1078 q 390 1079 388 1076 q 497 1049 457 1081 q 556 972 536 1017 m 486 892 q 487 923 489 907 q 481 950 485 939 q 449 992 469 978 q 389 1007 428 1007 q 385 1006 388 1006 q 381 1006 383 1007 q 365 1001 376 1004 q 335 980 347 994 q 317 946 324 965 q 313 928 315 939 q 310 906 310 918 q 314 888 311 894 q 331 849 321 864 q 361 824 342 835 q 383 816 368 819 q 408 815 397 813 q 479 867 461 826 q 483 878 482 872 q 486 892 483 885 z "},"":{"ha":797,"x_min":51,"x_max":754,"o":"m 403 735 q 591 701 515 738 q 711 599 667 665 q 747 514 735 564 q 749 491 750 503 q 742 474 749 479 q 722 466 733 467 q 696 465 711 465 l 625 465 q 603 465 614 465 q 585 467 593 464 q 564 483 569 472 q 551 508 558 494 q 532 540 543 524 q 505 565 521 556 q 469 582 489 575 q 452 585 461 585 q 435 588 443 585 q 419 588 429 589 q 404 586 408 588 q 392 585 397 585 q 382 583 388 586 q 335 564 358 578 q 290 517 307 544 q 261 453 272 489 q 257 433 258 443 q 253 413 256 424 q 251 397 251 406 q 249 382 250 389 l 249 369 q 247 353 247 363 q 249 339 247 344 l 249 326 q 251 309 250 318 q 253 292 251 300 q 265 247 260 268 q 282 206 271 225 q 313 165 296 182 q 357 138 331 149 q 406 127 381 128 q 456 133 432 126 q 500 150 481 139 q 531 176 519 161 q 545 199 539 188 q 558 224 551 210 q 567 247 564 236 q 582 265 571 258 q 604 272 590 272 q 632 272 618 272 l 685 272 q 699 273 692 272 q 711 272 706 274 l 724 272 q 731 271 726 271 q 738 268 735 271 q 751 251 750 264 q 753 237 754 244 q 749 224 751 229 q 746 211 746 217 q 743 199 746 206 q 736 181 740 190 q 729 165 732 172 q 657 64 701 103 q 547 1 613 25 q 515 -6 532 -4 q 482 -12 499 -8 q 472 -14 475 -12 q 451 -18 461 -17 q 433 -25 442 -19 q 427 -30 431 -26 q 420 -37 424 -33 q 416 -46 417 -42 q 418 -54 415 -50 q 428 -64 419 -61 q 448 -68 438 -67 q 469 -71 458 -69 q 488 -74 481 -72 q 534 -97 515 -83 q 563 -136 553 -110 q 568 -155 565 -143 q 568 -178 571 -167 q 567 -187 567 -182 q 565 -199 567 -193 q 531 -262 554 -240 q 467 -294 507 -283 q 448 -298 457 -297 q 428 -301 439 -299 l 417 -301 q 386 -302 406 -303 q 357 -300 367 -301 q 344 -299 350 -299 q 331 -297 338 -299 q 301 -292 315 -294 q 275 -285 288 -289 q 260 -277 267 -281 q 250 -265 253 -274 q 253 -237 244 -250 q 269 -219 261 -225 q 276 -217 272 -218 q 285 -217 281 -215 q 319 -224 299 -219 q 359 -231 339 -229 q 397 -228 379 -232 q 424 -211 414 -224 q 432 -195 428 -204 q 433 -175 436 -186 q 418 -151 429 -158 q 389 -139 407 -143 q 379 -138 385 -137 q 371 -139 374 -139 l 360 -139 q 332 -139 344 -142 q 314 -128 319 -136 q 309 -113 310 -121 q 311 -99 308 -106 q 320 -83 315 -90 q 331 -68 325 -75 q 339 -53 333 -64 q 347 -37 343 -47 q 344 -21 350 -28 q 312 -5 336 -10 q 272 7 288 0 q 240 21 256 14 q 208 38 224 28 q 188 53 197 44 q 169 68 179 61 q 166 71 167 69 q 164 74 165 72 q 143 93 153 82 q 125 115 133 104 q 115 130 121 122 q 106 144 110 138 q 84 187 93 164 q 68 233 75 210 q 62 259 64 246 q 57 285 60 272 q 56 294 57 290 q 56 303 56 299 q 52 333 53 313 q 54 365 51 354 l 54 378 q 54 387 54 382 q 56 396 54 392 l 56 410 q 60 431 58 421 q 64 453 61 442 q 74 490 69 472 q 85 522 78 507 q 110 571 96 549 q 139 615 124 593 q 171 647 154 632 q 181 656 175 650 q 197 669 189 663 q 215 681 206 675 q 258 703 235 693 q 307 721 282 713 q 339 728 322 726 q 372 732 356 729 q 389 733 378 733 q 403 735 400 732 z "},"":{"ha":797,"x_min":40,"x_max":757,"o":"m 754 365 l 754 381 q 752 405 751 392 q 750 429 753 418 q 740 468 744 449 q 729 506 736 488 q 719 534 724 521 q 707 560 714 547 q 686 592 696 576 q 665 624 676 608 q 654 635 658 628 q 632 656 644 646 q 607 675 619 667 q 516 720 567 703 q 394 736 465 738 q 374 735 383 735 q 353 733 364 735 q 310 724 331 728 q 271 713 290 721 q 68 508 128 653 q 56 467 60 489 q 46 421 51 444 l 42 388 l 42 371 q 41 356 40 364 q 42 340 42 347 q 44 301 43 321 q 51 265 46 282 q 53 255 53 260 q 54 244 53 250 q 65 212 61 228 q 76 181 69 196 q 133 95 99 132 q 213 31 168 58 q 237 19 224 24 q 265 8 250 14 q 293 -2 278 1 q 324 -8 308 -6 q 339 -11 331 -11 q 354 -14 347 -11 q 372 -15 364 -17 q 392 -15 381 -14 q 408 -17 399 -17 q 424 -15 417 -18 l 439 -15 q 451 -15 444 -14 q 463 -14 457 -15 q 494 -8 479 -10 q 525 -1 510 -7 q 622 46 583 18 q 692 119 661 74 q 711 150 703 135 q 726 185 719 165 q 728 201 729 192 q 722 214 728 211 q 703 221 717 218 l 689 221 q 673 223 682 224 q 656 222 664 222 q 616 223 638 222 q 581 217 594 224 q 562 203 569 213 q 547 185 554 194 q 522 163 539 174 q 490 144 504 151 q 467 137 479 140 q 442 131 456 133 l 429 131 q 396 129 415 128 q 365 133 376 131 q 341 140 353 138 q 318 149 329 142 q 274 187 290 165 q 247 242 258 208 q 244 258 244 250 q 240 274 243 265 q 242 288 239 281 q 247 299 244 296 q 261 310 250 304 q 277 313 268 313 q 296 313 286 313 l 635 313 q 663 312 647 313 q 695 312 679 311 q 724 315 711 313 q 744 322 738 317 q 754 340 751 326 q 754 365 757 354 m 546 447 q 517 435 539 436 q 476 435 496 435 l 322 435 q 285 435 304 435 q 254 442 265 435 q 245 456 247 447 q 244 473 243 464 q 249 491 246 482 q 256 506 253 500 q 346 582 285 563 q 361 585 353 585 q 376 589 369 586 q 386 589 381 590 q 396 590 392 588 q 485 569 453 589 q 536 511 517 549 q 548 481 540 501 q 546 447 556 461 m 457 1001 l 556 1001 q 582 1001 567 1001 q 604 997 597 1001 q 608 994 607 996 q 611 990 608 992 q 598 961 613 974 q 574 939 583 949 q 552 919 563 929 q 531 900 542 908 q 522 891 525 896 q 513 883 518 886 q 506 876 510 879 q 492 863 499 869 q 478 851 485 857 q 474 847 475 849 q 471 843 474 846 q 449 825 460 835 q 424 810 439 815 q 413 808 418 808 q 401 807 408 808 q 390 806 397 806 q 378 807 383 807 q 346 807 363 807 q 321 814 329 807 q 317 833 313 819 q 326 853 319 844 q 339 872 333 863 q 365 910 353 892 q 390 947 378 928 q 405 971 397 958 q 422 990 413 983 q 442 1000 428 994 q 449 1001 444 1001 q 457 1001 454 1000 z "},"":{"ha":797,"x_min":40,"x_max":757,"o":"m 754 365 l 754 381 q 752 405 751 392 q 750 429 753 418 q 740 468 744 449 q 729 506 736 488 q 719 534 724 521 q 707 560 714 547 q 686 592 696 576 q 665 624 676 608 q 654 635 658 628 q 632 656 644 646 q 607 675 619 667 q 516 720 567 703 q 394 736 465 738 q 374 735 383 735 q 353 733 364 735 q 310 724 331 728 q 271 713 290 721 q 68 508 128 653 q 56 467 60 489 q 46 421 51 444 l 42 388 l 42 371 q 41 356 40 364 q 42 340 42 347 q 44 301 43 321 q 51 265 46 282 q 53 255 53 260 q 54 244 53 250 q 65 212 61 228 q 76 181 69 196 q 133 95 99 132 q 213 31 168 58 q 237 19 224 24 q 265 8 250 14 q 293 -2 278 1 q 324 -8 308 -6 q 339 -11 331 -11 q 354 -14 347 -11 q 372 -15 364 -17 q 392 -15 381 -14 q 408 -17 399 -17 q 424 -15 417 -18 l 439 -15 q 451 -15 444 -14 q 463 -14 457 -15 q 494 -8 479 -10 q 525 -1 510 -7 q 622 46 583 18 q 692 119 661 74 q 711 150 703 135 q 726 185 719 165 q 728 201 729 192 q 722 214 728 211 q 703 221 717 218 l 689 221 q 673 223 682 224 q 656 222 664 222 q 616 223 638 222 q 581 217 594 224 q 562 203 569 213 q 547 185 554 194 q 522 163 539 174 q 490 144 504 151 q 467 137 479 140 q 442 131 456 133 l 429 131 q 396 129 415 128 q 365 133 376 131 q 341 140 353 138 q 318 149 329 142 q 274 187 290 165 q 247 242 258 208 q 244 258 244 250 q 240 274 243 265 q 242 288 239 281 q 247 299 244 296 q 261 310 250 304 q 277 313 268 313 q 296 313 286 313 l 635 313 q 663 312 647 313 q 695 312 679 311 q 724 315 711 313 q 744 322 738 317 q 754 340 751 326 q 754 365 757 354 m 546 447 q 517 435 539 436 q 476 435 496 435 l 322 435 q 285 435 304 435 q 254 442 265 435 q 245 456 247 447 q 244 473 243 464 q 249 491 246 482 q 256 506 253 500 q 346 582 285 563 q 361 585 353 585 q 376 589 369 586 q 386 589 381 590 q 396 590 392 588 q 485 569 453 589 q 536 511 517 549 q 548 481 540 501 q 546 447 556 461 m 218 1003 l 311 1003 q 338 1003 325 1003 q 361 999 351 1003 q 385 981 376 993 q 400 958 393 969 q 422 927 411 943 q 443 896 432 911 q 461 871 451 883 q 478 843 471 858 q 481 831 481 838 q 479 818 482 824 q 460 808 474 811 l 451 808 q 439 808 446 807 q 425 808 432 808 q 397 808 410 808 q 372 813 383 808 q 349 826 358 818 q 329 843 340 835 l 322 850 q 284 885 301 865 q 246 919 267 904 q 238 928 242 924 q 229 938 233 932 q 216 949 222 943 q 203 963 210 956 q 192 973 197 968 q 188 989 188 978 q 192 995 190 993 q 199 1000 194 997 q 208 1001 204 1001 q 218 1003 213 1001 z "}}}
